G04 #@! TF.FileFunction,Legend,Top*
%FSLAX46Y46*%
G04 Gerber Fmt 4.6, Leading zero omitted, Abs format (unit mm)*
G04 Created by KiCad (PCBNEW 4.0.4-stable) date Thursday, 20 '20e' October '20e' 2016, 21:15:53*
%MOMM*%
%LPD*%
G01*
G04 APERTURE LIST*
%ADD10C,0.100000*%
%ADD11C,0.250000*%
%ADD12C,0.300000*%
%ADD13C,0.800000*%
%ADD14C,6.400000*%
%ADD15C,4.400000*%
%ADD16C,4.900000*%
%ADD17C,3.400000*%
G04 APERTURE END LIST*
D10*
D11*
X141673095Y-103562381D02*
X142244524Y-103562381D01*
X141958809Y-104562381D02*
X141958809Y-103562381D01*
X142958810Y-104514762D02*
X142863572Y-104562381D01*
X142673095Y-104562381D01*
X142577857Y-104514762D01*
X142530238Y-104419524D01*
X142530238Y-104038571D01*
X142577857Y-103943333D01*
X142673095Y-103895714D01*
X142863572Y-103895714D01*
X142958810Y-103943333D01*
X143006429Y-104038571D01*
X143006429Y-104133810D01*
X142530238Y-104229048D01*
X143435000Y-104562381D02*
X143435000Y-103562381D01*
X143530238Y-104181429D02*
X143815953Y-104562381D01*
X143815953Y-103895714D02*
X143435000Y-104276667D01*
X144101667Y-103895714D02*
X144482619Y-103895714D01*
X144244524Y-103562381D02*
X144244524Y-104419524D01*
X144292143Y-104514762D01*
X144387381Y-104562381D01*
X144482619Y-104562381D01*
X144815953Y-104562381D02*
X144815953Y-103895714D01*
X144815953Y-104086190D02*
X144863572Y-103990952D01*
X144911191Y-103943333D01*
X145006429Y-103895714D01*
X145101668Y-103895714D01*
X145577858Y-104562381D02*
X145482620Y-104514762D01*
X145435001Y-104467143D01*
X145387382Y-104371905D01*
X145387382Y-104086190D01*
X145435001Y-103990952D01*
X145482620Y-103943333D01*
X145577858Y-103895714D01*
X145720716Y-103895714D01*
X145815954Y-103943333D01*
X145863573Y-103990952D01*
X145911192Y-104086190D01*
X145911192Y-104371905D01*
X145863573Y-104467143D01*
X145815954Y-104514762D01*
X145720716Y-104562381D01*
X145577858Y-104562381D01*
X146339763Y-103895714D02*
X146339763Y-104562381D01*
X146339763Y-103990952D02*
X146387382Y-103943333D01*
X146482620Y-103895714D01*
X146625478Y-103895714D01*
X146720716Y-103943333D01*
X146768335Y-104038571D01*
X146768335Y-104562381D01*
X147244525Y-104562381D02*
X147244525Y-103895714D01*
X147244525Y-103562381D02*
X147196906Y-103610000D01*
X147244525Y-103657619D01*
X147292144Y-103610000D01*
X147244525Y-103562381D01*
X147244525Y-103657619D01*
X147625477Y-104562381D02*
X148149287Y-103895714D01*
X147625477Y-103895714D02*
X148149287Y-104562381D01*
X142101667Y-106264762D02*
X142006429Y-106312381D01*
X141815952Y-106312381D01*
X141720714Y-106264762D01*
X141673095Y-106217143D01*
X141625476Y-106121905D01*
X141625476Y-105836190D01*
X141673095Y-105740952D01*
X141720714Y-105693333D01*
X141815952Y-105645714D01*
X142006429Y-105645714D01*
X142101667Y-105693333D01*
X142958810Y-106312381D02*
X142958810Y-105788571D01*
X142911191Y-105693333D01*
X142815953Y-105645714D01*
X142625476Y-105645714D01*
X142530238Y-105693333D01*
X142958810Y-106264762D02*
X142863572Y-106312381D01*
X142625476Y-106312381D01*
X142530238Y-106264762D01*
X142482619Y-106169524D01*
X142482619Y-106074286D01*
X142530238Y-105979048D01*
X142625476Y-105931429D01*
X142863572Y-105931429D01*
X142958810Y-105883810D01*
X143435000Y-105645714D02*
X143435000Y-106645714D01*
X143435000Y-105693333D02*
X143530238Y-105645714D01*
X143720715Y-105645714D01*
X143815953Y-105693333D01*
X143863572Y-105740952D01*
X143911191Y-105836190D01*
X143911191Y-106121905D01*
X143863572Y-106217143D01*
X143815953Y-106264762D01*
X143720715Y-106312381D01*
X143530238Y-106312381D01*
X143435000Y-106264762D01*
X144768334Y-106312381D02*
X144768334Y-105788571D01*
X144720715Y-105693333D01*
X144625477Y-105645714D01*
X144435000Y-105645714D01*
X144339762Y-105693333D01*
X144768334Y-106264762D02*
X144673096Y-106312381D01*
X144435000Y-106312381D01*
X144339762Y-106264762D01*
X144292143Y-106169524D01*
X144292143Y-106074286D01*
X144339762Y-105979048D01*
X144435000Y-105931429D01*
X144673096Y-105931429D01*
X144768334Y-105883810D01*
X145673096Y-106264762D02*
X145577858Y-106312381D01*
X145387381Y-106312381D01*
X145292143Y-106264762D01*
X145244524Y-106217143D01*
X145196905Y-106121905D01*
X145196905Y-105836190D01*
X145244524Y-105740952D01*
X145292143Y-105693333D01*
X145387381Y-105645714D01*
X145577858Y-105645714D01*
X145673096Y-105693333D01*
X146101667Y-106312381D02*
X146101667Y-105645714D01*
X146101667Y-105312381D02*
X146054048Y-105360000D01*
X146101667Y-105407619D01*
X146149286Y-105360000D01*
X146101667Y-105312381D01*
X146101667Y-105407619D01*
X146435000Y-105645714D02*
X146815952Y-105645714D01*
X146577857Y-105312381D02*
X146577857Y-106169524D01*
X146625476Y-106264762D01*
X146720714Y-106312381D01*
X146815952Y-106312381D01*
X147292143Y-106312381D02*
X147196905Y-106264762D01*
X147149286Y-106217143D01*
X147101667Y-106121905D01*
X147101667Y-105836190D01*
X147149286Y-105740952D01*
X147196905Y-105693333D01*
X147292143Y-105645714D01*
X147435001Y-105645714D01*
X147530239Y-105693333D01*
X147577858Y-105740952D01*
X147625477Y-105836190D01*
X147625477Y-106121905D01*
X147577858Y-106217143D01*
X147530239Y-106264762D01*
X147435001Y-106312381D01*
X147292143Y-106312381D01*
X148054048Y-106312381D02*
X148054048Y-105645714D01*
X148054048Y-105836190D02*
X148101667Y-105740952D01*
X148149286Y-105693333D01*
X148244524Y-105645714D01*
X148339763Y-105645714D01*
X142744524Y-108062381D02*
X142744524Y-107538571D01*
X142696905Y-107443333D01*
X142601667Y-107395714D01*
X142411190Y-107395714D01*
X142315952Y-107443333D01*
X142744524Y-108014762D02*
X142649286Y-108062381D01*
X142411190Y-108062381D01*
X142315952Y-108014762D01*
X142268333Y-107919524D01*
X142268333Y-107824286D01*
X142315952Y-107729048D01*
X142411190Y-107681429D01*
X142649286Y-107681429D01*
X142744524Y-107633810D01*
X143649286Y-108062381D02*
X143649286Y-107062381D01*
X143649286Y-108014762D02*
X143554048Y-108062381D01*
X143363571Y-108062381D01*
X143268333Y-108014762D01*
X143220714Y-107967143D01*
X143173095Y-107871905D01*
X143173095Y-107586190D01*
X143220714Y-107490952D01*
X143268333Y-107443333D01*
X143363571Y-107395714D01*
X143554048Y-107395714D01*
X143649286Y-107443333D01*
X144554048Y-108062381D02*
X144554048Y-107538571D01*
X144506429Y-107443333D01*
X144411191Y-107395714D01*
X144220714Y-107395714D01*
X144125476Y-107443333D01*
X144554048Y-108014762D02*
X144458810Y-108062381D01*
X144220714Y-108062381D01*
X144125476Y-108014762D01*
X144077857Y-107919524D01*
X144077857Y-107824286D01*
X144125476Y-107729048D01*
X144220714Y-107681429D01*
X144458810Y-107681429D01*
X144554048Y-107633810D01*
X145030238Y-107395714D02*
X145030238Y-108395714D01*
X145030238Y-107443333D02*
X145125476Y-107395714D01*
X145315953Y-107395714D01*
X145411191Y-107443333D01*
X145458810Y-107490952D01*
X145506429Y-107586190D01*
X145506429Y-107871905D01*
X145458810Y-107967143D01*
X145411191Y-108014762D01*
X145315953Y-108062381D01*
X145125476Y-108062381D01*
X145030238Y-108014762D01*
X145792143Y-107395714D02*
X146173095Y-107395714D01*
X145935000Y-107062381D02*
X145935000Y-107919524D01*
X145982619Y-108014762D01*
X146077857Y-108062381D01*
X146173095Y-108062381D01*
X146649286Y-108062381D02*
X146554048Y-108014762D01*
X146506429Y-107967143D01*
X146458810Y-107871905D01*
X146458810Y-107586190D01*
X146506429Y-107490952D01*
X146554048Y-107443333D01*
X146649286Y-107395714D01*
X146792144Y-107395714D01*
X146887382Y-107443333D01*
X146935001Y-107490952D01*
X146982620Y-107586190D01*
X146982620Y-107871905D01*
X146935001Y-107967143D01*
X146887382Y-108014762D01*
X146792144Y-108062381D01*
X146649286Y-108062381D01*
X147411191Y-108062381D02*
X147411191Y-107395714D01*
X147411191Y-107586190D02*
X147458810Y-107490952D01*
X147506429Y-107443333D01*
X147601667Y-107395714D01*
X147696906Y-107395714D01*
D12*
X151523095Y-107452857D02*
X153046905Y-107452857D01*
X161523095Y-107702857D02*
X163046905Y-107702857D01*
X162285000Y-108464762D02*
X162285000Y-106940952D01*
D13*
X175224000Y-103568000D02*
G75*
G03X175224000Y-103568000I-18000000J0D01*
G01*
%LPC*%
D14*
X167224000Y-93568000D03*
X147224000Y-93568000D03*
X147224000Y-113568000D03*
X167224000Y-113568000D03*
D15*
X162224000Y-103568000D03*
X152224000Y-103568000D03*
D16*
X157224000Y-95568000D03*
X157224000Y-98568000D03*
D14*
X166224000Y-98568000D03*
X148224000Y-98568000D03*
X157224000Y-113568000D03*
D17*
X157224000Y-103568000D03*
M02*
