G04 #@! TF.FileFunction,Legend,Bot*
%FSLAX46Y46*%
G04 Gerber Fmt 4.6, Leading zero omitted, Abs format (unit mm)*
G04 Created by KiCad (PCBNEW 4.0.4-stable) date Thursday, 20 '20e' October '20e' 2016, 21:15:53*
%MOMM*%
%LPD*%
G01*
G04 APERTURE LIST*
%ADD10C,0.100000*%
%ADD11C,0.300000*%
%ADD12C,0.800000*%
%ADD13C,0.010000*%
%ADD14C,6.400000*%
%ADD15C,4.400000*%
%ADD16C,4.900000*%
%ADD17C,3.400000*%
G04 APERTURE END LIST*
D10*
D11*
X163096905Y-107702857D02*
X161573095Y-107702857D01*
X162335000Y-108464762D02*
X162335000Y-106940952D01*
X144546905Y-96702857D02*
X143023095Y-96702857D01*
X152996905Y-107502857D02*
X151473095Y-107502857D01*
X158046905Y-91202857D02*
X156523095Y-91202857D01*
X157285000Y-91964762D02*
X157285000Y-90440952D01*
D12*
X175224000Y-103568000D02*
G75*
G03X175224000Y-103568000I-18000000J0D01*
G01*
%LPC*%
D13*
G36*
X170960393Y-101573977D02*
X170959746Y-101574310D01*
X170892496Y-101630769D01*
X170811288Y-101737526D01*
X170716879Y-101893469D01*
X170628570Y-102060388D01*
X170578876Y-102158661D01*
X170538994Y-102237006D01*
X170514484Y-102284524D01*
X170509558Y-102293592D01*
X170483903Y-102289920D01*
X170426023Y-102271357D01*
X170400601Y-102261984D01*
X170194641Y-102198782D01*
X169951456Y-102149409D01*
X169686024Y-102116107D01*
X169413323Y-102101113D01*
X169321105Y-102100588D01*
X168947190Y-102122567D01*
X168589608Y-102184507D01*
X168236205Y-102289332D01*
X167874831Y-102439968D01*
X167837700Y-102457706D01*
X167533028Y-102619294D01*
X167266331Y-102793373D01*
X167022154Y-102990337D01*
X166956790Y-103049997D01*
X166875326Y-103121369D01*
X166807327Y-103171983D01*
X166762790Y-103194746D01*
X166753448Y-103194273D01*
X166714575Y-103179500D01*
X166708278Y-103177639D01*
X166496800Y-103177639D01*
X166487265Y-103233129D01*
X166452802Y-103319290D01*
X166393072Y-103442796D01*
X166359919Y-103508296D01*
X166192733Y-103836526D01*
X166284389Y-104103894D01*
X166321703Y-104209642D01*
X166352084Y-104289875D01*
X166372002Y-104335647D01*
X166378049Y-104341203D01*
X166370923Y-104299019D01*
X166350647Y-104228958D01*
X166340813Y-104199927D01*
X166318061Y-104123616D01*
X166318011Y-104068091D01*
X166341342Y-104005410D01*
X166345765Y-103996039D01*
X166379268Y-103936520D01*
X166407037Y-103904917D01*
X166411742Y-103903368D01*
X166421335Y-103928112D01*
X166428773Y-103994390D01*
X166432975Y-104090274D01*
X166433526Y-104144000D01*
X166430886Y-104252450D01*
X166423756Y-104334702D01*
X166413321Y-104379592D01*
X166407976Y-104384631D01*
X166400455Y-104406803D01*
X166411141Y-104462905D01*
X166421344Y-104494940D01*
X166453347Y-104594905D01*
X166459898Y-104652459D01*
X166437326Y-104674023D01*
X166381965Y-104666022D01*
X166332713Y-104650131D01*
X166293965Y-104635430D01*
X166265040Y-104616799D01*
X166240679Y-104584958D01*
X166215625Y-104530626D01*
X166184620Y-104444524D01*
X166142407Y-104317371D01*
X166139935Y-104309851D01*
X166105518Y-104206891D01*
X166079012Y-104145266D01*
X166053986Y-104126143D01*
X166024008Y-104150693D01*
X165982647Y-104220085D01*
X165923470Y-104335487D01*
X165915826Y-104350587D01*
X165874146Y-104428789D01*
X165841118Y-104469841D01*
X165802135Y-104484747D01*
X165742594Y-104484509D01*
X165738372Y-104484272D01*
X165671447Y-104479044D01*
X165634254Y-104473372D01*
X165631560Y-104471798D01*
X165642756Y-104446910D01*
X165673592Y-104382981D01*
X165719780Y-104288789D01*
X165777032Y-104173114D01*
X165798010Y-104130945D01*
X165964599Y-103796505D01*
X165902469Y-103609263D01*
X165845316Y-103609263D01*
X165835533Y-103631270D01*
X165827491Y-103627087D01*
X165824292Y-103595357D01*
X165827491Y-103591438D01*
X165843386Y-103595108D01*
X165845316Y-103609263D01*
X165902469Y-103609263D01*
X165827110Y-103382159D01*
X165788198Y-103261684D01*
X165684895Y-103261684D01*
X165675112Y-103283691D01*
X165667070Y-103279508D01*
X165663870Y-103247778D01*
X165667070Y-103243859D01*
X165682965Y-103247530D01*
X165684895Y-103261684D01*
X165788198Y-103261684D01*
X165782105Y-103242823D01*
X165745461Y-103122143D01*
X165719618Y-103028770D01*
X165707014Y-102971354D01*
X165707311Y-102957227D01*
X165742033Y-102957842D01*
X165804776Y-102972983D01*
X165818003Y-102977162D01*
X165860769Y-102994183D01*
X165893599Y-103019214D01*
X165922929Y-103062315D01*
X165955194Y-103133545D01*
X165996830Y-103242965D01*
X166008577Y-103275052D01*
X166106148Y-103542421D01*
X166208858Y-103335210D01*
X166261726Y-103232874D01*
X166301097Y-103170475D01*
X166334555Y-103138807D01*
X166369685Y-103128663D01*
X166379232Y-103128409D01*
X166442444Y-103131956D01*
X166481747Y-103146140D01*
X166496800Y-103177639D01*
X166708278Y-103177639D01*
X166638702Y-103157080D01*
X166540927Y-103131419D01*
X166522094Y-103126777D01*
X166420107Y-103102606D01*
X166355237Y-103091542D01*
X166312671Y-103093932D01*
X166277596Y-103110127D01*
X166244909Y-103133307D01*
X166181931Y-103195799D01*
X166137434Y-103266482D01*
X166107416Y-103317425D01*
X166078578Y-103334899D01*
X166077327Y-103334565D01*
X166055188Y-103306159D01*
X166024418Y-103240861D01*
X165992663Y-103155617D01*
X165956973Y-103058810D01*
X165920535Y-102999636D01*
X165868792Y-102964068D01*
X165787188Y-102938080D01*
X165759889Y-102931309D01*
X165707553Y-102927160D01*
X165664123Y-102951661D01*
X165618162Y-103005164D01*
X165548494Y-103096504D01*
X165680312Y-103493252D01*
X165812131Y-103890000D01*
X165681671Y-104160978D01*
X165605030Y-104334254D01*
X165561594Y-104467449D01*
X165551095Y-104562184D01*
X165573266Y-104620083D01*
X165603232Y-104638170D01*
X165663515Y-104633571D01*
X165740129Y-104597399D01*
X165816996Y-104540613D01*
X165878037Y-104474173D01*
X165899592Y-104436168D01*
X165927553Y-104381916D01*
X165950764Y-104357955D01*
X165951559Y-104357894D01*
X165968926Y-104381320D01*
X165995549Y-104442685D01*
X166025175Y-104527237D01*
X166055371Y-104635169D01*
X166065983Y-104721921D01*
X166059384Y-104815073D01*
X166053370Y-104854764D01*
X166044351Y-104944284D01*
X166039044Y-105070272D01*
X166037862Y-105215827D01*
X166041076Y-105360526D01*
X166068387Y-105684309D01*
X166126289Y-105986183D01*
X166218347Y-106275757D01*
X166348129Y-106562640D01*
X166519201Y-106856442D01*
X166687309Y-107101717D01*
X166687492Y-107124182D01*
X166664185Y-107164506D01*
X166613979Y-107226708D01*
X166533467Y-107314810D01*
X166419240Y-107432830D01*
X166332009Y-107520771D01*
X166202976Y-107650318D01*
X166106991Y-107748340D01*
X166039298Y-107821128D01*
X165995138Y-107874976D01*
X165969754Y-107916173D01*
X165958388Y-107951013D01*
X165956283Y-107985786D01*
X165957911Y-108015491D01*
X165966040Y-108084415D01*
X165977272Y-108124020D01*
X165981599Y-108127750D01*
X166004481Y-108148628D01*
X166028787Y-108187947D01*
X166047970Y-108218820D01*
X166049644Y-108208000D01*
X166058824Y-108161173D01*
X166094344Y-108107382D01*
X166129616Y-108057769D01*
X166125656Y-108029754D01*
X166103772Y-108029754D01*
X166102679Y-108059519D01*
X166075767Y-108098922D01*
X166040052Y-108125594D01*
X166029200Y-108127789D01*
X166006000Y-108107831D01*
X166005737Y-108104326D01*
X166023263Y-108069447D01*
X166060928Y-108037736D01*
X166096362Y-108026209D01*
X166103772Y-108029754D01*
X166125656Y-108029754D01*
X166124732Y-108023225D01*
X166117678Y-108015140D01*
X166081285Y-107997326D01*
X166053863Y-108015494D01*
X166008767Y-108045792D01*
X165985162Y-108027567D01*
X165983908Y-107974052D01*
X165997036Y-107924358D01*
X166032249Y-107900975D01*
X166092365Y-107892244D01*
X166191906Y-107904055D01*
X166313795Y-107948604D01*
X166444809Y-108018698D01*
X166571727Y-108107145D01*
X166681328Y-108206754D01*
X166692129Y-108218494D01*
X166785783Y-108335883D01*
X166854187Y-108448896D01*
X166895145Y-108550280D01*
X166906463Y-108632782D01*
X166885945Y-108689148D01*
X166841263Y-108711175D01*
X166790897Y-108706729D01*
X166786161Y-108676552D01*
X166812744Y-108641582D01*
X166834254Y-108609658D01*
X166832797Y-108600289D01*
X166810325Y-108612656D01*
X166767112Y-108655109D01*
X166745051Y-108680054D01*
X166702701Y-108733488D01*
X166681682Y-108766991D01*
X166685899Y-108772517D01*
X166710752Y-108750704D01*
X166748132Y-108739318D01*
X166812783Y-108737555D01*
X166815962Y-108737756D01*
X166848474Y-108736753D01*
X166882590Y-108726009D01*
X166924250Y-108700723D01*
X166979389Y-108656098D01*
X167053947Y-108587333D01*
X167153861Y-108489631D01*
X167282912Y-108360364D01*
X167398416Y-108242876D01*
X167499813Y-108137511D01*
X167581433Y-108050348D01*
X167637601Y-107987466D01*
X167662646Y-107954944D01*
X167663421Y-107952593D01*
X167645618Y-107962604D01*
X167596109Y-108005256D01*
X167520747Y-108075126D01*
X167425381Y-108166788D01*
X167316764Y-108273922D01*
X167206363Y-108382875D01*
X167109255Y-108476421D01*
X167031551Y-108548861D01*
X166979361Y-108594496D01*
X166958881Y-108607746D01*
X166972767Y-108585548D01*
X167018212Y-108531322D01*
X167089548Y-108451429D01*
X167181110Y-108352229D01*
X167275802Y-108252035D01*
X167395576Y-108126274D01*
X167485653Y-108034697D01*
X167554509Y-107974045D01*
X167610620Y-107941054D01*
X167662461Y-107932464D01*
X167718508Y-107945014D01*
X167787238Y-107975442D01*
X167877127Y-108020486D01*
X167877316Y-108020580D01*
X168035120Y-108089557D01*
X168227247Y-108158969D01*
X168434960Y-108222613D01*
X168639523Y-108274290D01*
X168652684Y-108277179D01*
X168773491Y-108295920D01*
X168932463Y-108309849D01*
X169115934Y-108318819D01*
X169310237Y-108322684D01*
X169501706Y-108321296D01*
X169676675Y-108314510D01*
X169821475Y-108302179D01*
X169895948Y-108290507D01*
X170143978Y-108230734D01*
X170393547Y-108155315D01*
X170628746Y-108069759D01*
X170833664Y-107979572D01*
X170911948Y-107938839D01*
X171068165Y-107850115D01*
X171196111Y-107770989D01*
X171312210Y-107689951D01*
X171432886Y-107595491D01*
X171574565Y-107476100D01*
X171584478Y-107467560D01*
X171662767Y-107401737D01*
X171725479Y-107352142D01*
X171761911Y-107327140D01*
X171766034Y-107325684D01*
X171796885Y-107340128D01*
X171850431Y-107375586D01*
X171859884Y-107382482D01*
X171936707Y-107439280D01*
X172099432Y-107325134D01*
X172188700Y-107255979D01*
X172245376Y-107198347D01*
X172265538Y-107157598D01*
X172245264Y-107139088D01*
X172236052Y-107138526D01*
X172205112Y-107124145D01*
X172139809Y-107084933D01*
X172049542Y-107026782D01*
X171943713Y-106955588D01*
X171937681Y-106951448D01*
X171665417Y-106764370D01*
X171582787Y-106826381D01*
X171501287Y-106886996D01*
X171417768Y-106948349D01*
X171414709Y-106950577D01*
X171329259Y-107012761D01*
X171520424Y-107147011D01*
X171711590Y-107281261D01*
X171552400Y-107426795D01*
X171233462Y-107683034D01*
X170888338Y-107895049D01*
X170521937Y-108062115D01*
X170139169Y-108183510D01*
X169744945Y-108258513D01*
X169344172Y-108286399D01*
X168941761Y-108266447D01*
X168542622Y-108197934D01*
X168151664Y-108080137D01*
X167883119Y-107966843D01*
X167528578Y-107771847D01*
X167492947Y-107746333D01*
X167396053Y-107746333D01*
X167378148Y-107771254D01*
X167328911Y-107826528D01*
X167255058Y-107904934D01*
X167163306Y-107999251D01*
X167122478Y-108040438D01*
X166993840Y-108166402D01*
X166897596Y-108253253D01*
X166831535Y-108302645D01*
X166793442Y-108316230D01*
X166781106Y-108295660D01*
X166781105Y-108295351D01*
X166799010Y-108270429D01*
X166848247Y-108215156D01*
X166922100Y-108136750D01*
X167013852Y-108042433D01*
X167054680Y-108001246D01*
X167183319Y-107875282D01*
X167279562Y-107788430D01*
X167345624Y-107739038D01*
X167383716Y-107725453D01*
X167396052Y-107746023D01*
X167396053Y-107746333D01*
X167492947Y-107746333D01*
X167418906Y-107693316D01*
X167289280Y-107693316D01*
X167271366Y-107718921D01*
X167223116Y-107772868D01*
X167152997Y-107846705D01*
X167069475Y-107931977D01*
X166981015Y-108020231D01*
X166896084Y-108103015D01*
X166823147Y-108171875D01*
X166770672Y-108218357D01*
X166747684Y-108234094D01*
X166728973Y-108213581D01*
X166727632Y-108201818D01*
X166745919Y-108169998D01*
X166794912Y-108110977D01*
X166865809Y-108033574D01*
X166949809Y-107946606D01*
X167038109Y-107858895D01*
X167121908Y-107779258D01*
X167192403Y-107716515D01*
X167240793Y-107679485D01*
X167255156Y-107673263D01*
X167286759Y-107685846D01*
X167289280Y-107693316D01*
X167418906Y-107693316D01*
X167323068Y-107624691D01*
X167208895Y-107624691D01*
X167190727Y-107654102D01*
X167142026Y-107711136D01*
X167071494Y-107787087D01*
X166987831Y-107873247D01*
X166899742Y-107960912D01*
X166815927Y-108041375D01*
X166745090Y-108105929D01*
X166695931Y-108145869D01*
X166679307Y-108154526D01*
X166654704Y-108136944D01*
X166610814Y-108093913D01*
X166604254Y-108086906D01*
X166553967Y-108046648D01*
X166472639Y-107995500D01*
X166374834Y-107941080D01*
X166275119Y-107891007D01*
X166188058Y-107852899D01*
X166128216Y-107834375D01*
X166120123Y-107833684D01*
X166088498Y-107819462D01*
X166085948Y-107810817D01*
X166104304Y-107785567D01*
X166155120Y-107730158D01*
X166232012Y-107651179D01*
X166328599Y-107555226D01*
X166408265Y-107477875D01*
X166730582Y-107167800D01*
X166916265Y-107348400D01*
X166995126Y-107423624D01*
X167057529Y-107480337D01*
X167095296Y-107511270D01*
X167102761Y-107514236D01*
X167114307Y-107521482D01*
X167132480Y-107549218D01*
X167141236Y-107578475D01*
X167130009Y-107614150D01*
X167093203Y-107665256D01*
X167025219Y-107740804D01*
X166991304Y-107776482D01*
X166821222Y-107954000D01*
X167015058Y-107767559D01*
X167106284Y-107683706D01*
X167170623Y-107632964D01*
X167204498Y-107617969D01*
X167208895Y-107624691D01*
X167323068Y-107624691D01*
X167206340Y-107541109D01*
X166919112Y-107278547D01*
X166669602Y-106988080D01*
X166460517Y-106673629D01*
X166294564Y-106339111D01*
X166174449Y-105988447D01*
X166102879Y-105625556D01*
X166082967Y-105360526D01*
X166079609Y-105171444D01*
X166080820Y-105030016D01*
X166087924Y-104930521D01*
X166102245Y-104867237D01*
X166125106Y-104834445D01*
X166157830Y-104826421D01*
X166201743Y-104837446D01*
X166203813Y-104838226D01*
X166273236Y-104851840D01*
X166333322Y-104826745D01*
X166334544Y-104825894D01*
X166395774Y-104790788D01*
X166426707Y-104795219D01*
X166433526Y-104827150D01*
X166443319Y-104845958D01*
X166477879Y-104832214D01*
X166527160Y-104797198D01*
X166620793Y-104725780D01*
X166603094Y-103953627D01*
X166598195Y-103709967D01*
X166416908Y-103709967D01*
X166389393Y-103801359D01*
X166365070Y-103853080D01*
X166326354Y-103925014D01*
X166296502Y-103972411D01*
X166285362Y-103983579D01*
X166267116Y-103961669D01*
X166245630Y-103914795D01*
X166235471Y-103864513D01*
X166245573Y-103804200D01*
X166279215Y-103718173D01*
X166293082Y-103687810D01*
X166332991Y-103607010D01*
X166365621Y-103549898D01*
X166383239Y-103529331D01*
X166397807Y-103552569D01*
X166412771Y-103610342D01*
X166415496Y-103625817D01*
X166416908Y-103709967D01*
X166598195Y-103709967D01*
X166598169Y-103708712D01*
X166595850Y-103514248D01*
X166596184Y-103367275D01*
X166599215Y-103264832D01*
X166604985Y-103203958D01*
X166613542Y-103181693D01*
X166614668Y-103181473D01*
X166660289Y-103190372D01*
X166710680Y-103206848D01*
X166735474Y-103218634D01*
X166755480Y-103236866D01*
X166771349Y-103267110D01*
X166783735Y-103314934D01*
X166793289Y-103385905D01*
X166800665Y-103485590D01*
X166806513Y-103619557D01*
X166811488Y-103793372D01*
X166816240Y-104012604D01*
X166818462Y-104126605D01*
X166831189Y-104790999D01*
X166737843Y-104773487D01*
X166671448Y-104768099D01*
X166616545Y-104787300D01*
X166551205Y-104837887D01*
X166457913Y-104919798D01*
X166532614Y-104947113D01*
X166597131Y-104970535D01*
X166638225Y-104985200D01*
X166677438Y-104975627D01*
X166715895Y-104944302D01*
X166768023Y-104899470D01*
X166798887Y-104903086D01*
X166807842Y-104947187D01*
X166810858Y-104979932D01*
X166827422Y-104979944D01*
X166868807Y-104945167D01*
X166881095Y-104933819D01*
X166934398Y-104889411D01*
X166972270Y-104866673D01*
X166976446Y-104865894D01*
X166981855Y-104840263D01*
X166986385Y-104767781D01*
X166989899Y-104655065D01*
X166992262Y-104508734D01*
X166993335Y-104335405D01*
X166992984Y-104141696D01*
X166992605Y-104083842D01*
X166991033Y-103858913D01*
X166990343Y-103681709D01*
X166990864Y-103546484D01*
X166992924Y-103447492D01*
X166996850Y-103378988D01*
X167002970Y-103335226D01*
X167011613Y-103310460D01*
X167023105Y-103298943D01*
X167037622Y-103294952D01*
X167080659Y-103292783D01*
X167112158Y-103304202D01*
X167134050Y-103336198D01*
X167148262Y-103395757D01*
X167156725Y-103489865D01*
X167161367Y-103625510D01*
X167163397Y-103750495D01*
X167166159Y-103891264D01*
X167170288Y-104009381D01*
X167175338Y-104096315D01*
X167180861Y-104143532D01*
X167184285Y-104149171D01*
X167200126Y-104117354D01*
X167229479Y-104047804D01*
X167267204Y-103952905D01*
X167286253Y-103903368D01*
X167350795Y-103733912D01*
X167399637Y-103608068D01*
X167436312Y-103519553D01*
X167464356Y-103462086D01*
X167487303Y-103429385D01*
X167508689Y-103415167D01*
X167532048Y-103413150D01*
X167559982Y-103416917D01*
X167631070Y-103444132D01*
X167677469Y-103484662D01*
X167706307Y-103519024D01*
X167716496Y-103508431D01*
X167716895Y-103498170D01*
X167695450Y-103441971D01*
X167628357Y-103401378D01*
X167560292Y-103382333D01*
X167506219Y-103375384D01*
X167461490Y-103386999D01*
X167409903Y-103424688D01*
X167353081Y-103478392D01*
X167290930Y-103544656D01*
X167248355Y-103600123D01*
X167235632Y-103628198D01*
X167219209Y-103660048D01*
X167208895Y-103662737D01*
X167195095Y-103638063D01*
X167185588Y-103572178D01*
X167182158Y-103480065D01*
X167182158Y-103297393D01*
X167084336Y-103267370D01*
X167011534Y-103251245D01*
X166957948Y-103261915D01*
X166913104Y-103289621D01*
X166850009Y-103330634D01*
X166818096Y-103338110D01*
X166808049Y-103313426D01*
X166807842Y-103305188D01*
X166827655Y-103267267D01*
X166881653Y-103204201D01*
X166961679Y-103123500D01*
X167059572Y-103032675D01*
X167167175Y-102939237D01*
X167276328Y-102850695D01*
X167378872Y-102774559D01*
X167400266Y-102759862D01*
X167774258Y-102537365D01*
X168161222Y-102364250D01*
X168557480Y-102240591D01*
X168959352Y-102166465D01*
X169363158Y-102141946D01*
X169765221Y-102167110D01*
X170161859Y-102242032D01*
X170549395Y-102366788D01*
X170924148Y-102541453D01*
X171160802Y-102682869D01*
X171251193Y-102745652D01*
X171353906Y-102822840D01*
X171460323Y-102907204D01*
X171561826Y-102991515D01*
X171649798Y-103068545D01*
X171715621Y-103131066D01*
X171750679Y-103171848D01*
X171754158Y-103180583D01*
X171731259Y-103193238D01*
X171675320Y-103191950D01*
X171667255Y-103190746D01*
X171577644Y-103194413D01*
X171509169Y-103232636D01*
X171454312Y-103283598D01*
X171410231Y-103345509D01*
X171374800Y-103425739D01*
X171345896Y-103531657D01*
X171321395Y-103670635D01*
X171299171Y-103850044D01*
X171282342Y-104019651D01*
X171265569Y-104196341D01*
X171251724Y-104327062D01*
X171239392Y-104419142D01*
X171227161Y-104479909D01*
X171213617Y-104516691D01*
X171197344Y-104536816D01*
X171180768Y-104546114D01*
X171120675Y-104576835D01*
X171049759Y-104620693D01*
X171045632Y-104623498D01*
X170987511Y-104659858D01*
X170948635Y-104678077D01*
X170945369Y-104678560D01*
X170934119Y-104654542D01*
X170926725Y-104592660D01*
X170925053Y-104538368D01*
X170924790Y-104398000D01*
X170792978Y-104354334D01*
X170713907Y-104330027D01*
X170663109Y-104325104D01*
X170618294Y-104341547D01*
X170567397Y-104374387D01*
X170506283Y-104413753D01*
X170465351Y-104436148D01*
X170458840Y-104438105D01*
X170449357Y-104414449D01*
X170444307Y-104355750D01*
X170444053Y-104337100D01*
X170427473Y-104241158D01*
X170394380Y-104193563D01*
X170362609Y-104146873D01*
X170339930Y-104064325D01*
X170335076Y-104027837D01*
X170277877Y-104027837D01*
X170274904Y-104104902D01*
X170261865Y-104142069D01*
X170256428Y-104144000D01*
X170217489Y-104136219D01*
X170140700Y-104115305D01*
X170038983Y-104084897D01*
X169973286Y-104064227D01*
X169862237Y-104031485D01*
X169767450Y-104008727D01*
X169702197Y-103998881D01*
X169683099Y-104000245D01*
X169658647Y-104002536D01*
X169645751Y-103981997D01*
X169644648Y-103932226D01*
X169655575Y-103846821D01*
X169678768Y-103719376D01*
X169696817Y-103629149D01*
X169734405Y-103461417D01*
X169771143Y-103340111D01*
X169811121Y-103258412D01*
X169858429Y-103209501D01*
X169917158Y-103186560D01*
X169964813Y-103182324D01*
X170046366Y-103205446D01*
X170115189Y-103277791D01*
X170172148Y-103400559D01*
X170205033Y-103515500D01*
X170234360Y-103654707D01*
X170256808Y-103792995D01*
X170271579Y-103920620D01*
X170277877Y-104027837D01*
X170335076Y-104027837D01*
X170325411Y-103955203D01*
X170304682Y-103790261D01*
X170276027Y-103624963D01*
X170242191Y-103471013D01*
X170205921Y-103340115D01*
X170169962Y-103243973D01*
X170150267Y-103208659D01*
X170070136Y-103136801D01*
X169972042Y-103111049D01*
X169868995Y-103134644D01*
X169863721Y-103137294D01*
X169786487Y-103204011D01*
X169720881Y-103319016D01*
X169666277Y-103483755D01*
X169623307Y-103691976D01*
X169603729Y-103807507D01*
X169586678Y-103901890D01*
X169574295Y-103963632D01*
X169569344Y-103981627D01*
X169548956Y-103973525D01*
X169528040Y-103951297D01*
X169489642Y-103927515D01*
X169412937Y-103895912D01*
X169311709Y-103860750D01*
X169199741Y-103826289D01*
X169090816Y-103796793D01*
X168998719Y-103776522D01*
X168940633Y-103769684D01*
X168890793Y-103786278D01*
X168818891Y-103829419D01*
X168753114Y-103879533D01*
X168685164Y-103934579D01*
X168635432Y-103970634D01*
X168615532Y-103979796D01*
X168610095Y-103950954D01*
X168600895Y-103879974D01*
X168589278Y-103777947D01*
X168578123Y-103671295D01*
X168548916Y-103455682D01*
X168508745Y-103289407D01*
X168455855Y-103169139D01*
X168388492Y-103091540D01*
X168304902Y-103053277D01*
X168250144Y-103047789D01*
X168152205Y-103072623D01*
X168062377Y-103139525D01*
X167989698Y-103237099D01*
X167943207Y-103353950D01*
X167930939Y-103450281D01*
X167911870Y-103493780D01*
X167865244Y-103552442D01*
X167806605Y-103610440D01*
X167751495Y-103651946D01*
X167722306Y-103662737D01*
X167711956Y-103676484D01*
X167703874Y-103720633D01*
X167697860Y-103799544D01*
X167693713Y-103917576D01*
X167691229Y-104079090D01*
X167690209Y-104288446D01*
X167690158Y-104358404D01*
X167690158Y-105054071D01*
X167616632Y-105036765D01*
X167557788Y-105023046D01*
X167527535Y-105016203D01*
X167499880Y-105029864D01*
X167445149Y-105068489D01*
X167398100Y-105105307D01*
X167284237Y-105197667D01*
X167384681Y-105232441D01*
X167454987Y-105252356D01*
X167498462Y-105248621D01*
X167529589Y-105226976D01*
X167576615Y-105191885D01*
X167602811Y-105200541D01*
X167618981Y-105245130D01*
X167629834Y-105273863D01*
X167648286Y-105278641D01*
X167684059Y-105255416D01*
X167746875Y-105200138D01*
X167763438Y-105184972D01*
X167892625Y-105066421D01*
X167881310Y-104333475D01*
X167877981Y-104104547D01*
X167876549Y-103923631D01*
X167878053Y-103785274D01*
X167883532Y-103684022D01*
X167894024Y-103614420D01*
X167910566Y-103571015D01*
X167934197Y-103548351D01*
X167965956Y-103540977D01*
X168006879Y-103543436D01*
X168031084Y-103546647D01*
X168080580Y-103552315D01*
X168080371Y-103545079D01*
X168044421Y-103525479D01*
X167994888Y-103473942D01*
X167988745Y-103398351D01*
X168026020Y-103305942D01*
X168043440Y-103279180D01*
X168113026Y-103192114D01*
X168175858Y-103145242D01*
X168245209Y-103129173D01*
X168255939Y-103128850D01*
X168332849Y-103153107D01*
X168403383Y-103221546D01*
X168460150Y-103324885D01*
X168489880Y-103422640D01*
X168512736Y-103533553D01*
X168518730Y-103599619D01*
X168501416Y-103628444D01*
X168454350Y-103627628D01*
X168371087Y-103604778D01*
X168342776Y-103596184D01*
X168259193Y-103573425D01*
X168192772Y-103559889D01*
X168171421Y-103558122D01*
X168174118Y-103565598D01*
X168218847Y-103583631D01*
X168296121Y-103608449D01*
X168303473Y-103610629D01*
X168398227Y-103642688D01*
X168475673Y-103676285D01*
X168516076Y-103701827D01*
X168528732Y-103722444D01*
X168538919Y-103760178D01*
X168547042Y-103820934D01*
X168553509Y-103910617D01*
X168558728Y-104035133D01*
X168563104Y-104200386D01*
X168567045Y-104412281D01*
X168567651Y-104450121D01*
X168570013Y-104642813D01*
X168570929Y-104820731D01*
X168570461Y-104976004D01*
X168568667Y-105100761D01*
X168565607Y-105187131D01*
X168561749Y-105225827D01*
X168534163Y-105278159D01*
X168477212Y-105293631D01*
X168471792Y-105293684D01*
X168414716Y-105285532D01*
X168326306Y-105264203D01*
X168221696Y-105234387D01*
X168116019Y-105200774D01*
X168024409Y-105168056D01*
X167961998Y-105140921D01*
X167946398Y-105130846D01*
X167917363Y-105136412D01*
X167864216Y-105168293D01*
X167801169Y-105215510D01*
X167742434Y-105267086D01*
X167702221Y-105312042D01*
X167694669Y-105325308D01*
X167709959Y-105348896D01*
X167757444Y-105374063D01*
X167829076Y-105401298D01*
X167811766Y-105715122D01*
X167789491Y-106037651D01*
X167760515Y-106311075D01*
X167723955Y-106539446D01*
X167678926Y-106726816D01*
X167624544Y-106877237D01*
X167559925Y-106994761D01*
X167521737Y-107044504D01*
X167453619Y-107112091D01*
X167392406Y-107142583D01*
X167346993Y-107147438D01*
X167252489Y-107122212D01*
X167164836Y-107052470D01*
X167093270Y-106947115D01*
X167062879Y-106873524D01*
X167023952Y-106728026D01*
X166987608Y-106539945D01*
X166955087Y-106320158D01*
X166927631Y-106079540D01*
X166906479Y-105828965D01*
X166892873Y-105579310D01*
X166888053Y-105341448D01*
X166888053Y-105075540D01*
X166964378Y-105092304D01*
X167018167Y-105096178D01*
X167064610Y-105073926D01*
X167121889Y-105016593D01*
X167124799Y-105013288D01*
X167174479Y-104951687D01*
X167204667Y-104904579D01*
X167208895Y-104891701D01*
X167229269Y-104866638D01*
X167235632Y-104865894D01*
X167250054Y-104890114D01*
X167259761Y-104952786D01*
X167262369Y-105018192D01*
X167262369Y-105170489D01*
X167355948Y-105079789D01*
X167449526Y-104989089D01*
X167448606Y-104626702D01*
X167447686Y-104264316D01*
X167371866Y-104451473D01*
X167306951Y-104610397D01*
X167257543Y-104725990D01*
X167219569Y-104804679D01*
X167188953Y-104852891D01*
X167161623Y-104877055D01*
X167133503Y-104883599D01*
X167100865Y-104879025D01*
X167047743Y-104875215D01*
X166997216Y-104895199D01*
X166932481Y-104946548D01*
X166914364Y-104963085D01*
X166805162Y-105064122D01*
X166822029Y-105452956D01*
X166844955Y-105845871D01*
X166877463Y-106190687D01*
X166919386Y-106486719D01*
X166970556Y-106733281D01*
X167030805Y-106929688D01*
X167099965Y-107075255D01*
X167177868Y-107169297D01*
X167252423Y-107208616D01*
X167375291Y-107213492D01*
X167491242Y-107167603D01*
X167593747Y-107073658D01*
X167601421Y-107063820D01*
X167676359Y-106939404D01*
X167739286Y-106777327D01*
X167790980Y-106574213D01*
X167832216Y-106326687D01*
X167863770Y-106031375D01*
X167875757Y-105870880D01*
X167885761Y-105726192D01*
X167895267Y-105601543D01*
X167903504Y-105506118D01*
X167909700Y-105449102D01*
X167912204Y-105437041D01*
X167939583Y-105441103D01*
X168001426Y-105460389D01*
X168059670Y-105481476D01*
X168183266Y-105521850D01*
X168273810Y-105532454D01*
X168343573Y-105511900D01*
X168404821Y-105458801D01*
X168419877Y-105440736D01*
X168486587Y-105368109D01*
X168532149Y-105344545D01*
X168557094Y-105370274D01*
X168561952Y-105445529D01*
X168557144Y-105500699D01*
X168539210Y-105654240D01*
X168660271Y-105547488D01*
X168781332Y-105440737D01*
X168783850Y-105122000D01*
X168786376Y-104978503D01*
X168792162Y-104878348D01*
X168802519Y-104811438D01*
X168818756Y-104767676D01*
X168832397Y-104747684D01*
X168838694Y-104735784D01*
X168812176Y-104756493D01*
X168758526Y-104805310D01*
X168752747Y-104810753D01*
X168685790Y-104868568D01*
X168633237Y-104904067D01*
X168607403Y-104909735D01*
X168615641Y-104883770D01*
X168656617Y-104835559D01*
X168713981Y-104782159D01*
X168777356Y-104722106D01*
X168816823Y-104673046D01*
X168824082Y-104648130D01*
X168818108Y-104612124D01*
X168814107Y-104534841D01*
X168811980Y-104428437D01*
X168811629Y-104305069D01*
X168812955Y-104176891D01*
X168815860Y-104056061D01*
X168820246Y-103954735D01*
X168826014Y-103885069D01*
X168830441Y-103862567D01*
X168863018Y-103824064D01*
X168925809Y-103808757D01*
X169024049Y-103816709D01*
X169162976Y-103847987D01*
X169232994Y-103867592D01*
X169494895Y-103943949D01*
X169501948Y-104822345D01*
X169503691Y-105062991D01*
X169504495Y-105255342D01*
X169504146Y-105404572D01*
X169502426Y-105515854D01*
X169499122Y-105594363D01*
X169494017Y-105645272D01*
X169486896Y-105673755D01*
X169477543Y-105684987D01*
X169466043Y-105684256D01*
X169380279Y-105656641D01*
X169316685Y-105656155D01*
X169255160Y-105687123D01*
X169185964Y-105744549D01*
X169067105Y-105851009D01*
X169167594Y-105893642D01*
X169256797Y-105919140D01*
X169333046Y-105919925D01*
X169335768Y-105919286D01*
X169403454Y-105902298D01*
X169387321Y-106085938D01*
X169355900Y-106386141D01*
X169318715Y-106638290D01*
X169276034Y-106841163D01*
X169228130Y-106993532D01*
X169175274Y-107094173D01*
X169160629Y-107111849D01*
X169074845Y-107173342D01*
X168984551Y-107188122D01*
X168901629Y-107157167D01*
X168840059Y-107085457D01*
X168819065Y-107026138D01*
X168793887Y-106923425D01*
X168766062Y-106787089D01*
X168737122Y-106626903D01*
X168708602Y-106452639D01*
X168682037Y-106274070D01*
X168658962Y-106100969D01*
X168640911Y-105943106D01*
X168629418Y-105810256D01*
X168625948Y-105721918D01*
X168649796Y-105706270D01*
X168715039Y-105708299D01*
X168726211Y-105709942D01*
X168796912Y-105714753D01*
X168848836Y-105694870D01*
X168905002Y-105643416D01*
X168958226Y-105592502D01*
X168997552Y-105563564D01*
X169005266Y-105561052D01*
X169018150Y-105584980D01*
X169025943Y-105645609D01*
X169027000Y-105683158D01*
X169027000Y-105805264D01*
X169267632Y-105608084D01*
X169267632Y-104887092D01*
X169173122Y-104970072D01*
X169112135Y-105019349D01*
X169065952Y-105049082D01*
X169053888Y-105053052D01*
X169041695Y-105077711D01*
X169030786Y-105143379D01*
X169022998Y-105237595D01*
X169021397Y-105273631D01*
X169016587Y-105385035D01*
X169007081Y-105452140D01*
X168985839Y-105484068D01*
X168945822Y-105489942D01*
X168879991Y-105478886D01*
X168865323Y-105475897D01*
X168825580Y-105488397D01*
X168761577Y-105529282D01*
X168689153Y-105588004D01*
X168554345Y-105708534D01*
X168588468Y-106069267D01*
X168614998Y-106308161D01*
X168647582Y-106534067D01*
X168684513Y-106738139D01*
X168724083Y-106911532D01*
X168764587Y-107045399D01*
X168787576Y-107100916D01*
X168836051Y-107181769D01*
X168891945Y-107226502D01*
X168937467Y-107243178D01*
X169033317Y-107257717D01*
X169111306Y-107235417D01*
X169180464Y-107183612D01*
X169242905Y-107099020D01*
X169299326Y-106965095D01*
X169348800Y-106785735D01*
X169390401Y-106564837D01*
X169423205Y-106306298D01*
X169441995Y-106082421D01*
X169453598Y-105956909D01*
X169469058Y-105855399D01*
X169486338Y-105789841D01*
X169494423Y-105774947D01*
X169506659Y-105744312D01*
X169516798Y-105680662D01*
X169525144Y-105579595D01*
X169531999Y-105436707D01*
X169537664Y-105247595D01*
X169540830Y-105098954D01*
X169545695Y-104879945D01*
X169551584Y-104709553D01*
X169559291Y-104582920D01*
X169569610Y-104495188D01*
X169583334Y-104441501D01*
X169601258Y-104417001D01*
X169624175Y-104416831D01*
X169649617Y-104433375D01*
X169682509Y-104444476D01*
X169730812Y-104426570D01*
X169800357Y-104379924D01*
X169866301Y-104326768D01*
X169885502Y-104291798D01*
X169856938Y-104265466D01*
X169785360Y-104239977D01*
X169724326Y-104242480D01*
X169650334Y-104288177D01*
X169643863Y-104293544D01*
X169587526Y-104333474D01*
X169547750Y-104348217D01*
X169540726Y-104345796D01*
X169547552Y-104319283D01*
X169586922Y-104274853D01*
X169608938Y-104255574D01*
X169671147Y-104190672D01*
X169694502Y-104122347D01*
X169695662Y-104096701D01*
X169696244Y-104059894D01*
X169702961Y-104035515D01*
X169722913Y-104024328D01*
X169763202Y-104027094D01*
X169830931Y-104044578D01*
X169933200Y-104077542D01*
X170077112Y-104126749D01*
X170123211Y-104142637D01*
X170403948Y-104239373D01*
X170412169Y-104352107D01*
X170413883Y-104421071D01*
X170408454Y-104460924D01*
X170404626Y-104464842D01*
X170371973Y-104455427D01*
X170310698Y-104432072D01*
X170292876Y-104424737D01*
X170229198Y-104399110D01*
X170190480Y-104385369D01*
X170186788Y-104384631D01*
X170184429Y-104410264D01*
X170182680Y-104482748D01*
X170181575Y-104595468D01*
X170181146Y-104741804D01*
X170181426Y-104915138D01*
X170182449Y-105108853D01*
X170182880Y-105166684D01*
X170189075Y-105948737D01*
X170196714Y-105287691D01*
X170199256Y-105082715D01*
X170201946Y-104924722D01*
X170205376Y-104807223D01*
X170210137Y-104723728D01*
X170216821Y-104667749D01*
X170226018Y-104632797D01*
X170238320Y-104612381D01*
X170254318Y-104600014D01*
X170259650Y-104597051D01*
X170308873Y-104580374D01*
X170331901Y-104584409D01*
X170335978Y-104614271D01*
X170339750Y-104691234D01*
X170343094Y-104808927D01*
X170345883Y-104960979D01*
X170347993Y-105141016D01*
X170349299Y-105342667D01*
X170349663Y-105488944D01*
X170350474Y-106376526D01*
X170475666Y-106256210D01*
X170600857Y-106135894D01*
X170616734Y-105912634D01*
X170629355Y-105796754D01*
X170648460Y-105691273D01*
X170670361Y-105615630D01*
X170675068Y-105605160D01*
X170717525Y-105520947D01*
X170601294Y-105627894D01*
X170537295Y-105688589D01*
X170491269Y-105735619D01*
X170475699Y-105754894D01*
X170451822Y-105778081D01*
X170430152Y-105757258D01*
X170418011Y-105701645D01*
X170417316Y-105681368D01*
X170425447Y-105617530D01*
X170444756Y-105587485D01*
X170467613Y-105599026D01*
X170477153Y-105620248D01*
X170502750Y-105624025D01*
X170561520Y-105592627D01*
X170625384Y-105546721D01*
X170709506Y-105474042D01*
X170746242Y-105421946D01*
X170746376Y-105400631D01*
X170697630Y-105276806D01*
X170664813Y-105175681D01*
X170645626Y-105081607D01*
X170637774Y-104978935D01*
X170638960Y-104852015D01*
X170645396Y-104712659D01*
X170653826Y-104581983D01*
X170663584Y-104472994D01*
X170673584Y-104395508D01*
X170682739Y-104359338D01*
X170684644Y-104357894D01*
X170720371Y-104367392D01*
X170783669Y-104390953D01*
X170801735Y-104398359D01*
X170898579Y-104438823D01*
X170898579Y-104717885D01*
X170907443Y-104952858D01*
X170933938Y-105138907D01*
X170977916Y-105275613D01*
X171039231Y-105362556D01*
X171117735Y-105399318D01*
X171137995Y-105400631D01*
X171158654Y-105398316D01*
X171173327Y-105386172D01*
X171183036Y-105356400D01*
X171188804Y-105301204D01*
X171191651Y-105212786D01*
X171192601Y-105083346D01*
X171192684Y-104983312D01*
X171192684Y-104821333D01*
X171130298Y-104821333D01*
X171126628Y-104837228D01*
X171112474Y-104839158D01*
X171090466Y-104829375D01*
X171094649Y-104821333D01*
X171126380Y-104818133D01*
X171130298Y-104821333D01*
X171192684Y-104821333D01*
X171192684Y-104565992D01*
X171266061Y-104584409D01*
X171303803Y-104593827D01*
X171334359Y-104604724D01*
X171358431Y-104622360D01*
X171376722Y-104651997D01*
X171389935Y-104698895D01*
X171398771Y-104768316D01*
X171403933Y-104865520D01*
X171406124Y-104995770D01*
X171406046Y-105164325D01*
X171404402Y-105376448D01*
X171402208Y-105604146D01*
X171399636Y-105823458D01*
X171396347Y-106025656D01*
X171392512Y-106204558D01*
X171388304Y-106353983D01*
X171383892Y-106467748D01*
X171379449Y-106539671D01*
X171375643Y-106563450D01*
X171342565Y-106564358D01*
X171285218Y-106543217D01*
X171278130Y-106539654D01*
X171227739Y-106517054D01*
X171188969Y-106517036D01*
X171142267Y-106543974D01*
X171095172Y-106580584D01*
X171022126Y-106638090D01*
X170957956Y-106687244D01*
X170938684Y-106701487D01*
X170901807Y-106732533D01*
X170908060Y-106755722D01*
X170935475Y-106777706D01*
X170964420Y-106805740D01*
X170972976Y-106842089D01*
X170963071Y-106904369D01*
X170953622Y-106943488D01*
X170908280Y-107066444D01*
X170847228Y-107148523D01*
X170775950Y-107186537D01*
X170699929Y-107177297D01*
X170634723Y-107128897D01*
X170575014Y-107041017D01*
X170520435Y-106916861D01*
X170477394Y-106773613D01*
X170454029Y-106644369D01*
X170445780Y-106554940D01*
X170451315Y-106510294D01*
X170475697Y-106502455D01*
X170523989Y-106523447D01*
X170529071Y-106526152D01*
X170564856Y-106537487D01*
X170602723Y-106525546D01*
X170655347Y-106483974D01*
X170702140Y-106439357D01*
X170769457Y-106376730D01*
X170811082Y-106349139D01*
X170836683Y-106351511D01*
X170847112Y-106363257D01*
X170862370Y-106416897D01*
X170861439Y-106488218D01*
X170856936Y-106566544D01*
X170863315Y-106627544D01*
X170874197Y-106653583D01*
X170894617Y-106657173D01*
X170934508Y-106634630D01*
X171003802Y-106582269D01*
X171020249Y-106569326D01*
X171162963Y-106456737D01*
X171164455Y-106080806D01*
X171165948Y-105704875D01*
X171025862Y-105834337D01*
X170956677Y-105893847D01*
X170903892Y-105930948D01*
X170877757Y-105938569D01*
X170876875Y-105937097D01*
X170890649Y-105907471D01*
X170933657Y-105856915D01*
X170993456Y-105798007D01*
X171057606Y-105743323D01*
X171095365Y-105716243D01*
X171116944Y-105692181D01*
X171097401Y-105681052D01*
X171048153Y-105685828D01*
X171015176Y-105695379D01*
X170935445Y-105741606D01*
X170882450Y-105819046D01*
X170853313Y-105934205D01*
X170845105Y-106079862D01*
X170842134Y-106176383D01*
X170834265Y-106248045D01*
X170823071Y-106281866D01*
X170820535Y-106282947D01*
X170782349Y-106270657D01*
X170722503Y-106240751D01*
X170716907Y-106237574D01*
X170637848Y-106192200D01*
X170500845Y-106306905D01*
X170422068Y-106381261D01*
X170374342Y-106444231D01*
X170363842Y-106475969D01*
X170372407Y-106554087D01*
X170395025Y-106665286D01*
X170427078Y-106792539D01*
X170463950Y-106918816D01*
X170501026Y-107027090D01*
X170532597Y-107098421D01*
X170610876Y-107202317D01*
X170696240Y-107255809D01*
X170783269Y-107260483D01*
X170866545Y-107217927D01*
X170940648Y-107129727D01*
X171000160Y-106997470D01*
X171012039Y-106958014D01*
X171036600Y-106886620D01*
X171062690Y-106858065D01*
X171091012Y-106859463D01*
X171147436Y-106856464D01*
X171198353Y-106832765D01*
X171260304Y-106797030D01*
X171291336Y-106803101D01*
X171297401Y-106854058D01*
X171294776Y-106882651D01*
X171290165Y-106929551D01*
X171295005Y-106953044D01*
X171317008Y-106951196D01*
X171363885Y-106922076D01*
X171443348Y-106863751D01*
X171480105Y-106836215D01*
X171556891Y-106775536D01*
X171599174Y-106729452D01*
X171617011Y-106682997D01*
X171620474Y-106627314D01*
X171628048Y-106555928D01*
X171648440Y-106524216D01*
X171652558Y-106523579D01*
X171671113Y-106515596D01*
X171652734Y-106491671D01*
X171621811Y-106478949D01*
X171578856Y-106502130D01*
X171545661Y-106531776D01*
X171491300Y-106578150D01*
X171450923Y-106602690D01*
X171445221Y-106603852D01*
X171433963Y-106579051D01*
X171427894Y-106511834D01*
X171427855Y-106413084D01*
X171428668Y-106389957D01*
X171434336Y-106290615D01*
X171441690Y-106215799D01*
X171449381Y-106178157D01*
X171451464Y-106176000D01*
X171480785Y-106188053D01*
X171540947Y-106219000D01*
X171589835Y-106245869D01*
X171714129Y-106315738D01*
X171854743Y-106228328D01*
X171926778Y-106181940D01*
X171974957Y-106147798D01*
X171988389Y-106134275D01*
X171963185Y-106119036D01*
X171904027Y-106085632D01*
X171827348Y-106043287D01*
X171673275Y-105958942D01*
X171586717Y-106019393D01*
X171526236Y-106065045D01*
X171485932Y-106101638D01*
X171481559Y-106107095D01*
X171451141Y-106119006D01*
X171441482Y-106112868D01*
X171448139Y-106085508D01*
X171487624Y-106037040D01*
X171534021Y-105993326D01*
X171602133Y-105928932D01*
X171636368Y-105875805D01*
X171647299Y-105815488D01*
X171647625Y-105795000D01*
X171650711Y-105730512D01*
X171658882Y-105696368D01*
X171661428Y-105694737D01*
X171690116Y-105706715D01*
X171752702Y-105738331D01*
X171836421Y-105783103D01*
X171848586Y-105789769D01*
X172021526Y-105884801D01*
X172021526Y-105237641D01*
X171902596Y-105319467D01*
X171832856Y-105371229D01*
X171796340Y-105416357D01*
X171780770Y-105476305D01*
X171775596Y-105541331D01*
X171768757Y-105622848D01*
X171756072Y-105663479D01*
X171730934Y-105675804D01*
X171705586Y-105674683D01*
X171645188Y-105686106D01*
X171572961Y-105722809D01*
X171556009Y-105734841D01*
X171497252Y-105776693D01*
X171457017Y-105799976D01*
X171450845Y-105801684D01*
X171444193Y-105776639D01*
X171438700Y-105708268D01*
X171434901Y-105606712D01*
X171433330Y-105482115D01*
X171433316Y-105468758D01*
X171433316Y-105135832D01*
X171553632Y-105053052D01*
X171625444Y-104998644D01*
X171661569Y-104952954D01*
X171673419Y-104899376D01*
X171673948Y-104877978D01*
X171677272Y-104816599D01*
X171685430Y-104786349D01*
X171686995Y-104785684D01*
X171714663Y-104796904D01*
X171780200Y-104827424D01*
X171873696Y-104872534D01*
X171981100Y-104925464D01*
X172262158Y-105065243D01*
X172266923Y-106028358D01*
X172268503Y-106258314D01*
X172270731Y-106449424D01*
X172273533Y-106599245D01*
X172276833Y-106705336D01*
X172280555Y-106765255D01*
X172284622Y-106776560D01*
X172288916Y-106737473D01*
X172304441Y-106585039D01*
X172327505Y-106458973D01*
X172356016Y-106366974D01*
X172387883Y-106316742D01*
X172405097Y-106309684D01*
X172411385Y-106335585D01*
X172415436Y-106410034D01*
X172417221Y-106528153D01*
X172416709Y-106685062D01*
X172413872Y-106875881D01*
X172409608Y-107061198D01*
X172389851Y-107812712D01*
X172519847Y-107738741D01*
X172598880Y-107691699D01*
X172661769Y-107650602D01*
X172685198Y-107632705D01*
X172695251Y-107612120D01*
X172699192Y-107591474D01*
X172529526Y-107591474D01*
X172510118Y-107618701D01*
X172502790Y-107619789D01*
X172476748Y-107610667D01*
X172476053Y-107607999D01*
X172494788Y-107585172D01*
X172502790Y-107579684D01*
X172527427Y-107581804D01*
X172529526Y-107591474D01*
X172699192Y-107591474D01*
X172703843Y-107567118D01*
X172711204Y-107493291D01*
X172717561Y-107386225D01*
X172723144Y-107241510D01*
X172728182Y-107054736D01*
X172732904Y-106821489D01*
X172735621Y-106661057D01*
X172738642Y-106442945D01*
X172740497Y-106242750D01*
X172741200Y-106066508D01*
X172740768Y-105920257D01*
X172739214Y-105810032D01*
X172736554Y-105741870D01*
X172733275Y-105721473D01*
X172703612Y-105735206D01*
X172643336Y-105771052D01*
X172572465Y-105816683D01*
X172493560Y-105871972D01*
X172448961Y-105916044D01*
X172427128Y-105965206D01*
X172416521Y-106035766D01*
X172416369Y-106037262D01*
X172396428Y-106142400D01*
X172362748Y-106247178D01*
X172352966Y-106269579D01*
X172302263Y-106376526D01*
X172294605Y-106098991D01*
X172292522Y-105982892D01*
X172292934Y-105888191D01*
X172295664Y-105826638D01*
X172299000Y-105809404D01*
X172328793Y-105810956D01*
X172365732Y-105826615D01*
X172403839Y-105838019D01*
X172450147Y-105828094D01*
X172518178Y-105792473D01*
X172568548Y-105761118D01*
X172643850Y-105711459D01*
X172692318Y-105676912D01*
X172627562Y-105676912D01*
X172623891Y-105692807D01*
X172609737Y-105694737D01*
X172587730Y-105684954D01*
X172591912Y-105676912D01*
X172623643Y-105673712D01*
X172627562Y-105676912D01*
X172692318Y-105676912D01*
X172697183Y-105673445D01*
X172716684Y-105655704D01*
X172696458Y-105636202D01*
X172644312Y-105597140D01*
X172594422Y-105562537D01*
X172472159Y-105480023D01*
X172403658Y-105533906D01*
X172337582Y-105578486D01*
X172307309Y-105585131D01*
X172316405Y-105558570D01*
X172368436Y-105503529D01*
X172375790Y-105496948D01*
X172443265Y-105426314D01*
X172472581Y-105361844D01*
X172476053Y-105324271D01*
X172483640Y-105266313D01*
X172502040Y-105240315D01*
X172503408Y-105240210D01*
X172542895Y-105255537D01*
X172614783Y-105296952D01*
X172709352Y-105357603D01*
X172816876Y-105430643D01*
X172927634Y-105509220D01*
X173031902Y-105586484D01*
X173119957Y-105655586D01*
X173182076Y-105709676D01*
X173204222Y-105733935D01*
X173221721Y-105744382D01*
X173224275Y-105729923D01*
X173204391Y-105705574D01*
X173150716Y-105657001D01*
X173072595Y-105591583D01*
X172979373Y-105516701D01*
X172880393Y-105439734D01*
X172785000Y-105368061D01*
X172702540Y-105309062D01*
X172642356Y-105270116D01*
X172641161Y-105269431D01*
X172620067Y-105230766D01*
X172601015Y-105141973D01*
X172596222Y-105102163D01*
X172550772Y-105102163D01*
X172550014Y-105156597D01*
X172538364Y-105181120D01*
X172513842Y-105187288D01*
X172511602Y-105187331D01*
X172456310Y-105203619D01*
X172395842Y-105240210D01*
X172336190Y-105281607D01*
X172303935Y-105283482D01*
X172290927Y-105240871D01*
X172288895Y-105175079D01*
X172284528Y-105098002D01*
X172262615Y-105051380D01*
X172209937Y-105012368D01*
X172187191Y-104999313D01*
X172085486Y-104942152D01*
X172077031Y-104801847D01*
X172021961Y-104801847D01*
X172015821Y-104869762D01*
X172003436Y-104892631D01*
X171967949Y-104880685D01*
X171901084Y-104849538D01*
X171826603Y-104810876D01*
X171675658Y-104729120D01*
X171575017Y-104797507D01*
X171510001Y-104838688D01*
X171463003Y-104863054D01*
X171452633Y-104865894D01*
X171441903Y-104842385D01*
X171441033Y-104783437D01*
X171443452Y-104756545D01*
X171447364Y-104683526D01*
X171430921Y-104640895D01*
X171384782Y-104606711D01*
X171377992Y-104602808D01*
X171347260Y-104584794D01*
X171325071Y-104565705D01*
X171310939Y-104537950D01*
X171304378Y-104493936D01*
X171304902Y-104426073D01*
X171312024Y-104326771D01*
X171325260Y-104188437D01*
X171341350Y-104030612D01*
X171362248Y-103836303D01*
X171381334Y-103687041D01*
X171400562Y-103574532D01*
X171421884Y-103490481D01*
X171447254Y-103426595D01*
X171478625Y-103374579D01*
X171503238Y-103343110D01*
X171580296Y-103280578D01*
X171659441Y-103267929D01*
X171736118Y-103301986D01*
X171805769Y-103379572D01*
X171863838Y-103497510D01*
X171898932Y-103618964D01*
X171924767Y-103752463D01*
X171948960Y-103906467D01*
X171970838Y-104072775D01*
X171989729Y-104243187D01*
X172004959Y-104409500D01*
X172015857Y-104563516D01*
X172021748Y-104697032D01*
X172021961Y-104801847D01*
X172077031Y-104801847D01*
X172053781Y-104416076D01*
X172031991Y-104121820D01*
X172004967Y-103878220D01*
X171972288Y-103682672D01*
X171933534Y-103532575D01*
X171895957Y-103439673D01*
X171872211Y-103375574D01*
X171878317Y-103346474D01*
X171908502Y-103358541D01*
X171939586Y-103393075D01*
X171976544Y-103430579D01*
X171999761Y-103433565D01*
X172000218Y-103432781D01*
X172006990Y-103429492D01*
X172004712Y-103441905D01*
X172014286Y-103478169D01*
X172046689Y-103547389D01*
X172095971Y-103637449D01*
X172123588Y-103684051D01*
X172295021Y-104016879D01*
X172424989Y-104381657D01*
X172512565Y-104775464D01*
X172542616Y-105006263D01*
X172550772Y-105102163D01*
X172596222Y-105102163D01*
X172584689Y-105006380D01*
X172582675Y-104984030D01*
X172569858Y-104855390D01*
X172554874Y-104733242D01*
X172540150Y-104636445D01*
X172533841Y-104604322D01*
X172508074Y-104489801D01*
X172639116Y-104423398D01*
X172711215Y-104384642D01*
X172758811Y-104354801D01*
X172770158Y-104343625D01*
X172748741Y-104347243D01*
X172693361Y-104370452D01*
X172636474Y-104398000D01*
X172552729Y-104436988D01*
X172510488Y-104449413D01*
X172506991Y-104438714D01*
X172539480Y-104408335D01*
X172605198Y-104361717D01*
X172701386Y-104302303D01*
X172723369Y-104289570D01*
X172765699Y-104264316D01*
X172476053Y-104264316D01*
X172462684Y-104277684D01*
X172449316Y-104264316D01*
X172462684Y-104250947D01*
X172476053Y-104264316D01*
X172765699Y-104264316D01*
X172923881Y-104169946D01*
X173081772Y-104065667D01*
X173195023Y-103978206D01*
X173261618Y-103909036D01*
X173274445Y-103887473D01*
X173302252Y-103770525D01*
X173291154Y-103624318D01*
X173249680Y-103470411D01*
X173218582Y-103386492D01*
X173177505Y-103286530D01*
X173133122Y-103185526D01*
X173092110Y-103098483D01*
X173061143Y-103040402D01*
X173053188Y-103028790D01*
X173033326Y-103043587D01*
X172983625Y-103087971D01*
X172912569Y-103154235D01*
X172861463Y-103202972D01*
X172749202Y-103304880D01*
X172629072Y-103403830D01*
X172508797Y-103494580D01*
X172396102Y-103571887D01*
X172298712Y-103630510D01*
X172224351Y-103665206D01*
X172180744Y-103670733D01*
X172176390Y-103667873D01*
X172172207Y-103646187D01*
X172191900Y-103607492D01*
X172239324Y-103546819D01*
X172318330Y-103459203D01*
X172424018Y-103348681D01*
X172574572Y-103192404D01*
X172690365Y-103068684D01*
X172775003Y-102972831D01*
X172832094Y-102900155D01*
X172865245Y-102845965D01*
X172878061Y-102805573D01*
X172874151Y-102774288D01*
X172871037Y-102767443D01*
X172803496Y-102664080D01*
X172700005Y-102539169D01*
X172683766Y-102521965D01*
X171397667Y-102521965D01*
X171393997Y-102537860D01*
X171379842Y-102539789D01*
X171357835Y-102530007D01*
X171362018Y-102521965D01*
X171393748Y-102518765D01*
X171397667Y-102521965D01*
X172683766Y-102521965D01*
X172569232Y-102400629D01*
X172481111Y-102315538D01*
X172333178Y-102315538D01*
X172329000Y-102325894D01*
X172304974Y-102351401D01*
X172300685Y-102352631D01*
X172289201Y-102331945D01*
X172288895Y-102325894D01*
X172309449Y-102300185D01*
X172317210Y-102299158D01*
X172333178Y-102315538D01*
X172481111Y-102315538D01*
X172419847Y-102256381D01*
X172260520Y-102114345D01*
X172099921Y-101982442D01*
X171946719Y-101868592D01*
X171809585Y-101780716D01*
X171763888Y-101755983D01*
X171629173Y-101687717D01*
X171414649Y-101906543D01*
X171311014Y-102017210D01*
X171206284Y-102137369D01*
X171115663Y-102249213D01*
X171073742Y-102305842D01*
X171012599Y-102389090D01*
X170960957Y-102452026D01*
X170927573Y-102484213D01*
X170922282Y-102486316D01*
X170916070Y-102465963D01*
X170937930Y-102409237D01*
X170983971Y-102322631D01*
X171050303Y-102212643D01*
X171133036Y-102085767D01*
X171228278Y-101948499D01*
X171245607Y-101924842D01*
X171192684Y-101924842D01*
X171182902Y-101946849D01*
X171174860Y-101942666D01*
X171171660Y-101910936D01*
X171174860Y-101907017D01*
X171190755Y-101910687D01*
X171192684Y-101924842D01*
X171245607Y-101924842D01*
X171316748Y-101827725D01*
X171380424Y-101741462D01*
X171429565Y-101671979D01*
X171456853Y-101629760D01*
X171460053Y-101622438D01*
X171436023Y-101611340D01*
X171374205Y-101598319D01*
X171318015Y-101590101D01*
X171191674Y-101584666D01*
X171089752Y-101608144D01*
X171000621Y-101666821D01*
X170912653Y-101766984D01*
X170865284Y-101834870D01*
X170794572Y-101946933D01*
X170724544Y-102066771D01*
X170669965Y-102169085D01*
X170668458Y-102172158D01*
X170617709Y-102266623D01*
X170579780Y-102317608D01*
X170556922Y-102322806D01*
X170551000Y-102292470D01*
X170564624Y-102248686D01*
X170601190Y-102171369D01*
X170654246Y-102071651D01*
X170717336Y-101960667D01*
X170784005Y-101849549D01*
X170847799Y-101749432D01*
X170902263Y-101671450D01*
X170931926Y-101635417D01*
X170978388Y-101583639D01*
X170987306Y-101564412D01*
X170960393Y-101573977D01*
X170960393Y-101573977D01*
G37*
X170960393Y-101573977D02*
X170959746Y-101574310D01*
X170892496Y-101630769D01*
X170811288Y-101737526D01*
X170716879Y-101893469D01*
X170628570Y-102060388D01*
X170578876Y-102158661D01*
X170538994Y-102237006D01*
X170514484Y-102284524D01*
X170509558Y-102293592D01*
X170483903Y-102289920D01*
X170426023Y-102271357D01*
X170400601Y-102261984D01*
X170194641Y-102198782D01*
X169951456Y-102149409D01*
X169686024Y-102116107D01*
X169413323Y-102101113D01*
X169321105Y-102100588D01*
X168947190Y-102122567D01*
X168589608Y-102184507D01*
X168236205Y-102289332D01*
X167874831Y-102439968D01*
X167837700Y-102457706D01*
X167533028Y-102619294D01*
X167266331Y-102793373D01*
X167022154Y-102990337D01*
X166956790Y-103049997D01*
X166875326Y-103121369D01*
X166807327Y-103171983D01*
X166762790Y-103194746D01*
X166753448Y-103194273D01*
X166714575Y-103179500D01*
X166708278Y-103177639D01*
X166496800Y-103177639D01*
X166487265Y-103233129D01*
X166452802Y-103319290D01*
X166393072Y-103442796D01*
X166359919Y-103508296D01*
X166192733Y-103836526D01*
X166284389Y-104103894D01*
X166321703Y-104209642D01*
X166352084Y-104289875D01*
X166372002Y-104335647D01*
X166378049Y-104341203D01*
X166370923Y-104299019D01*
X166350647Y-104228958D01*
X166340813Y-104199927D01*
X166318061Y-104123616D01*
X166318011Y-104068091D01*
X166341342Y-104005410D01*
X166345765Y-103996039D01*
X166379268Y-103936520D01*
X166407037Y-103904917D01*
X166411742Y-103903368D01*
X166421335Y-103928112D01*
X166428773Y-103994390D01*
X166432975Y-104090274D01*
X166433526Y-104144000D01*
X166430886Y-104252450D01*
X166423756Y-104334702D01*
X166413321Y-104379592D01*
X166407976Y-104384631D01*
X166400455Y-104406803D01*
X166411141Y-104462905D01*
X166421344Y-104494940D01*
X166453347Y-104594905D01*
X166459898Y-104652459D01*
X166437326Y-104674023D01*
X166381965Y-104666022D01*
X166332713Y-104650131D01*
X166293965Y-104635430D01*
X166265040Y-104616799D01*
X166240679Y-104584958D01*
X166215625Y-104530626D01*
X166184620Y-104444524D01*
X166142407Y-104317371D01*
X166139935Y-104309851D01*
X166105518Y-104206891D01*
X166079012Y-104145266D01*
X166053986Y-104126143D01*
X166024008Y-104150693D01*
X165982647Y-104220085D01*
X165923470Y-104335487D01*
X165915826Y-104350587D01*
X165874146Y-104428789D01*
X165841118Y-104469841D01*
X165802135Y-104484747D01*
X165742594Y-104484509D01*
X165738372Y-104484272D01*
X165671447Y-104479044D01*
X165634254Y-104473372D01*
X165631560Y-104471798D01*
X165642756Y-104446910D01*
X165673592Y-104382981D01*
X165719780Y-104288789D01*
X165777032Y-104173114D01*
X165798010Y-104130945D01*
X165964599Y-103796505D01*
X165902469Y-103609263D01*
X165845316Y-103609263D01*
X165835533Y-103631270D01*
X165827491Y-103627087D01*
X165824292Y-103595357D01*
X165827491Y-103591438D01*
X165843386Y-103595108D01*
X165845316Y-103609263D01*
X165902469Y-103609263D01*
X165827110Y-103382159D01*
X165788198Y-103261684D01*
X165684895Y-103261684D01*
X165675112Y-103283691D01*
X165667070Y-103279508D01*
X165663870Y-103247778D01*
X165667070Y-103243859D01*
X165682965Y-103247530D01*
X165684895Y-103261684D01*
X165788198Y-103261684D01*
X165782105Y-103242823D01*
X165745461Y-103122143D01*
X165719618Y-103028770D01*
X165707014Y-102971354D01*
X165707311Y-102957227D01*
X165742033Y-102957842D01*
X165804776Y-102972983D01*
X165818003Y-102977162D01*
X165860769Y-102994183D01*
X165893599Y-103019214D01*
X165922929Y-103062315D01*
X165955194Y-103133545D01*
X165996830Y-103242965D01*
X166008577Y-103275052D01*
X166106148Y-103542421D01*
X166208858Y-103335210D01*
X166261726Y-103232874D01*
X166301097Y-103170475D01*
X166334555Y-103138807D01*
X166369685Y-103128663D01*
X166379232Y-103128409D01*
X166442444Y-103131956D01*
X166481747Y-103146140D01*
X166496800Y-103177639D01*
X166708278Y-103177639D01*
X166638702Y-103157080D01*
X166540927Y-103131419D01*
X166522094Y-103126777D01*
X166420107Y-103102606D01*
X166355237Y-103091542D01*
X166312671Y-103093932D01*
X166277596Y-103110127D01*
X166244909Y-103133307D01*
X166181931Y-103195799D01*
X166137434Y-103266482D01*
X166107416Y-103317425D01*
X166078578Y-103334899D01*
X166077327Y-103334565D01*
X166055188Y-103306159D01*
X166024418Y-103240861D01*
X165992663Y-103155617D01*
X165956973Y-103058810D01*
X165920535Y-102999636D01*
X165868792Y-102964068D01*
X165787188Y-102938080D01*
X165759889Y-102931309D01*
X165707553Y-102927160D01*
X165664123Y-102951661D01*
X165618162Y-103005164D01*
X165548494Y-103096504D01*
X165680312Y-103493252D01*
X165812131Y-103890000D01*
X165681671Y-104160978D01*
X165605030Y-104334254D01*
X165561594Y-104467449D01*
X165551095Y-104562184D01*
X165573266Y-104620083D01*
X165603232Y-104638170D01*
X165663515Y-104633571D01*
X165740129Y-104597399D01*
X165816996Y-104540613D01*
X165878037Y-104474173D01*
X165899592Y-104436168D01*
X165927553Y-104381916D01*
X165950764Y-104357955D01*
X165951559Y-104357894D01*
X165968926Y-104381320D01*
X165995549Y-104442685D01*
X166025175Y-104527237D01*
X166055371Y-104635169D01*
X166065983Y-104721921D01*
X166059384Y-104815073D01*
X166053370Y-104854764D01*
X166044351Y-104944284D01*
X166039044Y-105070272D01*
X166037862Y-105215827D01*
X166041076Y-105360526D01*
X166068387Y-105684309D01*
X166126289Y-105986183D01*
X166218347Y-106275757D01*
X166348129Y-106562640D01*
X166519201Y-106856442D01*
X166687309Y-107101717D01*
X166687492Y-107124182D01*
X166664185Y-107164506D01*
X166613979Y-107226708D01*
X166533467Y-107314810D01*
X166419240Y-107432830D01*
X166332009Y-107520771D01*
X166202976Y-107650318D01*
X166106991Y-107748340D01*
X166039298Y-107821128D01*
X165995138Y-107874976D01*
X165969754Y-107916173D01*
X165958388Y-107951013D01*
X165956283Y-107985786D01*
X165957911Y-108015491D01*
X165966040Y-108084415D01*
X165977272Y-108124020D01*
X165981599Y-108127750D01*
X166004481Y-108148628D01*
X166028787Y-108187947D01*
X166047970Y-108218820D01*
X166049644Y-108208000D01*
X166058824Y-108161173D01*
X166094344Y-108107382D01*
X166129616Y-108057769D01*
X166125656Y-108029754D01*
X166103772Y-108029754D01*
X166102679Y-108059519D01*
X166075767Y-108098922D01*
X166040052Y-108125594D01*
X166029200Y-108127789D01*
X166006000Y-108107831D01*
X166005737Y-108104326D01*
X166023263Y-108069447D01*
X166060928Y-108037736D01*
X166096362Y-108026209D01*
X166103772Y-108029754D01*
X166125656Y-108029754D01*
X166124732Y-108023225D01*
X166117678Y-108015140D01*
X166081285Y-107997326D01*
X166053863Y-108015494D01*
X166008767Y-108045792D01*
X165985162Y-108027567D01*
X165983908Y-107974052D01*
X165997036Y-107924358D01*
X166032249Y-107900975D01*
X166092365Y-107892244D01*
X166191906Y-107904055D01*
X166313795Y-107948604D01*
X166444809Y-108018698D01*
X166571727Y-108107145D01*
X166681328Y-108206754D01*
X166692129Y-108218494D01*
X166785783Y-108335883D01*
X166854187Y-108448896D01*
X166895145Y-108550280D01*
X166906463Y-108632782D01*
X166885945Y-108689148D01*
X166841263Y-108711175D01*
X166790897Y-108706729D01*
X166786161Y-108676552D01*
X166812744Y-108641582D01*
X166834254Y-108609658D01*
X166832797Y-108600289D01*
X166810325Y-108612656D01*
X166767112Y-108655109D01*
X166745051Y-108680054D01*
X166702701Y-108733488D01*
X166681682Y-108766991D01*
X166685899Y-108772517D01*
X166710752Y-108750704D01*
X166748132Y-108739318D01*
X166812783Y-108737555D01*
X166815962Y-108737756D01*
X166848474Y-108736753D01*
X166882590Y-108726009D01*
X166924250Y-108700723D01*
X166979389Y-108656098D01*
X167053947Y-108587333D01*
X167153861Y-108489631D01*
X167282912Y-108360364D01*
X167398416Y-108242876D01*
X167499813Y-108137511D01*
X167581433Y-108050348D01*
X167637601Y-107987466D01*
X167662646Y-107954944D01*
X167663421Y-107952593D01*
X167645618Y-107962604D01*
X167596109Y-108005256D01*
X167520747Y-108075126D01*
X167425381Y-108166788D01*
X167316764Y-108273922D01*
X167206363Y-108382875D01*
X167109255Y-108476421D01*
X167031551Y-108548861D01*
X166979361Y-108594496D01*
X166958881Y-108607746D01*
X166972767Y-108585548D01*
X167018212Y-108531322D01*
X167089548Y-108451429D01*
X167181110Y-108352229D01*
X167275802Y-108252035D01*
X167395576Y-108126274D01*
X167485653Y-108034697D01*
X167554509Y-107974045D01*
X167610620Y-107941054D01*
X167662461Y-107932464D01*
X167718508Y-107945014D01*
X167787238Y-107975442D01*
X167877127Y-108020486D01*
X167877316Y-108020580D01*
X168035120Y-108089557D01*
X168227247Y-108158969D01*
X168434960Y-108222613D01*
X168639523Y-108274290D01*
X168652684Y-108277179D01*
X168773491Y-108295920D01*
X168932463Y-108309849D01*
X169115934Y-108318819D01*
X169310237Y-108322684D01*
X169501706Y-108321296D01*
X169676675Y-108314510D01*
X169821475Y-108302179D01*
X169895948Y-108290507D01*
X170143978Y-108230734D01*
X170393547Y-108155315D01*
X170628746Y-108069759D01*
X170833664Y-107979572D01*
X170911948Y-107938839D01*
X171068165Y-107850115D01*
X171196111Y-107770989D01*
X171312210Y-107689951D01*
X171432886Y-107595491D01*
X171574565Y-107476100D01*
X171584478Y-107467560D01*
X171662767Y-107401737D01*
X171725479Y-107352142D01*
X171761911Y-107327140D01*
X171766034Y-107325684D01*
X171796885Y-107340128D01*
X171850431Y-107375586D01*
X171859884Y-107382482D01*
X171936707Y-107439280D01*
X172099432Y-107325134D01*
X172188700Y-107255979D01*
X172245376Y-107198347D01*
X172265538Y-107157598D01*
X172245264Y-107139088D01*
X172236052Y-107138526D01*
X172205112Y-107124145D01*
X172139809Y-107084933D01*
X172049542Y-107026782D01*
X171943713Y-106955588D01*
X171937681Y-106951448D01*
X171665417Y-106764370D01*
X171582787Y-106826381D01*
X171501287Y-106886996D01*
X171417768Y-106948349D01*
X171414709Y-106950577D01*
X171329259Y-107012761D01*
X171520424Y-107147011D01*
X171711590Y-107281261D01*
X171552400Y-107426795D01*
X171233462Y-107683034D01*
X170888338Y-107895049D01*
X170521937Y-108062115D01*
X170139169Y-108183510D01*
X169744945Y-108258513D01*
X169344172Y-108286399D01*
X168941761Y-108266447D01*
X168542622Y-108197934D01*
X168151664Y-108080137D01*
X167883119Y-107966843D01*
X167528578Y-107771847D01*
X167492947Y-107746333D01*
X167396053Y-107746333D01*
X167378148Y-107771254D01*
X167328911Y-107826528D01*
X167255058Y-107904934D01*
X167163306Y-107999251D01*
X167122478Y-108040438D01*
X166993840Y-108166402D01*
X166897596Y-108253253D01*
X166831535Y-108302645D01*
X166793442Y-108316230D01*
X166781106Y-108295660D01*
X166781105Y-108295351D01*
X166799010Y-108270429D01*
X166848247Y-108215156D01*
X166922100Y-108136750D01*
X167013852Y-108042433D01*
X167054680Y-108001246D01*
X167183319Y-107875282D01*
X167279562Y-107788430D01*
X167345624Y-107739038D01*
X167383716Y-107725453D01*
X167396052Y-107746023D01*
X167396053Y-107746333D01*
X167492947Y-107746333D01*
X167418906Y-107693316D01*
X167289280Y-107693316D01*
X167271366Y-107718921D01*
X167223116Y-107772868D01*
X167152997Y-107846705D01*
X167069475Y-107931977D01*
X166981015Y-108020231D01*
X166896084Y-108103015D01*
X166823147Y-108171875D01*
X166770672Y-108218357D01*
X166747684Y-108234094D01*
X166728973Y-108213581D01*
X166727632Y-108201818D01*
X166745919Y-108169998D01*
X166794912Y-108110977D01*
X166865809Y-108033574D01*
X166949809Y-107946606D01*
X167038109Y-107858895D01*
X167121908Y-107779258D01*
X167192403Y-107716515D01*
X167240793Y-107679485D01*
X167255156Y-107673263D01*
X167286759Y-107685846D01*
X167289280Y-107693316D01*
X167418906Y-107693316D01*
X167323068Y-107624691D01*
X167208895Y-107624691D01*
X167190727Y-107654102D01*
X167142026Y-107711136D01*
X167071494Y-107787087D01*
X166987831Y-107873247D01*
X166899742Y-107960912D01*
X166815927Y-108041375D01*
X166745090Y-108105929D01*
X166695931Y-108145869D01*
X166679307Y-108154526D01*
X166654704Y-108136944D01*
X166610814Y-108093913D01*
X166604254Y-108086906D01*
X166553967Y-108046648D01*
X166472639Y-107995500D01*
X166374834Y-107941080D01*
X166275119Y-107891007D01*
X166188058Y-107852899D01*
X166128216Y-107834375D01*
X166120123Y-107833684D01*
X166088498Y-107819462D01*
X166085948Y-107810817D01*
X166104304Y-107785567D01*
X166155120Y-107730158D01*
X166232012Y-107651179D01*
X166328599Y-107555226D01*
X166408265Y-107477875D01*
X166730582Y-107167800D01*
X166916265Y-107348400D01*
X166995126Y-107423624D01*
X167057529Y-107480337D01*
X167095296Y-107511270D01*
X167102761Y-107514236D01*
X167114307Y-107521482D01*
X167132480Y-107549218D01*
X167141236Y-107578475D01*
X167130009Y-107614150D01*
X167093203Y-107665256D01*
X167025219Y-107740804D01*
X166991304Y-107776482D01*
X166821222Y-107954000D01*
X167015058Y-107767559D01*
X167106284Y-107683706D01*
X167170623Y-107632964D01*
X167204498Y-107617969D01*
X167208895Y-107624691D01*
X167323068Y-107624691D01*
X167206340Y-107541109D01*
X166919112Y-107278547D01*
X166669602Y-106988080D01*
X166460517Y-106673629D01*
X166294564Y-106339111D01*
X166174449Y-105988447D01*
X166102879Y-105625556D01*
X166082967Y-105360526D01*
X166079609Y-105171444D01*
X166080820Y-105030016D01*
X166087924Y-104930521D01*
X166102245Y-104867237D01*
X166125106Y-104834445D01*
X166157830Y-104826421D01*
X166201743Y-104837446D01*
X166203813Y-104838226D01*
X166273236Y-104851840D01*
X166333322Y-104826745D01*
X166334544Y-104825894D01*
X166395774Y-104790788D01*
X166426707Y-104795219D01*
X166433526Y-104827150D01*
X166443319Y-104845958D01*
X166477879Y-104832214D01*
X166527160Y-104797198D01*
X166620793Y-104725780D01*
X166603094Y-103953627D01*
X166598195Y-103709967D01*
X166416908Y-103709967D01*
X166389393Y-103801359D01*
X166365070Y-103853080D01*
X166326354Y-103925014D01*
X166296502Y-103972411D01*
X166285362Y-103983579D01*
X166267116Y-103961669D01*
X166245630Y-103914795D01*
X166235471Y-103864513D01*
X166245573Y-103804200D01*
X166279215Y-103718173D01*
X166293082Y-103687810D01*
X166332991Y-103607010D01*
X166365621Y-103549898D01*
X166383239Y-103529331D01*
X166397807Y-103552569D01*
X166412771Y-103610342D01*
X166415496Y-103625817D01*
X166416908Y-103709967D01*
X166598195Y-103709967D01*
X166598169Y-103708712D01*
X166595850Y-103514248D01*
X166596184Y-103367275D01*
X166599215Y-103264832D01*
X166604985Y-103203958D01*
X166613542Y-103181693D01*
X166614668Y-103181473D01*
X166660289Y-103190372D01*
X166710680Y-103206848D01*
X166735474Y-103218634D01*
X166755480Y-103236866D01*
X166771349Y-103267110D01*
X166783735Y-103314934D01*
X166793289Y-103385905D01*
X166800665Y-103485590D01*
X166806513Y-103619557D01*
X166811488Y-103793372D01*
X166816240Y-104012604D01*
X166818462Y-104126605D01*
X166831189Y-104790999D01*
X166737843Y-104773487D01*
X166671448Y-104768099D01*
X166616545Y-104787300D01*
X166551205Y-104837887D01*
X166457913Y-104919798D01*
X166532614Y-104947113D01*
X166597131Y-104970535D01*
X166638225Y-104985200D01*
X166677438Y-104975627D01*
X166715895Y-104944302D01*
X166768023Y-104899470D01*
X166798887Y-104903086D01*
X166807842Y-104947187D01*
X166810858Y-104979932D01*
X166827422Y-104979944D01*
X166868807Y-104945167D01*
X166881095Y-104933819D01*
X166934398Y-104889411D01*
X166972270Y-104866673D01*
X166976446Y-104865894D01*
X166981855Y-104840263D01*
X166986385Y-104767781D01*
X166989899Y-104655065D01*
X166992262Y-104508734D01*
X166993335Y-104335405D01*
X166992984Y-104141696D01*
X166992605Y-104083842D01*
X166991033Y-103858913D01*
X166990343Y-103681709D01*
X166990864Y-103546484D01*
X166992924Y-103447492D01*
X166996850Y-103378988D01*
X167002970Y-103335226D01*
X167011613Y-103310460D01*
X167023105Y-103298943D01*
X167037622Y-103294952D01*
X167080659Y-103292783D01*
X167112158Y-103304202D01*
X167134050Y-103336198D01*
X167148262Y-103395757D01*
X167156725Y-103489865D01*
X167161367Y-103625510D01*
X167163397Y-103750495D01*
X167166159Y-103891264D01*
X167170288Y-104009381D01*
X167175338Y-104096315D01*
X167180861Y-104143532D01*
X167184285Y-104149171D01*
X167200126Y-104117354D01*
X167229479Y-104047804D01*
X167267204Y-103952905D01*
X167286253Y-103903368D01*
X167350795Y-103733912D01*
X167399637Y-103608068D01*
X167436312Y-103519553D01*
X167464356Y-103462086D01*
X167487303Y-103429385D01*
X167508689Y-103415167D01*
X167532048Y-103413150D01*
X167559982Y-103416917D01*
X167631070Y-103444132D01*
X167677469Y-103484662D01*
X167706307Y-103519024D01*
X167716496Y-103508431D01*
X167716895Y-103498170D01*
X167695450Y-103441971D01*
X167628357Y-103401378D01*
X167560292Y-103382333D01*
X167506219Y-103375384D01*
X167461490Y-103386999D01*
X167409903Y-103424688D01*
X167353081Y-103478392D01*
X167290930Y-103544656D01*
X167248355Y-103600123D01*
X167235632Y-103628198D01*
X167219209Y-103660048D01*
X167208895Y-103662737D01*
X167195095Y-103638063D01*
X167185588Y-103572178D01*
X167182158Y-103480065D01*
X167182158Y-103297393D01*
X167084336Y-103267370D01*
X167011534Y-103251245D01*
X166957948Y-103261915D01*
X166913104Y-103289621D01*
X166850009Y-103330634D01*
X166818096Y-103338110D01*
X166808049Y-103313426D01*
X166807842Y-103305188D01*
X166827655Y-103267267D01*
X166881653Y-103204201D01*
X166961679Y-103123500D01*
X167059572Y-103032675D01*
X167167175Y-102939237D01*
X167276328Y-102850695D01*
X167378872Y-102774559D01*
X167400266Y-102759862D01*
X167774258Y-102537365D01*
X168161222Y-102364250D01*
X168557480Y-102240591D01*
X168959352Y-102166465D01*
X169363158Y-102141946D01*
X169765221Y-102167110D01*
X170161859Y-102242032D01*
X170549395Y-102366788D01*
X170924148Y-102541453D01*
X171160802Y-102682869D01*
X171251193Y-102745652D01*
X171353906Y-102822840D01*
X171460323Y-102907204D01*
X171561826Y-102991515D01*
X171649798Y-103068545D01*
X171715621Y-103131066D01*
X171750679Y-103171848D01*
X171754158Y-103180583D01*
X171731259Y-103193238D01*
X171675320Y-103191950D01*
X171667255Y-103190746D01*
X171577644Y-103194413D01*
X171509169Y-103232636D01*
X171454312Y-103283598D01*
X171410231Y-103345509D01*
X171374800Y-103425739D01*
X171345896Y-103531657D01*
X171321395Y-103670635D01*
X171299171Y-103850044D01*
X171282342Y-104019651D01*
X171265569Y-104196341D01*
X171251724Y-104327062D01*
X171239392Y-104419142D01*
X171227161Y-104479909D01*
X171213617Y-104516691D01*
X171197344Y-104536816D01*
X171180768Y-104546114D01*
X171120675Y-104576835D01*
X171049759Y-104620693D01*
X171045632Y-104623498D01*
X170987511Y-104659858D01*
X170948635Y-104678077D01*
X170945369Y-104678560D01*
X170934119Y-104654542D01*
X170926725Y-104592660D01*
X170925053Y-104538368D01*
X170924790Y-104398000D01*
X170792978Y-104354334D01*
X170713907Y-104330027D01*
X170663109Y-104325104D01*
X170618294Y-104341547D01*
X170567397Y-104374387D01*
X170506283Y-104413753D01*
X170465351Y-104436148D01*
X170458840Y-104438105D01*
X170449357Y-104414449D01*
X170444307Y-104355750D01*
X170444053Y-104337100D01*
X170427473Y-104241158D01*
X170394380Y-104193563D01*
X170362609Y-104146873D01*
X170339930Y-104064325D01*
X170335076Y-104027837D01*
X170277877Y-104027837D01*
X170274904Y-104104902D01*
X170261865Y-104142069D01*
X170256428Y-104144000D01*
X170217489Y-104136219D01*
X170140700Y-104115305D01*
X170038983Y-104084897D01*
X169973286Y-104064227D01*
X169862237Y-104031485D01*
X169767450Y-104008727D01*
X169702197Y-103998881D01*
X169683099Y-104000245D01*
X169658647Y-104002536D01*
X169645751Y-103981997D01*
X169644648Y-103932226D01*
X169655575Y-103846821D01*
X169678768Y-103719376D01*
X169696817Y-103629149D01*
X169734405Y-103461417D01*
X169771143Y-103340111D01*
X169811121Y-103258412D01*
X169858429Y-103209501D01*
X169917158Y-103186560D01*
X169964813Y-103182324D01*
X170046366Y-103205446D01*
X170115189Y-103277791D01*
X170172148Y-103400559D01*
X170205033Y-103515500D01*
X170234360Y-103654707D01*
X170256808Y-103792995D01*
X170271579Y-103920620D01*
X170277877Y-104027837D01*
X170335076Y-104027837D01*
X170325411Y-103955203D01*
X170304682Y-103790261D01*
X170276027Y-103624963D01*
X170242191Y-103471013D01*
X170205921Y-103340115D01*
X170169962Y-103243973D01*
X170150267Y-103208659D01*
X170070136Y-103136801D01*
X169972042Y-103111049D01*
X169868995Y-103134644D01*
X169863721Y-103137294D01*
X169786487Y-103204011D01*
X169720881Y-103319016D01*
X169666277Y-103483755D01*
X169623307Y-103691976D01*
X169603729Y-103807507D01*
X169586678Y-103901890D01*
X169574295Y-103963632D01*
X169569344Y-103981627D01*
X169548956Y-103973525D01*
X169528040Y-103951297D01*
X169489642Y-103927515D01*
X169412937Y-103895912D01*
X169311709Y-103860750D01*
X169199741Y-103826289D01*
X169090816Y-103796793D01*
X168998719Y-103776522D01*
X168940633Y-103769684D01*
X168890793Y-103786278D01*
X168818891Y-103829419D01*
X168753114Y-103879533D01*
X168685164Y-103934579D01*
X168635432Y-103970634D01*
X168615532Y-103979796D01*
X168610095Y-103950954D01*
X168600895Y-103879974D01*
X168589278Y-103777947D01*
X168578123Y-103671295D01*
X168548916Y-103455682D01*
X168508745Y-103289407D01*
X168455855Y-103169139D01*
X168388492Y-103091540D01*
X168304902Y-103053277D01*
X168250144Y-103047789D01*
X168152205Y-103072623D01*
X168062377Y-103139525D01*
X167989698Y-103237099D01*
X167943207Y-103353950D01*
X167930939Y-103450281D01*
X167911870Y-103493780D01*
X167865244Y-103552442D01*
X167806605Y-103610440D01*
X167751495Y-103651946D01*
X167722306Y-103662737D01*
X167711956Y-103676484D01*
X167703874Y-103720633D01*
X167697860Y-103799544D01*
X167693713Y-103917576D01*
X167691229Y-104079090D01*
X167690209Y-104288446D01*
X167690158Y-104358404D01*
X167690158Y-105054071D01*
X167616632Y-105036765D01*
X167557788Y-105023046D01*
X167527535Y-105016203D01*
X167499880Y-105029864D01*
X167445149Y-105068489D01*
X167398100Y-105105307D01*
X167284237Y-105197667D01*
X167384681Y-105232441D01*
X167454987Y-105252356D01*
X167498462Y-105248621D01*
X167529589Y-105226976D01*
X167576615Y-105191885D01*
X167602811Y-105200541D01*
X167618981Y-105245130D01*
X167629834Y-105273863D01*
X167648286Y-105278641D01*
X167684059Y-105255416D01*
X167746875Y-105200138D01*
X167763438Y-105184972D01*
X167892625Y-105066421D01*
X167881310Y-104333475D01*
X167877981Y-104104547D01*
X167876549Y-103923631D01*
X167878053Y-103785274D01*
X167883532Y-103684022D01*
X167894024Y-103614420D01*
X167910566Y-103571015D01*
X167934197Y-103548351D01*
X167965956Y-103540977D01*
X168006879Y-103543436D01*
X168031084Y-103546647D01*
X168080580Y-103552315D01*
X168080371Y-103545079D01*
X168044421Y-103525479D01*
X167994888Y-103473942D01*
X167988745Y-103398351D01*
X168026020Y-103305942D01*
X168043440Y-103279180D01*
X168113026Y-103192114D01*
X168175858Y-103145242D01*
X168245209Y-103129173D01*
X168255939Y-103128850D01*
X168332849Y-103153107D01*
X168403383Y-103221546D01*
X168460150Y-103324885D01*
X168489880Y-103422640D01*
X168512736Y-103533553D01*
X168518730Y-103599619D01*
X168501416Y-103628444D01*
X168454350Y-103627628D01*
X168371087Y-103604778D01*
X168342776Y-103596184D01*
X168259193Y-103573425D01*
X168192772Y-103559889D01*
X168171421Y-103558122D01*
X168174118Y-103565598D01*
X168218847Y-103583631D01*
X168296121Y-103608449D01*
X168303473Y-103610629D01*
X168398227Y-103642688D01*
X168475673Y-103676285D01*
X168516076Y-103701827D01*
X168528732Y-103722444D01*
X168538919Y-103760178D01*
X168547042Y-103820934D01*
X168553509Y-103910617D01*
X168558728Y-104035133D01*
X168563104Y-104200386D01*
X168567045Y-104412281D01*
X168567651Y-104450121D01*
X168570013Y-104642813D01*
X168570929Y-104820731D01*
X168570461Y-104976004D01*
X168568667Y-105100761D01*
X168565607Y-105187131D01*
X168561749Y-105225827D01*
X168534163Y-105278159D01*
X168477212Y-105293631D01*
X168471792Y-105293684D01*
X168414716Y-105285532D01*
X168326306Y-105264203D01*
X168221696Y-105234387D01*
X168116019Y-105200774D01*
X168024409Y-105168056D01*
X167961998Y-105140921D01*
X167946398Y-105130846D01*
X167917363Y-105136412D01*
X167864216Y-105168293D01*
X167801169Y-105215510D01*
X167742434Y-105267086D01*
X167702221Y-105312042D01*
X167694669Y-105325308D01*
X167709959Y-105348896D01*
X167757444Y-105374063D01*
X167829076Y-105401298D01*
X167811766Y-105715122D01*
X167789491Y-106037651D01*
X167760515Y-106311075D01*
X167723955Y-106539446D01*
X167678926Y-106726816D01*
X167624544Y-106877237D01*
X167559925Y-106994761D01*
X167521737Y-107044504D01*
X167453619Y-107112091D01*
X167392406Y-107142583D01*
X167346993Y-107147438D01*
X167252489Y-107122212D01*
X167164836Y-107052470D01*
X167093270Y-106947115D01*
X167062879Y-106873524D01*
X167023952Y-106728026D01*
X166987608Y-106539945D01*
X166955087Y-106320158D01*
X166927631Y-106079540D01*
X166906479Y-105828965D01*
X166892873Y-105579310D01*
X166888053Y-105341448D01*
X166888053Y-105075540D01*
X166964378Y-105092304D01*
X167018167Y-105096178D01*
X167064610Y-105073926D01*
X167121889Y-105016593D01*
X167124799Y-105013288D01*
X167174479Y-104951687D01*
X167204667Y-104904579D01*
X167208895Y-104891701D01*
X167229269Y-104866638D01*
X167235632Y-104865894D01*
X167250054Y-104890114D01*
X167259761Y-104952786D01*
X167262369Y-105018192D01*
X167262369Y-105170489D01*
X167355948Y-105079789D01*
X167449526Y-104989089D01*
X167448606Y-104626702D01*
X167447686Y-104264316D01*
X167371866Y-104451473D01*
X167306951Y-104610397D01*
X167257543Y-104725990D01*
X167219569Y-104804679D01*
X167188953Y-104852891D01*
X167161623Y-104877055D01*
X167133503Y-104883599D01*
X167100865Y-104879025D01*
X167047743Y-104875215D01*
X166997216Y-104895199D01*
X166932481Y-104946548D01*
X166914364Y-104963085D01*
X166805162Y-105064122D01*
X166822029Y-105452956D01*
X166844955Y-105845871D01*
X166877463Y-106190687D01*
X166919386Y-106486719D01*
X166970556Y-106733281D01*
X167030805Y-106929688D01*
X167099965Y-107075255D01*
X167177868Y-107169297D01*
X167252423Y-107208616D01*
X167375291Y-107213492D01*
X167491242Y-107167603D01*
X167593747Y-107073658D01*
X167601421Y-107063820D01*
X167676359Y-106939404D01*
X167739286Y-106777327D01*
X167790980Y-106574213D01*
X167832216Y-106326687D01*
X167863770Y-106031375D01*
X167875757Y-105870880D01*
X167885761Y-105726192D01*
X167895267Y-105601543D01*
X167903504Y-105506118D01*
X167909700Y-105449102D01*
X167912204Y-105437041D01*
X167939583Y-105441103D01*
X168001426Y-105460389D01*
X168059670Y-105481476D01*
X168183266Y-105521850D01*
X168273810Y-105532454D01*
X168343573Y-105511900D01*
X168404821Y-105458801D01*
X168419877Y-105440736D01*
X168486587Y-105368109D01*
X168532149Y-105344545D01*
X168557094Y-105370274D01*
X168561952Y-105445529D01*
X168557144Y-105500699D01*
X168539210Y-105654240D01*
X168660271Y-105547488D01*
X168781332Y-105440737D01*
X168783850Y-105122000D01*
X168786376Y-104978503D01*
X168792162Y-104878348D01*
X168802519Y-104811438D01*
X168818756Y-104767676D01*
X168832397Y-104747684D01*
X168838694Y-104735784D01*
X168812176Y-104756493D01*
X168758526Y-104805310D01*
X168752747Y-104810753D01*
X168685790Y-104868568D01*
X168633237Y-104904067D01*
X168607403Y-104909735D01*
X168615641Y-104883770D01*
X168656617Y-104835559D01*
X168713981Y-104782159D01*
X168777356Y-104722106D01*
X168816823Y-104673046D01*
X168824082Y-104648130D01*
X168818108Y-104612124D01*
X168814107Y-104534841D01*
X168811980Y-104428437D01*
X168811629Y-104305069D01*
X168812955Y-104176891D01*
X168815860Y-104056061D01*
X168820246Y-103954735D01*
X168826014Y-103885069D01*
X168830441Y-103862567D01*
X168863018Y-103824064D01*
X168925809Y-103808757D01*
X169024049Y-103816709D01*
X169162976Y-103847987D01*
X169232994Y-103867592D01*
X169494895Y-103943949D01*
X169501948Y-104822345D01*
X169503691Y-105062991D01*
X169504495Y-105255342D01*
X169504146Y-105404572D01*
X169502426Y-105515854D01*
X169499122Y-105594363D01*
X169494017Y-105645272D01*
X169486896Y-105673755D01*
X169477543Y-105684987D01*
X169466043Y-105684256D01*
X169380279Y-105656641D01*
X169316685Y-105656155D01*
X169255160Y-105687123D01*
X169185964Y-105744549D01*
X169067105Y-105851009D01*
X169167594Y-105893642D01*
X169256797Y-105919140D01*
X169333046Y-105919925D01*
X169335768Y-105919286D01*
X169403454Y-105902298D01*
X169387321Y-106085938D01*
X169355900Y-106386141D01*
X169318715Y-106638290D01*
X169276034Y-106841163D01*
X169228130Y-106993532D01*
X169175274Y-107094173D01*
X169160629Y-107111849D01*
X169074845Y-107173342D01*
X168984551Y-107188122D01*
X168901629Y-107157167D01*
X168840059Y-107085457D01*
X168819065Y-107026138D01*
X168793887Y-106923425D01*
X168766062Y-106787089D01*
X168737122Y-106626903D01*
X168708602Y-106452639D01*
X168682037Y-106274070D01*
X168658962Y-106100969D01*
X168640911Y-105943106D01*
X168629418Y-105810256D01*
X168625948Y-105721918D01*
X168649796Y-105706270D01*
X168715039Y-105708299D01*
X168726211Y-105709942D01*
X168796912Y-105714753D01*
X168848836Y-105694870D01*
X168905002Y-105643416D01*
X168958226Y-105592502D01*
X168997552Y-105563564D01*
X169005266Y-105561052D01*
X169018150Y-105584980D01*
X169025943Y-105645609D01*
X169027000Y-105683158D01*
X169027000Y-105805264D01*
X169267632Y-105608084D01*
X169267632Y-104887092D01*
X169173122Y-104970072D01*
X169112135Y-105019349D01*
X169065952Y-105049082D01*
X169053888Y-105053052D01*
X169041695Y-105077711D01*
X169030786Y-105143379D01*
X169022998Y-105237595D01*
X169021397Y-105273631D01*
X169016587Y-105385035D01*
X169007081Y-105452140D01*
X168985839Y-105484068D01*
X168945822Y-105489942D01*
X168879991Y-105478886D01*
X168865323Y-105475897D01*
X168825580Y-105488397D01*
X168761577Y-105529282D01*
X168689153Y-105588004D01*
X168554345Y-105708534D01*
X168588468Y-106069267D01*
X168614998Y-106308161D01*
X168647582Y-106534067D01*
X168684513Y-106738139D01*
X168724083Y-106911532D01*
X168764587Y-107045399D01*
X168787576Y-107100916D01*
X168836051Y-107181769D01*
X168891945Y-107226502D01*
X168937467Y-107243178D01*
X169033317Y-107257717D01*
X169111306Y-107235417D01*
X169180464Y-107183612D01*
X169242905Y-107099020D01*
X169299326Y-106965095D01*
X169348800Y-106785735D01*
X169390401Y-106564837D01*
X169423205Y-106306298D01*
X169441995Y-106082421D01*
X169453598Y-105956909D01*
X169469058Y-105855399D01*
X169486338Y-105789841D01*
X169494423Y-105774947D01*
X169506659Y-105744312D01*
X169516798Y-105680662D01*
X169525144Y-105579595D01*
X169531999Y-105436707D01*
X169537664Y-105247595D01*
X169540830Y-105098954D01*
X169545695Y-104879945D01*
X169551584Y-104709553D01*
X169559291Y-104582920D01*
X169569610Y-104495188D01*
X169583334Y-104441501D01*
X169601258Y-104417001D01*
X169624175Y-104416831D01*
X169649617Y-104433375D01*
X169682509Y-104444476D01*
X169730812Y-104426570D01*
X169800357Y-104379924D01*
X169866301Y-104326768D01*
X169885502Y-104291798D01*
X169856938Y-104265466D01*
X169785360Y-104239977D01*
X169724326Y-104242480D01*
X169650334Y-104288177D01*
X169643863Y-104293544D01*
X169587526Y-104333474D01*
X169547750Y-104348217D01*
X169540726Y-104345796D01*
X169547552Y-104319283D01*
X169586922Y-104274853D01*
X169608938Y-104255574D01*
X169671147Y-104190672D01*
X169694502Y-104122347D01*
X169695662Y-104096701D01*
X169696244Y-104059894D01*
X169702961Y-104035515D01*
X169722913Y-104024328D01*
X169763202Y-104027094D01*
X169830931Y-104044578D01*
X169933200Y-104077542D01*
X170077112Y-104126749D01*
X170123211Y-104142637D01*
X170403948Y-104239373D01*
X170412169Y-104352107D01*
X170413883Y-104421071D01*
X170408454Y-104460924D01*
X170404626Y-104464842D01*
X170371973Y-104455427D01*
X170310698Y-104432072D01*
X170292876Y-104424737D01*
X170229198Y-104399110D01*
X170190480Y-104385369D01*
X170186788Y-104384631D01*
X170184429Y-104410264D01*
X170182680Y-104482748D01*
X170181575Y-104595468D01*
X170181146Y-104741804D01*
X170181426Y-104915138D01*
X170182449Y-105108853D01*
X170182880Y-105166684D01*
X170189075Y-105948737D01*
X170196714Y-105287691D01*
X170199256Y-105082715D01*
X170201946Y-104924722D01*
X170205376Y-104807223D01*
X170210137Y-104723728D01*
X170216821Y-104667749D01*
X170226018Y-104632797D01*
X170238320Y-104612381D01*
X170254318Y-104600014D01*
X170259650Y-104597051D01*
X170308873Y-104580374D01*
X170331901Y-104584409D01*
X170335978Y-104614271D01*
X170339750Y-104691234D01*
X170343094Y-104808927D01*
X170345883Y-104960979D01*
X170347993Y-105141016D01*
X170349299Y-105342667D01*
X170349663Y-105488944D01*
X170350474Y-106376526D01*
X170475666Y-106256210D01*
X170600857Y-106135894D01*
X170616734Y-105912634D01*
X170629355Y-105796754D01*
X170648460Y-105691273D01*
X170670361Y-105615630D01*
X170675068Y-105605160D01*
X170717525Y-105520947D01*
X170601294Y-105627894D01*
X170537295Y-105688589D01*
X170491269Y-105735619D01*
X170475699Y-105754894D01*
X170451822Y-105778081D01*
X170430152Y-105757258D01*
X170418011Y-105701645D01*
X170417316Y-105681368D01*
X170425447Y-105617530D01*
X170444756Y-105587485D01*
X170467613Y-105599026D01*
X170477153Y-105620248D01*
X170502750Y-105624025D01*
X170561520Y-105592627D01*
X170625384Y-105546721D01*
X170709506Y-105474042D01*
X170746242Y-105421946D01*
X170746376Y-105400631D01*
X170697630Y-105276806D01*
X170664813Y-105175681D01*
X170645626Y-105081607D01*
X170637774Y-104978935D01*
X170638960Y-104852015D01*
X170645396Y-104712659D01*
X170653826Y-104581983D01*
X170663584Y-104472994D01*
X170673584Y-104395508D01*
X170682739Y-104359338D01*
X170684644Y-104357894D01*
X170720371Y-104367392D01*
X170783669Y-104390953D01*
X170801735Y-104398359D01*
X170898579Y-104438823D01*
X170898579Y-104717885D01*
X170907443Y-104952858D01*
X170933938Y-105138907D01*
X170977916Y-105275613D01*
X171039231Y-105362556D01*
X171117735Y-105399318D01*
X171137995Y-105400631D01*
X171158654Y-105398316D01*
X171173327Y-105386172D01*
X171183036Y-105356400D01*
X171188804Y-105301204D01*
X171191651Y-105212786D01*
X171192601Y-105083346D01*
X171192684Y-104983312D01*
X171192684Y-104821333D01*
X171130298Y-104821333D01*
X171126628Y-104837228D01*
X171112474Y-104839158D01*
X171090466Y-104829375D01*
X171094649Y-104821333D01*
X171126380Y-104818133D01*
X171130298Y-104821333D01*
X171192684Y-104821333D01*
X171192684Y-104565992D01*
X171266061Y-104584409D01*
X171303803Y-104593827D01*
X171334359Y-104604724D01*
X171358431Y-104622360D01*
X171376722Y-104651997D01*
X171389935Y-104698895D01*
X171398771Y-104768316D01*
X171403933Y-104865520D01*
X171406124Y-104995770D01*
X171406046Y-105164325D01*
X171404402Y-105376448D01*
X171402208Y-105604146D01*
X171399636Y-105823458D01*
X171396347Y-106025656D01*
X171392512Y-106204558D01*
X171388304Y-106353983D01*
X171383892Y-106467748D01*
X171379449Y-106539671D01*
X171375643Y-106563450D01*
X171342565Y-106564358D01*
X171285218Y-106543217D01*
X171278130Y-106539654D01*
X171227739Y-106517054D01*
X171188969Y-106517036D01*
X171142267Y-106543974D01*
X171095172Y-106580584D01*
X171022126Y-106638090D01*
X170957956Y-106687244D01*
X170938684Y-106701487D01*
X170901807Y-106732533D01*
X170908060Y-106755722D01*
X170935475Y-106777706D01*
X170964420Y-106805740D01*
X170972976Y-106842089D01*
X170963071Y-106904369D01*
X170953622Y-106943488D01*
X170908280Y-107066444D01*
X170847228Y-107148523D01*
X170775950Y-107186537D01*
X170699929Y-107177297D01*
X170634723Y-107128897D01*
X170575014Y-107041017D01*
X170520435Y-106916861D01*
X170477394Y-106773613D01*
X170454029Y-106644369D01*
X170445780Y-106554940D01*
X170451315Y-106510294D01*
X170475697Y-106502455D01*
X170523989Y-106523447D01*
X170529071Y-106526152D01*
X170564856Y-106537487D01*
X170602723Y-106525546D01*
X170655347Y-106483974D01*
X170702140Y-106439357D01*
X170769457Y-106376730D01*
X170811082Y-106349139D01*
X170836683Y-106351511D01*
X170847112Y-106363257D01*
X170862370Y-106416897D01*
X170861439Y-106488218D01*
X170856936Y-106566544D01*
X170863315Y-106627544D01*
X170874197Y-106653583D01*
X170894617Y-106657173D01*
X170934508Y-106634630D01*
X171003802Y-106582269D01*
X171020249Y-106569326D01*
X171162963Y-106456737D01*
X171164455Y-106080806D01*
X171165948Y-105704875D01*
X171025862Y-105834337D01*
X170956677Y-105893847D01*
X170903892Y-105930948D01*
X170877757Y-105938569D01*
X170876875Y-105937097D01*
X170890649Y-105907471D01*
X170933657Y-105856915D01*
X170993456Y-105798007D01*
X171057606Y-105743323D01*
X171095365Y-105716243D01*
X171116944Y-105692181D01*
X171097401Y-105681052D01*
X171048153Y-105685828D01*
X171015176Y-105695379D01*
X170935445Y-105741606D01*
X170882450Y-105819046D01*
X170853313Y-105934205D01*
X170845105Y-106079862D01*
X170842134Y-106176383D01*
X170834265Y-106248045D01*
X170823071Y-106281866D01*
X170820535Y-106282947D01*
X170782349Y-106270657D01*
X170722503Y-106240751D01*
X170716907Y-106237574D01*
X170637848Y-106192200D01*
X170500845Y-106306905D01*
X170422068Y-106381261D01*
X170374342Y-106444231D01*
X170363842Y-106475969D01*
X170372407Y-106554087D01*
X170395025Y-106665286D01*
X170427078Y-106792539D01*
X170463950Y-106918816D01*
X170501026Y-107027090D01*
X170532597Y-107098421D01*
X170610876Y-107202317D01*
X170696240Y-107255809D01*
X170783269Y-107260483D01*
X170866545Y-107217927D01*
X170940648Y-107129727D01*
X171000160Y-106997470D01*
X171012039Y-106958014D01*
X171036600Y-106886620D01*
X171062690Y-106858065D01*
X171091012Y-106859463D01*
X171147436Y-106856464D01*
X171198353Y-106832765D01*
X171260304Y-106797030D01*
X171291336Y-106803101D01*
X171297401Y-106854058D01*
X171294776Y-106882651D01*
X171290165Y-106929551D01*
X171295005Y-106953044D01*
X171317008Y-106951196D01*
X171363885Y-106922076D01*
X171443348Y-106863751D01*
X171480105Y-106836215D01*
X171556891Y-106775536D01*
X171599174Y-106729452D01*
X171617011Y-106682997D01*
X171620474Y-106627314D01*
X171628048Y-106555928D01*
X171648440Y-106524216D01*
X171652558Y-106523579D01*
X171671113Y-106515596D01*
X171652734Y-106491671D01*
X171621811Y-106478949D01*
X171578856Y-106502130D01*
X171545661Y-106531776D01*
X171491300Y-106578150D01*
X171450923Y-106602690D01*
X171445221Y-106603852D01*
X171433963Y-106579051D01*
X171427894Y-106511834D01*
X171427855Y-106413084D01*
X171428668Y-106389957D01*
X171434336Y-106290615D01*
X171441690Y-106215799D01*
X171449381Y-106178157D01*
X171451464Y-106176000D01*
X171480785Y-106188053D01*
X171540947Y-106219000D01*
X171589835Y-106245869D01*
X171714129Y-106315738D01*
X171854743Y-106228328D01*
X171926778Y-106181940D01*
X171974957Y-106147798D01*
X171988389Y-106134275D01*
X171963185Y-106119036D01*
X171904027Y-106085632D01*
X171827348Y-106043287D01*
X171673275Y-105958942D01*
X171586717Y-106019393D01*
X171526236Y-106065045D01*
X171485932Y-106101638D01*
X171481559Y-106107095D01*
X171451141Y-106119006D01*
X171441482Y-106112868D01*
X171448139Y-106085508D01*
X171487624Y-106037040D01*
X171534021Y-105993326D01*
X171602133Y-105928932D01*
X171636368Y-105875805D01*
X171647299Y-105815488D01*
X171647625Y-105795000D01*
X171650711Y-105730512D01*
X171658882Y-105696368D01*
X171661428Y-105694737D01*
X171690116Y-105706715D01*
X171752702Y-105738331D01*
X171836421Y-105783103D01*
X171848586Y-105789769D01*
X172021526Y-105884801D01*
X172021526Y-105237641D01*
X171902596Y-105319467D01*
X171832856Y-105371229D01*
X171796340Y-105416357D01*
X171780770Y-105476305D01*
X171775596Y-105541331D01*
X171768757Y-105622848D01*
X171756072Y-105663479D01*
X171730934Y-105675804D01*
X171705586Y-105674683D01*
X171645188Y-105686106D01*
X171572961Y-105722809D01*
X171556009Y-105734841D01*
X171497252Y-105776693D01*
X171457017Y-105799976D01*
X171450845Y-105801684D01*
X171444193Y-105776639D01*
X171438700Y-105708268D01*
X171434901Y-105606712D01*
X171433330Y-105482115D01*
X171433316Y-105468758D01*
X171433316Y-105135832D01*
X171553632Y-105053052D01*
X171625444Y-104998644D01*
X171661569Y-104952954D01*
X171673419Y-104899376D01*
X171673948Y-104877978D01*
X171677272Y-104816599D01*
X171685430Y-104786349D01*
X171686995Y-104785684D01*
X171714663Y-104796904D01*
X171780200Y-104827424D01*
X171873696Y-104872534D01*
X171981100Y-104925464D01*
X172262158Y-105065243D01*
X172266923Y-106028358D01*
X172268503Y-106258314D01*
X172270731Y-106449424D01*
X172273533Y-106599245D01*
X172276833Y-106705336D01*
X172280555Y-106765255D01*
X172284622Y-106776560D01*
X172288916Y-106737473D01*
X172304441Y-106585039D01*
X172327505Y-106458973D01*
X172356016Y-106366974D01*
X172387883Y-106316742D01*
X172405097Y-106309684D01*
X172411385Y-106335585D01*
X172415436Y-106410034D01*
X172417221Y-106528153D01*
X172416709Y-106685062D01*
X172413872Y-106875881D01*
X172409608Y-107061198D01*
X172389851Y-107812712D01*
X172519847Y-107738741D01*
X172598880Y-107691699D01*
X172661769Y-107650602D01*
X172685198Y-107632705D01*
X172695251Y-107612120D01*
X172699192Y-107591474D01*
X172529526Y-107591474D01*
X172510118Y-107618701D01*
X172502790Y-107619789D01*
X172476748Y-107610667D01*
X172476053Y-107607999D01*
X172494788Y-107585172D01*
X172502790Y-107579684D01*
X172527427Y-107581804D01*
X172529526Y-107591474D01*
X172699192Y-107591474D01*
X172703843Y-107567118D01*
X172711204Y-107493291D01*
X172717561Y-107386225D01*
X172723144Y-107241510D01*
X172728182Y-107054736D01*
X172732904Y-106821489D01*
X172735621Y-106661057D01*
X172738642Y-106442945D01*
X172740497Y-106242750D01*
X172741200Y-106066508D01*
X172740768Y-105920257D01*
X172739214Y-105810032D01*
X172736554Y-105741870D01*
X172733275Y-105721473D01*
X172703612Y-105735206D01*
X172643336Y-105771052D01*
X172572465Y-105816683D01*
X172493560Y-105871972D01*
X172448961Y-105916044D01*
X172427128Y-105965206D01*
X172416521Y-106035766D01*
X172416369Y-106037262D01*
X172396428Y-106142400D01*
X172362748Y-106247178D01*
X172352966Y-106269579D01*
X172302263Y-106376526D01*
X172294605Y-106098991D01*
X172292522Y-105982892D01*
X172292934Y-105888191D01*
X172295664Y-105826638D01*
X172299000Y-105809404D01*
X172328793Y-105810956D01*
X172365732Y-105826615D01*
X172403839Y-105838019D01*
X172450147Y-105828094D01*
X172518178Y-105792473D01*
X172568548Y-105761118D01*
X172643850Y-105711459D01*
X172692318Y-105676912D01*
X172627562Y-105676912D01*
X172623891Y-105692807D01*
X172609737Y-105694737D01*
X172587730Y-105684954D01*
X172591912Y-105676912D01*
X172623643Y-105673712D01*
X172627562Y-105676912D01*
X172692318Y-105676912D01*
X172697183Y-105673445D01*
X172716684Y-105655704D01*
X172696458Y-105636202D01*
X172644312Y-105597140D01*
X172594422Y-105562537D01*
X172472159Y-105480023D01*
X172403658Y-105533906D01*
X172337582Y-105578486D01*
X172307309Y-105585131D01*
X172316405Y-105558570D01*
X172368436Y-105503529D01*
X172375790Y-105496948D01*
X172443265Y-105426314D01*
X172472581Y-105361844D01*
X172476053Y-105324271D01*
X172483640Y-105266313D01*
X172502040Y-105240315D01*
X172503408Y-105240210D01*
X172542895Y-105255537D01*
X172614783Y-105296952D01*
X172709352Y-105357603D01*
X172816876Y-105430643D01*
X172927634Y-105509220D01*
X173031902Y-105586484D01*
X173119957Y-105655586D01*
X173182076Y-105709676D01*
X173204222Y-105733935D01*
X173221721Y-105744382D01*
X173224275Y-105729923D01*
X173204391Y-105705574D01*
X173150716Y-105657001D01*
X173072595Y-105591583D01*
X172979373Y-105516701D01*
X172880393Y-105439734D01*
X172785000Y-105368061D01*
X172702540Y-105309062D01*
X172642356Y-105270116D01*
X172641161Y-105269431D01*
X172620067Y-105230766D01*
X172601015Y-105141973D01*
X172596222Y-105102163D01*
X172550772Y-105102163D01*
X172550014Y-105156597D01*
X172538364Y-105181120D01*
X172513842Y-105187288D01*
X172511602Y-105187331D01*
X172456310Y-105203619D01*
X172395842Y-105240210D01*
X172336190Y-105281607D01*
X172303935Y-105283482D01*
X172290927Y-105240871D01*
X172288895Y-105175079D01*
X172284528Y-105098002D01*
X172262615Y-105051380D01*
X172209937Y-105012368D01*
X172187191Y-104999313D01*
X172085486Y-104942152D01*
X172077031Y-104801847D01*
X172021961Y-104801847D01*
X172015821Y-104869762D01*
X172003436Y-104892631D01*
X171967949Y-104880685D01*
X171901084Y-104849538D01*
X171826603Y-104810876D01*
X171675658Y-104729120D01*
X171575017Y-104797507D01*
X171510001Y-104838688D01*
X171463003Y-104863054D01*
X171452633Y-104865894D01*
X171441903Y-104842385D01*
X171441033Y-104783437D01*
X171443452Y-104756545D01*
X171447364Y-104683526D01*
X171430921Y-104640895D01*
X171384782Y-104606711D01*
X171377992Y-104602808D01*
X171347260Y-104584794D01*
X171325071Y-104565705D01*
X171310939Y-104537950D01*
X171304378Y-104493936D01*
X171304902Y-104426073D01*
X171312024Y-104326771D01*
X171325260Y-104188437D01*
X171341350Y-104030612D01*
X171362248Y-103836303D01*
X171381334Y-103687041D01*
X171400562Y-103574532D01*
X171421884Y-103490481D01*
X171447254Y-103426595D01*
X171478625Y-103374579D01*
X171503238Y-103343110D01*
X171580296Y-103280578D01*
X171659441Y-103267929D01*
X171736118Y-103301986D01*
X171805769Y-103379572D01*
X171863838Y-103497510D01*
X171898932Y-103618964D01*
X171924767Y-103752463D01*
X171948960Y-103906467D01*
X171970838Y-104072775D01*
X171989729Y-104243187D01*
X172004959Y-104409500D01*
X172015857Y-104563516D01*
X172021748Y-104697032D01*
X172021961Y-104801847D01*
X172077031Y-104801847D01*
X172053781Y-104416076D01*
X172031991Y-104121820D01*
X172004967Y-103878220D01*
X171972288Y-103682672D01*
X171933534Y-103532575D01*
X171895957Y-103439673D01*
X171872211Y-103375574D01*
X171878317Y-103346474D01*
X171908502Y-103358541D01*
X171939586Y-103393075D01*
X171976544Y-103430579D01*
X171999761Y-103433565D01*
X172000218Y-103432781D01*
X172006990Y-103429492D01*
X172004712Y-103441905D01*
X172014286Y-103478169D01*
X172046689Y-103547389D01*
X172095971Y-103637449D01*
X172123588Y-103684051D01*
X172295021Y-104016879D01*
X172424989Y-104381657D01*
X172512565Y-104775464D01*
X172542616Y-105006263D01*
X172550772Y-105102163D01*
X172596222Y-105102163D01*
X172584689Y-105006380D01*
X172582675Y-104984030D01*
X172569858Y-104855390D01*
X172554874Y-104733242D01*
X172540150Y-104636445D01*
X172533841Y-104604322D01*
X172508074Y-104489801D01*
X172639116Y-104423398D01*
X172711215Y-104384642D01*
X172758811Y-104354801D01*
X172770158Y-104343625D01*
X172748741Y-104347243D01*
X172693361Y-104370452D01*
X172636474Y-104398000D01*
X172552729Y-104436988D01*
X172510488Y-104449413D01*
X172506991Y-104438714D01*
X172539480Y-104408335D01*
X172605198Y-104361717D01*
X172701386Y-104302303D01*
X172723369Y-104289570D01*
X172765699Y-104264316D01*
X172476053Y-104264316D01*
X172462684Y-104277684D01*
X172449316Y-104264316D01*
X172462684Y-104250947D01*
X172476053Y-104264316D01*
X172765699Y-104264316D01*
X172923881Y-104169946D01*
X173081772Y-104065667D01*
X173195023Y-103978206D01*
X173261618Y-103909036D01*
X173274445Y-103887473D01*
X173302252Y-103770525D01*
X173291154Y-103624318D01*
X173249680Y-103470411D01*
X173218582Y-103386492D01*
X173177505Y-103286530D01*
X173133122Y-103185526D01*
X173092110Y-103098483D01*
X173061143Y-103040402D01*
X173053188Y-103028790D01*
X173033326Y-103043587D01*
X172983625Y-103087971D01*
X172912569Y-103154235D01*
X172861463Y-103202972D01*
X172749202Y-103304880D01*
X172629072Y-103403830D01*
X172508797Y-103494580D01*
X172396102Y-103571887D01*
X172298712Y-103630510D01*
X172224351Y-103665206D01*
X172180744Y-103670733D01*
X172176390Y-103667873D01*
X172172207Y-103646187D01*
X172191900Y-103607492D01*
X172239324Y-103546819D01*
X172318330Y-103459203D01*
X172424018Y-103348681D01*
X172574572Y-103192404D01*
X172690365Y-103068684D01*
X172775003Y-102972831D01*
X172832094Y-102900155D01*
X172865245Y-102845965D01*
X172878061Y-102805573D01*
X172874151Y-102774288D01*
X172871037Y-102767443D01*
X172803496Y-102664080D01*
X172700005Y-102539169D01*
X172683766Y-102521965D01*
X171397667Y-102521965D01*
X171393997Y-102537860D01*
X171379842Y-102539789D01*
X171357835Y-102530007D01*
X171362018Y-102521965D01*
X171393748Y-102518765D01*
X171397667Y-102521965D01*
X172683766Y-102521965D01*
X172569232Y-102400629D01*
X172481111Y-102315538D01*
X172333178Y-102315538D01*
X172329000Y-102325894D01*
X172304974Y-102351401D01*
X172300685Y-102352631D01*
X172289201Y-102331945D01*
X172288895Y-102325894D01*
X172309449Y-102300185D01*
X172317210Y-102299158D01*
X172333178Y-102315538D01*
X172481111Y-102315538D01*
X172419847Y-102256381D01*
X172260520Y-102114345D01*
X172099921Y-101982442D01*
X171946719Y-101868592D01*
X171809585Y-101780716D01*
X171763888Y-101755983D01*
X171629173Y-101687717D01*
X171414649Y-101906543D01*
X171311014Y-102017210D01*
X171206284Y-102137369D01*
X171115663Y-102249213D01*
X171073742Y-102305842D01*
X171012599Y-102389090D01*
X170960957Y-102452026D01*
X170927573Y-102484213D01*
X170922282Y-102486316D01*
X170916070Y-102465963D01*
X170937930Y-102409237D01*
X170983971Y-102322631D01*
X171050303Y-102212643D01*
X171133036Y-102085767D01*
X171228278Y-101948499D01*
X171245607Y-101924842D01*
X171192684Y-101924842D01*
X171182902Y-101946849D01*
X171174860Y-101942666D01*
X171171660Y-101910936D01*
X171174860Y-101907017D01*
X171190755Y-101910687D01*
X171192684Y-101924842D01*
X171245607Y-101924842D01*
X171316748Y-101827725D01*
X171380424Y-101741462D01*
X171429565Y-101671979D01*
X171456853Y-101629760D01*
X171460053Y-101622438D01*
X171436023Y-101611340D01*
X171374205Y-101598319D01*
X171318015Y-101590101D01*
X171191674Y-101584666D01*
X171089752Y-101608144D01*
X171000621Y-101666821D01*
X170912653Y-101766984D01*
X170865284Y-101834870D01*
X170794572Y-101946933D01*
X170724544Y-102066771D01*
X170669965Y-102169085D01*
X170668458Y-102172158D01*
X170617709Y-102266623D01*
X170579780Y-102317608D01*
X170556922Y-102322806D01*
X170551000Y-102292470D01*
X170564624Y-102248686D01*
X170601190Y-102171369D01*
X170654246Y-102071651D01*
X170717336Y-101960667D01*
X170784005Y-101849549D01*
X170847799Y-101749432D01*
X170902263Y-101671450D01*
X170931926Y-101635417D01*
X170978388Y-101583639D01*
X170987306Y-101564412D01*
X170960393Y-101573977D01*
G36*
X166620684Y-108309445D02*
X166641813Y-108342811D01*
X166654105Y-108349157D01*
X166665782Y-108371803D01*
X166634215Y-108419028D01*
X166627369Y-108426634D01*
X166585491Y-108487420D01*
X166568052Y-108542975D01*
X166568058Y-108543933D01*
X166572927Y-108572621D01*
X166591598Y-108562540D01*
X166623761Y-108522158D01*
X166671326Y-108472082D01*
X166713519Y-108448835D01*
X166716493Y-108448631D01*
X166750699Y-108462915D01*
X166743627Y-108497979D01*
X166707579Y-108534272D01*
X166652523Y-108583639D01*
X166616499Y-108622683D01*
X166588174Y-108667607D01*
X166598905Y-108699663D01*
X166607411Y-108708124D01*
X166639818Y-108725496D01*
X166657547Y-108701440D01*
X166656736Y-108667785D01*
X166645004Y-108662526D01*
X166630339Y-108645862D01*
X166635179Y-108633966D01*
X166671667Y-108614916D01*
X166683687Y-108617248D01*
X166726658Y-108610808D01*
X166741141Y-108599018D01*
X166768625Y-108543323D01*
X166771855Y-108481588D01*
X166750874Y-108437432D01*
X166740844Y-108431503D01*
X166705441Y-108399637D01*
X166700895Y-108382202D01*
X166682154Y-108337934D01*
X166660790Y-108314947D01*
X166627819Y-108298350D01*
X166620684Y-108309445D01*
X166620684Y-108309445D01*
G37*
X166620684Y-108309445D02*
X166641813Y-108342811D01*
X166654105Y-108349157D01*
X166665782Y-108371803D01*
X166634215Y-108419028D01*
X166627369Y-108426634D01*
X166585491Y-108487420D01*
X166568052Y-108542975D01*
X166568058Y-108543933D01*
X166572927Y-108572621D01*
X166591598Y-108562540D01*
X166623761Y-108522158D01*
X166671326Y-108472082D01*
X166713519Y-108448835D01*
X166716493Y-108448631D01*
X166750699Y-108462915D01*
X166743627Y-108497979D01*
X166707579Y-108534272D01*
X166652523Y-108583639D01*
X166616499Y-108622683D01*
X166588174Y-108667607D01*
X166598905Y-108699663D01*
X166607411Y-108708124D01*
X166639818Y-108725496D01*
X166657547Y-108701440D01*
X166656736Y-108667785D01*
X166645004Y-108662526D01*
X166630339Y-108645862D01*
X166635179Y-108633966D01*
X166671667Y-108614916D01*
X166683687Y-108617248D01*
X166726658Y-108610808D01*
X166741141Y-108599018D01*
X166768625Y-108543323D01*
X166771855Y-108481588D01*
X166750874Y-108437432D01*
X166740844Y-108431503D01*
X166705441Y-108399637D01*
X166700895Y-108382202D01*
X166682154Y-108337934D01*
X166660790Y-108314947D01*
X166627819Y-108298350D01*
X166620684Y-108309445D01*
G36*
X166473821Y-108716306D02*
X166502418Y-108738470D01*
X166533064Y-108742189D01*
X166540474Y-108732229D01*
X166519501Y-108715057D01*
X166498980Y-108705798D01*
X166471380Y-108703929D01*
X166473821Y-108716306D01*
X166473821Y-108716306D01*
G37*
X166473821Y-108716306D02*
X166502418Y-108738470D01*
X166533064Y-108742189D01*
X166540474Y-108732229D01*
X166519501Y-108715057D01*
X166498980Y-108705798D01*
X166471380Y-108703929D01*
X166473821Y-108716306D01*
G36*
X166349553Y-108105090D02*
X166303746Y-108143791D01*
X166233000Y-108219860D01*
X166306421Y-108155895D01*
X166365729Y-108113298D01*
X166395340Y-108108816D01*
X166393601Y-108135033D01*
X166358860Y-108184533D01*
X166321273Y-108222520D01*
X166239931Y-108306339D01*
X166185443Y-108381550D01*
X166166158Y-108435584D01*
X166180543Y-108426227D01*
X166217627Y-108383992D01*
X166253053Y-108339177D01*
X166308074Y-108273003D01*
X166354676Y-108226840D01*
X166373369Y-108214555D01*
X166402896Y-108218768D01*
X166404334Y-108250802D01*
X166381367Y-108295465D01*
X166344768Y-108332497D01*
X166282747Y-108379279D01*
X166351453Y-108439004D01*
X166395970Y-108484604D01*
X166402430Y-108520965D01*
X166386737Y-108553528D01*
X166360109Y-108612646D01*
X166353316Y-108647217D01*
X166367672Y-108690792D01*
X166397972Y-108705441D01*
X166419889Y-108689699D01*
X166418179Y-108664749D01*
X166408368Y-108662526D01*
X166382701Y-108644378D01*
X166386530Y-108603030D01*
X166417352Y-108558128D01*
X166422196Y-108553887D01*
X166460589Y-108532774D01*
X166489116Y-108554903D01*
X166490789Y-108557298D01*
X166507794Y-108575770D01*
X166503796Y-108547605D01*
X166501652Y-108539727D01*
X166508150Y-108470625D01*
X166541946Y-108412727D01*
X166569655Y-108368421D01*
X166433526Y-108368421D01*
X166413180Y-108394381D01*
X166406790Y-108395158D01*
X166380830Y-108374812D01*
X166380053Y-108368421D01*
X166400399Y-108342461D01*
X166406790Y-108341684D01*
X166432750Y-108362030D01*
X166433526Y-108368421D01*
X166569655Y-108368421D01*
X166572324Y-108364154D01*
X166569279Y-108342077D01*
X166565877Y-108341684D01*
X166549416Y-108330159D01*
X166569812Y-108294894D01*
X166576934Y-108279151D01*
X166550594Y-108297400D01*
X166536994Y-108309154D01*
X166487317Y-108347533D01*
X166456503Y-108350066D01*
X166436241Y-108331586D01*
X166418805Y-108292560D01*
X166433526Y-108274842D01*
X166448397Y-108245992D01*
X166434364Y-108222377D01*
X166417532Y-108170037D01*
X166421520Y-108147251D01*
X166425195Y-108101689D01*
X166397237Y-108087519D01*
X166349553Y-108105090D01*
X166349553Y-108105090D01*
G37*
X166349553Y-108105090D02*
X166303746Y-108143791D01*
X166233000Y-108219860D01*
X166306421Y-108155895D01*
X166365729Y-108113298D01*
X166395340Y-108108816D01*
X166393601Y-108135033D01*
X166358860Y-108184533D01*
X166321273Y-108222520D01*
X166239931Y-108306339D01*
X166185443Y-108381550D01*
X166166158Y-108435584D01*
X166180543Y-108426227D01*
X166217627Y-108383992D01*
X166253053Y-108339177D01*
X166308074Y-108273003D01*
X166354676Y-108226840D01*
X166373369Y-108214555D01*
X166402896Y-108218768D01*
X166404334Y-108250802D01*
X166381367Y-108295465D01*
X166344768Y-108332497D01*
X166282747Y-108379279D01*
X166351453Y-108439004D01*
X166395970Y-108484604D01*
X166402430Y-108520965D01*
X166386737Y-108553528D01*
X166360109Y-108612646D01*
X166353316Y-108647217D01*
X166367672Y-108690792D01*
X166397972Y-108705441D01*
X166419889Y-108689699D01*
X166418179Y-108664749D01*
X166408368Y-108662526D01*
X166382701Y-108644378D01*
X166386530Y-108603030D01*
X166417352Y-108558128D01*
X166422196Y-108553887D01*
X166460589Y-108532774D01*
X166489116Y-108554903D01*
X166490789Y-108557298D01*
X166507794Y-108575770D01*
X166503796Y-108547605D01*
X166501652Y-108539727D01*
X166508150Y-108470625D01*
X166541946Y-108412727D01*
X166569655Y-108368421D01*
X166433526Y-108368421D01*
X166413180Y-108394381D01*
X166406790Y-108395158D01*
X166380830Y-108374812D01*
X166380053Y-108368421D01*
X166400399Y-108342461D01*
X166406790Y-108341684D01*
X166432750Y-108362030D01*
X166433526Y-108368421D01*
X166569655Y-108368421D01*
X166572324Y-108364154D01*
X166569279Y-108342077D01*
X166565877Y-108341684D01*
X166549416Y-108330159D01*
X166569812Y-108294894D01*
X166576934Y-108279151D01*
X166550594Y-108297400D01*
X166536994Y-108309154D01*
X166487317Y-108347533D01*
X166456503Y-108350066D01*
X166436241Y-108331586D01*
X166418805Y-108292560D01*
X166433526Y-108274842D01*
X166448397Y-108245992D01*
X166434364Y-108222377D01*
X166417532Y-108170037D01*
X166421520Y-108147251D01*
X166425195Y-108101689D01*
X166397237Y-108087519D01*
X166349553Y-108105090D01*
G36*
X166469176Y-108617965D02*
X166472846Y-108633860D01*
X166487000Y-108635789D01*
X166509008Y-108626007D01*
X166504825Y-108617965D01*
X166473094Y-108614765D01*
X166469176Y-108617965D01*
X166469176Y-108617965D01*
G37*
X166469176Y-108617965D02*
X166472846Y-108633860D01*
X166487000Y-108635789D01*
X166509008Y-108626007D01*
X166504825Y-108617965D01*
X166473094Y-108614765D01*
X166469176Y-108617965D01*
G36*
X166207294Y-108504239D02*
X166198976Y-108542813D01*
X166204508Y-108604137D01*
X166235516Y-108618458D01*
X166286769Y-108590548D01*
X166322169Y-108561830D01*
X166311704Y-108559040D01*
X166275745Y-108569267D01*
X166230605Y-108577358D01*
X166223878Y-108557903D01*
X166227788Y-108546152D01*
X166231943Y-108503556D01*
X166224136Y-108491520D01*
X166207294Y-108504239D01*
X166207294Y-108504239D01*
G37*
X166207294Y-108504239D02*
X166198976Y-108542813D01*
X166204508Y-108604137D01*
X166235516Y-108618458D01*
X166286769Y-108590548D01*
X166322169Y-108561830D01*
X166311704Y-108559040D01*
X166275745Y-108569267D01*
X166230605Y-108577358D01*
X166223878Y-108557903D01*
X166227788Y-108546152D01*
X166231943Y-108503556D01*
X166224136Y-108491520D01*
X166207294Y-108504239D01*
G36*
X166255454Y-108465105D02*
X166259737Y-108475368D01*
X166295156Y-108501107D01*
X166302998Y-108502105D01*
X166317494Y-108485632D01*
X166313211Y-108475368D01*
X166277792Y-108449629D01*
X166269950Y-108448631D01*
X166255454Y-108465105D01*
X166255454Y-108465105D01*
G37*
X166255454Y-108465105D02*
X166259737Y-108475368D01*
X166295156Y-108501107D01*
X166302998Y-108502105D01*
X166317494Y-108485632D01*
X166313211Y-108475368D01*
X166277792Y-108449629D01*
X166269950Y-108448631D01*
X166255454Y-108465105D01*
G36*
X166086254Y-108442581D02*
X166085948Y-108448631D01*
X166106502Y-108474341D01*
X166114262Y-108475368D01*
X166130231Y-108458988D01*
X166126053Y-108448631D01*
X166102027Y-108423125D01*
X166097738Y-108421894D01*
X166086254Y-108442581D01*
X166086254Y-108442581D01*
G37*
X166086254Y-108442581D02*
X166085948Y-108448631D01*
X166106502Y-108474341D01*
X166114262Y-108475368D01*
X166130231Y-108458988D01*
X166126053Y-108448631D01*
X166102027Y-108423125D01*
X166097738Y-108421894D01*
X166086254Y-108442581D01*
G36*
X166145734Y-108221970D02*
X166139469Y-108227755D01*
X166098153Y-108272805D01*
X166095798Y-108303353D01*
X166110962Y-108321334D01*
X166135945Y-108341489D01*
X166128799Y-108322508D01*
X166127356Y-108319947D01*
X166128163Y-108274336D01*
X166155862Y-108226368D01*
X166186242Y-108188977D01*
X166183887Y-108187425D01*
X166145734Y-108221970D01*
X166145734Y-108221970D01*
G37*
X166145734Y-108221970D02*
X166139469Y-108227755D01*
X166098153Y-108272805D01*
X166095798Y-108303353D01*
X166110962Y-108321334D01*
X166135945Y-108341489D01*
X166128799Y-108322508D01*
X166127356Y-108319947D01*
X166128163Y-108274336D01*
X166155862Y-108226368D01*
X166186242Y-108188977D01*
X166183887Y-108187425D01*
X166145734Y-108221970D01*
G36*
X166006898Y-108283306D02*
X166005737Y-108301579D01*
X166019729Y-108337166D01*
X166031635Y-108341684D01*
X166046346Y-108322086D01*
X166042143Y-108301579D01*
X166023165Y-108266399D01*
X166016245Y-108261473D01*
X166006898Y-108283306D01*
X166006898Y-108283306D01*
G37*
X166006898Y-108283306D02*
X166005737Y-108301579D01*
X166019729Y-108337166D01*
X166031635Y-108341684D01*
X166046346Y-108322086D01*
X166042143Y-108301579D01*
X166023165Y-108266399D01*
X166016245Y-108261473D01*
X166006898Y-108283306D01*
G36*
X166526398Y-108186427D02*
X166534422Y-108206315D01*
X166559373Y-108219649D01*
X166590610Y-108227789D01*
X166577795Y-108208203D01*
X166574341Y-108204682D01*
X166539285Y-108183563D01*
X166526398Y-108186427D01*
X166526398Y-108186427D01*
G37*
X166526398Y-108186427D02*
X166534422Y-108206315D01*
X166559373Y-108219649D01*
X166590610Y-108227789D01*
X166577795Y-108208203D01*
X166574341Y-108204682D01*
X166539285Y-108183563D01*
X166526398Y-108186427D01*
G36*
X166116815Y-108138604D02*
X166088338Y-108163459D01*
X166085948Y-108169472D01*
X166098636Y-108180462D01*
X166125054Y-108155838D01*
X166128606Y-108150395D01*
X166131757Y-108132099D01*
X166116815Y-108138604D01*
X166116815Y-108138604D01*
G37*
X166116815Y-108138604D02*
X166088338Y-108163459D01*
X166085948Y-108169472D01*
X166098636Y-108180462D01*
X166125054Y-108155838D01*
X166128606Y-108150395D01*
X166131757Y-108132099D01*
X166116815Y-108138604D01*
G36*
X166226337Y-108030972D02*
X166244649Y-108045950D01*
X166269092Y-108072780D01*
X166250498Y-108109414D01*
X166248060Y-108112383D01*
X166225484Y-108146017D01*
X166226453Y-108154526D01*
X166252463Y-108136702D01*
X166272133Y-108115592D01*
X166290164Y-108066251D01*
X166268680Y-108029090D01*
X166238106Y-108021251D01*
X166226337Y-108030972D01*
X166226337Y-108030972D01*
G37*
X166226337Y-108030972D02*
X166244649Y-108045950D01*
X166269092Y-108072780D01*
X166250498Y-108109414D01*
X166248060Y-108112383D01*
X166225484Y-108146017D01*
X166226453Y-108154526D01*
X166252463Y-108136702D01*
X166272133Y-108115592D01*
X166290164Y-108066251D01*
X166268680Y-108029090D01*
X166238106Y-108021251D01*
X166226337Y-108030972D01*
G36*
X166166158Y-108087684D02*
X166179526Y-108101052D01*
X166192895Y-108087684D01*
X166179526Y-108074316D01*
X166166158Y-108087684D01*
X166166158Y-108087684D01*
G37*
X166166158Y-108087684D02*
X166179526Y-108101052D01*
X166192895Y-108087684D01*
X166179526Y-108074316D01*
X166166158Y-108087684D01*
G36*
X173204951Y-105902574D02*
X173195110Y-106043570D01*
X172965590Y-105855496D01*
X172948084Y-106220502D01*
X172942740Y-106361231D01*
X172938054Y-106540616D01*
X172934292Y-106743839D01*
X172931720Y-106956083D01*
X172930605Y-107162531D01*
X172930579Y-107196227D01*
X172929527Y-107386923D01*
X172926528Y-107548813D01*
X172921814Y-107676176D01*
X172915619Y-107763287D01*
X172908178Y-107804424D01*
X172905663Y-107806947D01*
X172875010Y-107787136D01*
X172832192Y-107738495D01*
X172825196Y-107728934D01*
X172769646Y-107650920D01*
X172581435Y-107759886D01*
X172393223Y-107868853D01*
X172493538Y-107971584D01*
X172551842Y-108028201D01*
X172594663Y-108064105D01*
X172608479Y-108071131D01*
X172637503Y-108057566D01*
X172700155Y-108024856D01*
X172783335Y-107979853D01*
X172790211Y-107976077D01*
X172957316Y-107884208D01*
X172959249Y-107598262D01*
X172961102Y-107447212D01*
X172964420Y-107285272D01*
X172968621Y-107138735D01*
X172970634Y-107085052D01*
X172974927Y-106956782D01*
X172978657Y-106799807D01*
X172981287Y-106638897D01*
X172982069Y-106557847D01*
X172984053Y-106257905D01*
X173222599Y-106082421D01*
X173214793Y-105761579D01*
X173204951Y-105902574D01*
X173204951Y-105902574D01*
G37*
X173204951Y-105902574D02*
X173195110Y-106043570D01*
X172965590Y-105855496D01*
X172948084Y-106220502D01*
X172942740Y-106361231D01*
X172938054Y-106540616D01*
X172934292Y-106743839D01*
X172931720Y-106956083D01*
X172930605Y-107162531D01*
X172930579Y-107196227D01*
X172929527Y-107386923D01*
X172926528Y-107548813D01*
X172921814Y-107676176D01*
X172915619Y-107763287D01*
X172908178Y-107804424D01*
X172905663Y-107806947D01*
X172875010Y-107787136D01*
X172832192Y-107738495D01*
X172825196Y-107728934D01*
X172769646Y-107650920D01*
X172581435Y-107759886D01*
X172393223Y-107868853D01*
X172493538Y-107971584D01*
X172551842Y-108028201D01*
X172594663Y-108064105D01*
X172608479Y-108071131D01*
X172637503Y-108057566D01*
X172700155Y-108024856D01*
X172783335Y-107979853D01*
X172790211Y-107976077D01*
X172957316Y-107884208D01*
X172959249Y-107598262D01*
X172961102Y-107447212D01*
X172964420Y-107285272D01*
X172968621Y-107138735D01*
X172970634Y-107085052D01*
X172974927Y-106956782D01*
X172978657Y-106799807D01*
X172981287Y-106638897D01*
X172982069Y-106557847D01*
X172984053Y-106257905D01*
X173222599Y-106082421D01*
X173214793Y-105761579D01*
X173204951Y-105902574D01*
G36*
X172262158Y-107098421D02*
X172275526Y-107111789D01*
X172288895Y-107098421D01*
X172275526Y-107085052D01*
X172262158Y-107098421D01*
X172262158Y-107098421D01*
G37*
X172262158Y-107098421D02*
X172275526Y-107111789D01*
X172288895Y-107098421D01*
X172275526Y-107085052D01*
X172262158Y-107098421D01*
G36*
X172271070Y-107013754D02*
X172267870Y-107045484D01*
X172271070Y-107049403D01*
X172286965Y-107045733D01*
X172288895Y-107031579D01*
X172279112Y-107009571D01*
X172271070Y-107013754D01*
X172271070Y-107013754D01*
G37*
X172271070Y-107013754D02*
X172267870Y-107045484D01*
X172271070Y-107049403D01*
X172286965Y-107045733D01*
X172288895Y-107031579D01*
X172279112Y-107009571D01*
X172271070Y-107013754D01*
G36*
X171863969Y-106283726D02*
X171785501Y-106337280D01*
X171743260Y-106384178D01*
X171724733Y-106439754D01*
X171722276Y-106457346D01*
X171720455Y-106517347D01*
X171739717Y-106559786D01*
X171790909Y-106603076D01*
X171819676Y-106622704D01*
X171890750Y-106670565D01*
X171946246Y-106708713D01*
X171961369Y-106719479D01*
X171976951Y-106719731D01*
X171987085Y-106688578D01*
X171992702Y-106619172D01*
X171994732Y-106504664D01*
X171994790Y-106473626D01*
X171994790Y-106203231D01*
X171863969Y-106283726D01*
X171863969Y-106283726D01*
G37*
X171863969Y-106283726D02*
X171785501Y-106337280D01*
X171743260Y-106384178D01*
X171724733Y-106439754D01*
X171722276Y-106457346D01*
X171720455Y-106517347D01*
X171739717Y-106559786D01*
X171790909Y-106603076D01*
X171819676Y-106622704D01*
X171890750Y-106670565D01*
X171946246Y-106708713D01*
X171961369Y-106719479D01*
X171976951Y-106719731D01*
X171987085Y-106688578D01*
X171992702Y-106619172D01*
X171994732Y-106504664D01*
X171994790Y-106473626D01*
X171994790Y-106203231D01*
X171863969Y-106283726D01*
G36*
X169986880Y-105918796D02*
X169946477Y-105943003D01*
X169888389Y-105997190D01*
X169862813Y-106022680D01*
X169740469Y-106145024D01*
X169841526Y-106187249D01*
X169905444Y-106213541D01*
X169943268Y-106228306D01*
X169947120Y-106229473D01*
X169966599Y-106212021D01*
X170012908Y-106166506D01*
X170069187Y-106109718D01*
X170128227Y-106046484D01*
X170166261Y-105999705D01*
X170175017Y-105980648D01*
X170144638Y-105965453D01*
X170085276Y-105940269D01*
X170074237Y-105935834D01*
X170024499Y-105918447D01*
X169986880Y-105918796D01*
X169986880Y-105918796D01*
G37*
X169986880Y-105918796D02*
X169946477Y-105943003D01*
X169888389Y-105997190D01*
X169862813Y-106022680D01*
X169740469Y-106145024D01*
X169841526Y-106187249D01*
X169905444Y-106213541D01*
X169943268Y-106228306D01*
X169947120Y-106229473D01*
X169966599Y-106212021D01*
X170012908Y-106166506D01*
X170069187Y-106109718D01*
X170128227Y-106046484D01*
X170166261Y-105999705D01*
X170175017Y-105980648D01*
X170144638Y-105965453D01*
X170085276Y-105940269D01*
X170074237Y-105935834D01*
X170024499Y-105918447D01*
X169986880Y-105918796D01*
G36*
X169875510Y-104378172D02*
X169841212Y-104405416D01*
X169797707Y-104443234D01*
X169797435Y-104443467D01*
X169725660Y-104504947D01*
X169717155Y-105300368D01*
X169715019Y-105500358D01*
X169713084Y-105681846D01*
X169711419Y-105838280D01*
X169710095Y-105963112D01*
X169709181Y-106049791D01*
X169708746Y-106091767D01*
X169708720Y-106094693D01*
X169726749Y-106077822D01*
X169773317Y-106035312D01*
X169821620Y-105991508D01*
X169934450Y-105889420D01*
X169941936Y-105112905D01*
X169944248Y-104883954D01*
X169945585Y-104703710D01*
X169944918Y-104567407D01*
X169941218Y-104470278D01*
X169933456Y-104407556D01*
X169920604Y-104374476D01*
X169901631Y-104366270D01*
X169875510Y-104378172D01*
X169875510Y-104378172D01*
G37*
X169875510Y-104378172D02*
X169841212Y-104405416D01*
X169797707Y-104443234D01*
X169797435Y-104443467D01*
X169725660Y-104504947D01*
X169717155Y-105300368D01*
X169715019Y-105500358D01*
X169713084Y-105681846D01*
X169711419Y-105838280D01*
X169710095Y-105963112D01*
X169709181Y-106049791D01*
X169708746Y-106091767D01*
X169708720Y-106094693D01*
X169726749Y-106077822D01*
X169773317Y-106035312D01*
X169821620Y-105991508D01*
X169934450Y-105889420D01*
X169941936Y-105112905D01*
X169944248Y-104883954D01*
X169945585Y-104703710D01*
X169944918Y-104567407D01*
X169941218Y-104470278D01*
X169933456Y-104407556D01*
X169920604Y-104374476D01*
X169901631Y-104366270D01*
X169875510Y-104378172D01*
G36*
X170769026Y-105491657D02*
X170740323Y-105518578D01*
X170746211Y-105534055D01*
X170749949Y-105534316D01*
X170772563Y-105515325D01*
X170780816Y-105503448D01*
X170783968Y-105485152D01*
X170769026Y-105491657D01*
X170769026Y-105491657D01*
G37*
X170769026Y-105491657D02*
X170740323Y-105518578D01*
X170746211Y-105534055D01*
X170749949Y-105534316D01*
X170772563Y-105515325D01*
X170780816Y-105503448D01*
X170783968Y-105485152D01*
X170769026Y-105491657D01*
G36*
X171659474Y-105042509D02*
X171605976Y-105078503D01*
X171549693Y-105123495D01*
X171505237Y-105165593D01*
X171487218Y-105192907D01*
X171488463Y-105195953D01*
X171536408Y-105230551D01*
X171605553Y-105272344D01*
X171678205Y-105311622D01*
X171736670Y-105338676D01*
X171760311Y-105345124D01*
X171801307Y-105329181D01*
X171864846Y-105291384D01*
X171893529Y-105271598D01*
X171952967Y-105226003D01*
X171988971Y-105193024D01*
X171993792Y-105185380D01*
X171972269Y-105162772D01*
X171917398Y-105132186D01*
X171847003Y-105101172D01*
X171778906Y-105077280D01*
X171730928Y-105068058D01*
X171721546Y-105070052D01*
X171705118Y-105071456D01*
X171711500Y-105057183D01*
X171710086Y-105030461D01*
X171695578Y-105027402D01*
X171659474Y-105042509D01*
X171659474Y-105042509D01*
G37*
X171659474Y-105042509D02*
X171605976Y-105078503D01*
X171549693Y-105123495D01*
X171505237Y-105165593D01*
X171487218Y-105192907D01*
X171488463Y-105195953D01*
X171536408Y-105230551D01*
X171605553Y-105272344D01*
X171678205Y-105311622D01*
X171736670Y-105338676D01*
X171760311Y-105345124D01*
X171801307Y-105329181D01*
X171864846Y-105291384D01*
X171893529Y-105271598D01*
X171952967Y-105226003D01*
X171988971Y-105193024D01*
X171993792Y-105185380D01*
X171972269Y-105162772D01*
X171917398Y-105132186D01*
X171847003Y-105101172D01*
X171778906Y-105077280D01*
X171730928Y-105068058D01*
X171721546Y-105070052D01*
X171705118Y-105071456D01*
X171711500Y-105057183D01*
X171710086Y-105030461D01*
X171695578Y-105027402D01*
X171659474Y-105042509D01*
G36*
X168182614Y-103802265D02*
X168149321Y-103824714D01*
X168128967Y-103871140D01*
X168119749Y-103948917D01*
X168119864Y-104065418D01*
X168127057Y-104220092D01*
X168134440Y-104376470D01*
X168140239Y-104549246D01*
X168143547Y-104709293D01*
X168143968Y-104762513D01*
X168145531Y-104883784D01*
X168150586Y-104961706D01*
X168160903Y-105006378D01*
X168178252Y-105027896D01*
X168191474Y-105033532D01*
X168259210Y-105056216D01*
X168284046Y-105065861D01*
X168298939Y-105068509D01*
X168310383Y-105058439D01*
X168318953Y-105029427D01*
X168325226Y-104975248D01*
X168329775Y-104889675D01*
X168333177Y-104766484D01*
X168336007Y-104599448D01*
X168337519Y-104487368D01*
X168339444Y-104314274D01*
X168340579Y-104159850D01*
X168340916Y-104031864D01*
X168340446Y-103938081D01*
X168339159Y-103886266D01*
X168338248Y-103878580D01*
X168316864Y-103887904D01*
X168271559Y-103924946D01*
X168251632Y-103943473D01*
X168190257Y-103993168D01*
X168158266Y-104002436D01*
X168158626Y-103977341D01*
X168194304Y-103923950D01*
X168225283Y-103889599D01*
X168315595Y-103796421D01*
X168230649Y-103796421D01*
X168182614Y-103802265D01*
X168182614Y-103802265D01*
G37*
X168182614Y-103802265D02*
X168149321Y-103824714D01*
X168128967Y-103871140D01*
X168119749Y-103948917D01*
X168119864Y-104065418D01*
X168127057Y-104220092D01*
X168134440Y-104376470D01*
X168140239Y-104549246D01*
X168143547Y-104709293D01*
X168143968Y-104762513D01*
X168145531Y-104883784D01*
X168150586Y-104961706D01*
X168160903Y-105006378D01*
X168178252Y-105027896D01*
X168191474Y-105033532D01*
X168259210Y-105056216D01*
X168284046Y-105065861D01*
X168298939Y-105068509D01*
X168310383Y-105058439D01*
X168318953Y-105029427D01*
X168325226Y-104975248D01*
X168329775Y-104889675D01*
X168333177Y-104766484D01*
X168336007Y-104599448D01*
X168337519Y-104487368D01*
X168339444Y-104314274D01*
X168340579Y-104159850D01*
X168340916Y-104031864D01*
X168340446Y-103938081D01*
X168339159Y-103886266D01*
X168338248Y-103878580D01*
X168316864Y-103887904D01*
X168271559Y-103924946D01*
X168251632Y-103943473D01*
X168190257Y-103993168D01*
X168158266Y-104002436D01*
X168158626Y-103977341D01*
X168194304Y-103923950D01*
X168225283Y-103889599D01*
X168315595Y-103796421D01*
X168230649Y-103796421D01*
X168182614Y-103802265D01*
G36*
X169072018Y-104862298D02*
X169035027Y-104918706D01*
X169031632Y-104968848D01*
X169040454Y-104998772D01*
X169060459Y-104999301D01*
X169103823Y-104967806D01*
X169127416Y-104948192D01*
X169183994Y-104890990D01*
X169191754Y-104855030D01*
X169150721Y-104839791D01*
X169132765Y-104839158D01*
X169072018Y-104862298D01*
X169072018Y-104862298D01*
G37*
X169072018Y-104862298D02*
X169035027Y-104918706D01*
X169031632Y-104968848D01*
X169040454Y-104998772D01*
X169060459Y-104999301D01*
X169103823Y-104967806D01*
X169127416Y-104948192D01*
X169183994Y-104890990D01*
X169191754Y-104855030D01*
X169150721Y-104839791D01*
X169132765Y-104839158D01*
X169072018Y-104862298D01*
G36*
X169127263Y-104068779D02*
X169040369Y-104077158D01*
X169032582Y-104315349D01*
X169031536Y-104424132D01*
X169035358Y-104512497D01*
X169043261Y-104566893D01*
X169047753Y-104576500D01*
X169087864Y-104599400D01*
X169153162Y-104623098D01*
X169155804Y-104623863D01*
X169240895Y-104648267D01*
X169240895Y-104141278D01*
X169147316Y-104212655D01*
X169085017Y-104253943D01*
X169056330Y-104256510D01*
X169053737Y-104246517D01*
X169074840Y-104208758D01*
X169126404Y-104166243D01*
X169133948Y-104161621D01*
X169196148Y-104115777D01*
X169209586Y-104083231D01*
X169174541Y-104067859D01*
X169127263Y-104068779D01*
X169127263Y-104068779D01*
G37*
X169127263Y-104068779D02*
X169040369Y-104077158D01*
X169032582Y-104315349D01*
X169031536Y-104424132D01*
X169035358Y-104512497D01*
X169043261Y-104566893D01*
X169047753Y-104576500D01*
X169087864Y-104599400D01*
X169153162Y-104623098D01*
X169155804Y-104623863D01*
X169240895Y-104648267D01*
X169240895Y-104141278D01*
X169147316Y-104212655D01*
X169085017Y-104253943D01*
X169056330Y-104256510D01*
X169053737Y-104246517D01*
X169074840Y-104208758D01*
X169126404Y-104166243D01*
X169133948Y-104161621D01*
X169196148Y-104115777D01*
X169209586Y-104083231D01*
X169174541Y-104067859D01*
X169127263Y-104068779D01*
G36*
X172890104Y-104261498D02*
X172857053Y-104277150D01*
X172811478Y-104303573D01*
X172796895Y-104318730D01*
X172805295Y-104329889D01*
X172837394Y-104311248D01*
X172865311Y-104289577D01*
X172899758Y-104260795D01*
X172890104Y-104261498D01*
X172890104Y-104261498D01*
G37*
X172890104Y-104261498D02*
X172857053Y-104277150D01*
X172811478Y-104303573D01*
X172796895Y-104318730D01*
X172805295Y-104329889D01*
X172837394Y-104311248D01*
X172865311Y-104289577D01*
X172899758Y-104260795D01*
X172890104Y-104261498D01*
G36*
X172961447Y-104208289D02*
X172932744Y-104235210D01*
X172938632Y-104250687D01*
X172942370Y-104250947D01*
X172964984Y-104231956D01*
X172973238Y-104220079D01*
X172976389Y-104201783D01*
X172961447Y-104208289D01*
X172961447Y-104208289D01*
G37*
X172961447Y-104208289D02*
X172932744Y-104235210D01*
X172938632Y-104250687D01*
X172942370Y-104250947D01*
X172964984Y-104231956D01*
X172973238Y-104220079D01*
X172976389Y-104201783D01*
X172961447Y-104208289D01*
G36*
X173041658Y-104154815D02*
X173012954Y-104181736D01*
X173018842Y-104197213D01*
X173022580Y-104197473D01*
X173045195Y-104178483D01*
X173053448Y-104166605D01*
X173056599Y-104148310D01*
X173041658Y-104154815D01*
X173041658Y-104154815D01*
G37*
X173041658Y-104154815D02*
X173012954Y-104181736D01*
X173018842Y-104197213D01*
X173022580Y-104197473D01*
X173045195Y-104178483D01*
X173053448Y-104166605D01*
X173056599Y-104148310D01*
X173041658Y-104154815D01*
G36*
X173444282Y-103736173D02*
X173422873Y-103778539D01*
X173414825Y-103801019D01*
X173361307Y-103895391D01*
X173266799Y-103991242D01*
X173256720Y-103999429D01*
X173169876Y-104069050D01*
X173117974Y-104111934D01*
X173093963Y-104134448D01*
X173090793Y-104142960D01*
X173096620Y-104144000D01*
X173124451Y-104128636D01*
X173181099Y-104088513D01*
X173248403Y-104036919D01*
X173342678Y-103951215D01*
X173413630Y-103864726D01*
X173454033Y-103787882D01*
X173457939Y-103734450D01*
X173444282Y-103736173D01*
X173444282Y-103736173D01*
G37*
X173444282Y-103736173D02*
X173422873Y-103778539D01*
X173414825Y-103801019D01*
X173361307Y-103895391D01*
X173266799Y-103991242D01*
X173256720Y-103999429D01*
X173169876Y-104069050D01*
X173117974Y-104111934D01*
X173093963Y-104134448D01*
X173090793Y-104142960D01*
X173096620Y-104144000D01*
X173124451Y-104128636D01*
X173181099Y-104088513D01*
X173248403Y-104036919D01*
X173342678Y-103951215D01*
X173413630Y-103864726D01*
X173454033Y-103787882D01*
X173457939Y-103734450D01*
X173444282Y-103736173D01*
G36*
X171781366Y-101663756D02*
X171821000Y-101686155D01*
X172071339Y-101829639D01*
X172293391Y-101979929D01*
X172499969Y-102147411D01*
X172703887Y-102342468D01*
X172917211Y-102574633D01*
X172982283Y-102651271D01*
X173031726Y-102713746D01*
X173056230Y-102750209D01*
X173057218Y-102752849D01*
X173074043Y-102787176D01*
X173111691Y-102851638D01*
X173156971Y-102924308D01*
X173211630Y-103022901D01*
X173267546Y-103145431D01*
X173318751Y-103276090D01*
X173359281Y-103399069D01*
X173383168Y-103498561D01*
X173386985Y-103533767D01*
X173399072Y-103609135D01*
X173412541Y-103649368D01*
X173425194Y-103665596D01*
X173426534Y-103630860D01*
X173421631Y-103582526D01*
X173366797Y-103301323D01*
X173270768Y-103035350D01*
X173130522Y-102779005D01*
X172943036Y-102526689D01*
X172725698Y-102292777D01*
X172581021Y-102159665D01*
X172421331Y-102028781D01*
X172256272Y-101906732D01*
X172095486Y-101800119D01*
X171948617Y-101715548D01*
X171825308Y-101659622D01*
X171780895Y-101645765D01*
X171757539Y-101644587D01*
X171781366Y-101663756D01*
X171781366Y-101663756D01*
G37*
X171781366Y-101663756D02*
X171821000Y-101686155D01*
X172071339Y-101829639D01*
X172293391Y-101979929D01*
X172499969Y-102147411D01*
X172703887Y-102342468D01*
X172917211Y-102574633D01*
X172982283Y-102651271D01*
X173031726Y-102713746D01*
X173056230Y-102750209D01*
X173057218Y-102752849D01*
X173074043Y-102787176D01*
X173111691Y-102851638D01*
X173156971Y-102924308D01*
X173211630Y-103022901D01*
X173267546Y-103145431D01*
X173318751Y-103276090D01*
X173359281Y-103399069D01*
X173383168Y-103498561D01*
X173386985Y-103533767D01*
X173399072Y-103609135D01*
X173412541Y-103649368D01*
X173425194Y-103665596D01*
X173426534Y-103630860D01*
X173421631Y-103582526D01*
X173366797Y-103301323D01*
X173270768Y-103035350D01*
X173130522Y-102779005D01*
X172943036Y-102526689D01*
X172725698Y-102292777D01*
X172581021Y-102159665D01*
X172421331Y-102028781D01*
X172256272Y-101906732D01*
X172095486Y-101800119D01*
X171948617Y-101715548D01*
X171825308Y-101659622D01*
X171780895Y-101645765D01*
X171757539Y-101644587D01*
X171781366Y-101663756D01*
G36*
X167699070Y-103564701D02*
X167695870Y-103596432D01*
X167699070Y-103600351D01*
X167714965Y-103596680D01*
X167716895Y-103582526D01*
X167707112Y-103560519D01*
X167699070Y-103564701D01*
X167699070Y-103564701D01*
G37*
X167699070Y-103564701D02*
X167695870Y-103596432D01*
X167699070Y-103600351D01*
X167714965Y-103596680D01*
X167716895Y-103582526D01*
X167707112Y-103560519D01*
X167699070Y-103564701D01*
G36*
X171837817Y-101601065D02*
X171897141Y-101631467D01*
X171953598Y-101657223D01*
X172255404Y-101817474D01*
X172546202Y-102021242D01*
X172813440Y-102258592D01*
X173044567Y-102519589D01*
X173046832Y-102522516D01*
X173161826Y-102675120D01*
X173246845Y-102797842D01*
X173307839Y-102900409D01*
X173350756Y-102992549D01*
X173373355Y-103056457D01*
X173394658Y-103118580D01*
X173405869Y-103132325D01*
X173409989Y-103101158D01*
X173410054Y-103098849D01*
X173395638Y-103023762D01*
X173353360Y-102918499D01*
X173289032Y-102794427D01*
X173208462Y-102662912D01*
X173131093Y-102553158D01*
X173048407Y-102449268D01*
X172955815Y-102342028D01*
X172861104Y-102239420D01*
X172772058Y-102149430D01*
X172696464Y-102080039D01*
X172642108Y-102039233D01*
X172622673Y-102031789D01*
X172587351Y-102018559D01*
X172583000Y-102007560D01*
X172560306Y-101972350D01*
X172498881Y-101920862D01*
X172408716Y-101858862D01*
X172299800Y-101792116D01*
X172182121Y-101726389D01*
X172065670Y-101667446D01*
X171960435Y-101621052D01*
X171876406Y-101592974D01*
X171858135Y-101589196D01*
X171825457Y-101587433D01*
X171837817Y-101601065D01*
X171837817Y-101601065D01*
G37*
X171837817Y-101601065D02*
X171897141Y-101631467D01*
X171953598Y-101657223D01*
X172255404Y-101817474D01*
X172546202Y-102021242D01*
X172813440Y-102258592D01*
X173044567Y-102519589D01*
X173046832Y-102522516D01*
X173161826Y-102675120D01*
X173246845Y-102797842D01*
X173307839Y-102900409D01*
X173350756Y-102992549D01*
X173373355Y-103056457D01*
X173394658Y-103118580D01*
X173405869Y-103132325D01*
X173409989Y-103101158D01*
X173410054Y-103098849D01*
X173395638Y-103023762D01*
X173353360Y-102918499D01*
X173289032Y-102794427D01*
X173208462Y-102662912D01*
X173131093Y-102553158D01*
X173048407Y-102449268D01*
X172955815Y-102342028D01*
X172861104Y-102239420D01*
X172772058Y-102149430D01*
X172696464Y-102080039D01*
X172642108Y-102039233D01*
X172622673Y-102031789D01*
X172587351Y-102018559D01*
X172583000Y-102007560D01*
X172560306Y-101972350D01*
X172498881Y-101920862D01*
X172408716Y-101858862D01*
X172299800Y-101792116D01*
X172182121Y-101726389D01*
X172065670Y-101667446D01*
X171960435Y-101621052D01*
X171876406Y-101592974D01*
X171858135Y-101589196D01*
X171825457Y-101587433D01*
X171837817Y-101601065D01*
G36*
X171577748Y-101587186D02*
X171607105Y-101604000D01*
X171663791Y-101624050D01*
X171693038Y-101626581D01*
X171684762Y-101611594D01*
X171673948Y-101604000D01*
X171616871Y-101581831D01*
X171593737Y-101579551D01*
X171577748Y-101587186D01*
X171577748Y-101587186D01*
G37*
X171577748Y-101587186D02*
X171607105Y-101604000D01*
X171663791Y-101624050D01*
X171693038Y-101626581D01*
X171684762Y-101611594D01*
X171673948Y-101604000D01*
X171616871Y-101581831D01*
X171593737Y-101579551D01*
X171577748Y-101587186D01*
G36*
X166674158Y-108060947D02*
X166687526Y-108074316D01*
X166700895Y-108060947D01*
X166687526Y-108047579D01*
X166674158Y-108060947D01*
X166674158Y-108060947D01*
G37*
X166674158Y-108060947D02*
X166687526Y-108074316D01*
X166700895Y-108060947D01*
X166687526Y-108047579D01*
X166674158Y-108060947D01*
G36*
X166781105Y-107980737D02*
X166794474Y-107994105D01*
X166807842Y-107980737D01*
X166794474Y-107967368D01*
X166781105Y-107980737D01*
X166781105Y-107980737D01*
G37*
X166781105Y-107980737D02*
X166794474Y-107994105D01*
X166807842Y-107980737D01*
X166794474Y-107967368D01*
X166781105Y-107980737D01*
G36*
X166731763Y-107924710D02*
X166703060Y-107951631D01*
X166708948Y-107967108D01*
X166712685Y-107967368D01*
X166735300Y-107948378D01*
X166743553Y-107936500D01*
X166746705Y-107918204D01*
X166731763Y-107924710D01*
X166731763Y-107924710D01*
G37*
X166731763Y-107924710D02*
X166703060Y-107951631D01*
X166708948Y-107967108D01*
X166712685Y-107967368D01*
X166735300Y-107948378D01*
X166743553Y-107936500D01*
X166746705Y-107918204D01*
X166731763Y-107924710D01*
G36*
X166573895Y-107579126D02*
X166468678Y-107681598D01*
X166396862Y-107752632D01*
X166353220Y-107797767D01*
X166332528Y-107822547D01*
X166329558Y-107832510D01*
X166333821Y-107833684D01*
X166354050Y-107815635D01*
X166404207Y-107766280D01*
X166477103Y-107692809D01*
X166565551Y-107602408D01*
X166581137Y-107586368D01*
X166821211Y-107339052D01*
X166573895Y-107579126D01*
X166573895Y-107579126D01*
G37*
X166573895Y-107579126D02*
X166468678Y-107681598D01*
X166396862Y-107752632D01*
X166353220Y-107797767D01*
X166332528Y-107822547D01*
X166329558Y-107832510D01*
X166333821Y-107833684D01*
X166354050Y-107815635D01*
X166404207Y-107766280D01*
X166477103Y-107692809D01*
X166565551Y-107602408D01*
X166581137Y-107586368D01*
X166821211Y-107339052D01*
X166573895Y-107579126D01*
G36*
X166277237Y-107791026D02*
X166248533Y-107817947D01*
X166254421Y-107833424D01*
X166258159Y-107833684D01*
X166280774Y-107814693D01*
X166289027Y-107802816D01*
X166292178Y-107784520D01*
X166277237Y-107791026D01*
X166277237Y-107791026D01*
G37*
X166277237Y-107791026D02*
X166248533Y-107817947D01*
X166254421Y-107833424D01*
X166258159Y-107833684D01*
X166280774Y-107814693D01*
X166289027Y-107802816D01*
X166292178Y-107784520D01*
X166277237Y-107791026D01*
G36*
X166707579Y-107630617D02*
X166657059Y-107678023D01*
X166649765Y-107698669D01*
X166656646Y-107700000D01*
X166678481Y-107681969D01*
X166716804Y-107639842D01*
X166767737Y-107579684D01*
X166707579Y-107630617D01*
X166707579Y-107630617D01*
G37*
X166707579Y-107630617D02*
X166657059Y-107678023D01*
X166649765Y-107698669D01*
X166656646Y-107700000D01*
X166678481Y-107681969D01*
X166716804Y-107639842D01*
X166767737Y-107579684D01*
X166707579Y-107630617D01*
G36*
X167021737Y-107633158D02*
X167035105Y-107646526D01*
X167048474Y-107633158D01*
X167035105Y-107619789D01*
X167021737Y-107633158D01*
X167021737Y-107633158D01*
G37*
X167021737Y-107633158D02*
X167035105Y-107646526D01*
X167048474Y-107633158D01*
X167035105Y-107619789D01*
X167021737Y-107633158D01*
G36*
X166720948Y-107510818D02*
X166665076Y-107563073D01*
X166647729Y-107588446D01*
X166656129Y-107593052D01*
X166677624Y-107575117D01*
X166719575Y-107530843D01*
X166729655Y-107519526D01*
X166794474Y-107446000D01*
X166720948Y-107510818D01*
X166720948Y-107510818D01*
G37*
X166720948Y-107510818D02*
X166665076Y-107563073D01*
X166647729Y-107588446D01*
X166656129Y-107593052D01*
X166677624Y-107575117D01*
X166719575Y-107530843D01*
X166729655Y-107519526D01*
X166794474Y-107446000D01*
X166720948Y-107510818D01*
G36*
X166513737Y-107552947D02*
X166527105Y-107566316D01*
X166540474Y-107552947D01*
X166527105Y-107539579D01*
X166513737Y-107552947D01*
X166513737Y-107552947D01*
G37*
X166513737Y-107552947D02*
X166527105Y-107566316D01*
X166540474Y-107552947D01*
X166527105Y-107539579D01*
X166513737Y-107552947D01*
G36*
X145438321Y-102518936D02*
X145353309Y-102521894D01*
X145292946Y-102529721D01*
X145252433Y-102544516D01*
X145226970Y-102568381D01*
X145211755Y-102603414D01*
X145201989Y-102651717D01*
X145192871Y-102715389D01*
X145188646Y-102743615D01*
X145175752Y-102820244D01*
X145158327Y-102915347D01*
X145137787Y-103022082D01*
X145115546Y-103133609D01*
X145093019Y-103243085D01*
X145071620Y-103343670D01*
X145052765Y-103428523D01*
X145037868Y-103490801D01*
X145028343Y-103523665D01*
X145026688Y-103526825D01*
X145001210Y-103541589D01*
X144946425Y-103567133D01*
X144869620Y-103600527D01*
X144778080Y-103638839D01*
X144679090Y-103679137D01*
X144579935Y-103718490D01*
X144487903Y-103753967D01*
X144410278Y-103782635D01*
X144354345Y-103801564D01*
X144328231Y-103807858D01*
X144293271Y-103796172D01*
X144229464Y-103761627D01*
X144138763Y-103705415D01*
X144023119Y-103628729D01*
X143927693Y-103563033D01*
X143821279Y-103489257D01*
X143722553Y-103421571D01*
X143637092Y-103363739D01*
X143570472Y-103319525D01*
X143528272Y-103292693D01*
X143520245Y-103288073D01*
X143464489Y-103258286D01*
X143134360Y-103586354D01*
X143041610Y-103679637D01*
X142958931Y-103764920D01*
X142890178Y-103838051D01*
X142839207Y-103894879D01*
X142809871Y-103931252D01*
X142804231Y-103941916D01*
X142814934Y-103968857D01*
X142843737Y-104019067D01*
X142885678Y-104084267D01*
X142915890Y-104128282D01*
X143044185Y-104312370D01*
X143148702Y-104465727D01*
X143229561Y-104588541D01*
X143286882Y-104680998D01*
X143320786Y-104743285D01*
X143331412Y-104774942D01*
X143323454Y-104809772D01*
X143302008Y-104872568D01*
X143270218Y-104955940D01*
X143231230Y-105052495D01*
X143188189Y-105154840D01*
X143144241Y-105255582D01*
X143102530Y-105347331D01*
X143066202Y-105422692D01*
X143038403Y-105474274D01*
X143026624Y-105491300D01*
X142989616Y-105514329D01*
X142933017Y-105532385D01*
X142915679Y-105535590D01*
X142858793Y-105545037D01*
X142772814Y-105560320D01*
X142666986Y-105579704D01*
X142550553Y-105601453D01*
X142432757Y-105623833D01*
X142322842Y-105645109D01*
X142230053Y-105663545D01*
X142188770Y-105672034D01*
X142071539Y-105696604D01*
X142066314Y-106178383D01*
X142061089Y-106660161D01*
X142105391Y-106670684D01*
X142122619Y-106674557D01*
X142147898Y-106679769D01*
X142185298Y-106687085D01*
X142238886Y-106697267D01*
X142312733Y-106711080D01*
X142410907Y-106729286D01*
X142537476Y-106752649D01*
X142696511Y-106781934D01*
X142783204Y-106797882D01*
X142869885Y-106815697D01*
X142943273Y-106834253D01*
X142994083Y-106851000D01*
X143011521Y-106860554D01*
X143029421Y-106889793D01*
X143055461Y-106945516D01*
X143084895Y-107017319D01*
X143094288Y-107042076D01*
X143128639Y-107132065D01*
X143171162Y-107240006D01*
X143214725Y-107347893D01*
X143232316Y-107390546D01*
X143265431Y-107473309D01*
X143291851Y-107545312D01*
X143308335Y-107597350D01*
X143312231Y-107617396D01*
X143301599Y-107653693D01*
X143274762Y-107704965D01*
X143259816Y-107728081D01*
X143231108Y-107769785D01*
X143193721Y-107824256D01*
X143144973Y-107895409D01*
X143082186Y-107987157D01*
X143002680Y-108103415D01*
X142905589Y-108245440D01*
X142860975Y-108312712D01*
X142826377Y-108368688D01*
X142806811Y-108405067D01*
X142804231Y-108413202D01*
X142817511Y-108434500D01*
X142854268Y-108477267D01*
X142909873Y-108536974D01*
X142979702Y-108609089D01*
X143059127Y-108689084D01*
X143143521Y-108772428D01*
X143228258Y-108854593D01*
X143308712Y-108931047D01*
X143380256Y-108997261D01*
X143438263Y-109048705D01*
X143478106Y-109080850D01*
X143494882Y-109089410D01*
X143517037Y-109074553D01*
X143566056Y-109041013D01*
X143636705Y-108992392D01*
X143723748Y-108932293D01*
X143821953Y-108864321D01*
X143839453Y-108852192D01*
X143941477Y-108782277D01*
X144035825Y-108719129D01*
X144116617Y-108666565D01*
X144177969Y-108628406D01*
X144213999Y-108608469D01*
X144216424Y-108607451D01*
X144246287Y-108599522D01*
X144278970Y-108601774D01*
X144323266Y-108616760D01*
X144387965Y-108647034D01*
X144435217Y-108671017D01*
X144508777Y-108707032D01*
X144570291Y-108733799D01*
X144610969Y-108747655D01*
X144621191Y-108748474D01*
X144637696Y-108728318D01*
X144663950Y-108680305D01*
X144695492Y-108612980D01*
X144711518Y-108575547D01*
X144804375Y-108351823D01*
X144884452Y-108158358D01*
X144954121Y-107989387D01*
X145015751Y-107839146D01*
X145071711Y-107701873D01*
X145124371Y-107571803D01*
X145133132Y-107550076D01*
X145174145Y-107449737D01*
X145211163Y-107361833D01*
X145241329Y-107292941D01*
X145261788Y-107249640D01*
X145268429Y-107238438D01*
X145284747Y-107198477D01*
X145262320Y-107155495D01*
X145202992Y-107110461D01*
X145152544Y-107074693D01*
X145086117Y-107020031D01*
X145014776Y-106955794D01*
X144982593Y-106924846D01*
X144852654Y-106772311D01*
X144754291Y-106603815D01*
X144689814Y-106424590D01*
X144661531Y-106239868D01*
X144660385Y-106194780D01*
X144679554Y-105998326D01*
X144735743Y-105809071D01*
X144826970Y-105631741D01*
X144951255Y-105471066D01*
X144973000Y-105448313D01*
X145123093Y-105321147D01*
X145286816Y-105227801D01*
X145459905Y-105167356D01*
X145638095Y-105138893D01*
X145817121Y-105141495D01*
X145992719Y-105174243D01*
X146160623Y-105236217D01*
X146316569Y-105326500D01*
X146456292Y-105444173D01*
X146575527Y-105588318D01*
X146670009Y-105758015D01*
X146694920Y-105819172D01*
X146725338Y-105905754D01*
X146744037Y-105976613D01*
X146753756Y-106047656D01*
X146757236Y-106134793D01*
X146757497Y-106182384D01*
X146755898Y-106281628D01*
X146749268Y-106357782D01*
X146734864Y-106426767D01*
X146709938Y-106504502D01*
X146694792Y-106545949D01*
X146606387Y-106727937D01*
X146484832Y-106889868D01*
X146331472Y-107030044D01*
X146283838Y-107064596D01*
X146221459Y-107109752D01*
X146173820Y-107148276D01*
X146148473Y-107173898D01*
X146146257Y-107178846D01*
X146149819Y-107195218D01*
X146161628Y-107229467D01*
X146182991Y-107284852D01*
X146215215Y-107364632D01*
X146259604Y-107472067D01*
X146317465Y-107610416D01*
X146353714Y-107696615D01*
X146393660Y-107792420D01*
X146435859Y-107895134D01*
X146472293Y-107985212D01*
X146477971Y-107999461D01*
X146508090Y-108074205D01*
X146549218Y-108174782D01*
X146597147Y-108291033D01*
X146647667Y-108412799D01*
X146696570Y-108529923D01*
X146739646Y-108632245D01*
X146759282Y-108678423D01*
X146783299Y-108724355D01*
X146805143Y-108749854D01*
X146810312Y-108751692D01*
X146835630Y-108743393D01*
X146886526Y-108721211D01*
X146953868Y-108689222D01*
X146985462Y-108673538D01*
X147059540Y-108638282D01*
X147123786Y-108611293D01*
X147167888Y-108596766D01*
X147177481Y-108595384D01*
X147214521Y-108606394D01*
X147266042Y-108634241D01*
X147290374Y-108650666D01*
X147324672Y-108674760D01*
X147383527Y-108715343D01*
X147460321Y-108767921D01*
X147548436Y-108827997D01*
X147641251Y-108891079D01*
X147732148Y-108952670D01*
X147814508Y-109008277D01*
X147881710Y-109053403D01*
X147927138Y-109083556D01*
X147940914Y-109092421D01*
X147958074Y-109081643D01*
X147998718Y-109046671D01*
X148058928Y-108991169D01*
X148134785Y-108918802D01*
X148222372Y-108833234D01*
X148290936Y-108765068D01*
X148384174Y-108671071D01*
X148467463Y-108585866D01*
X148537023Y-108513421D01*
X148589076Y-108457706D01*
X148619843Y-108422686D01*
X148626693Y-108412543D01*
X148616134Y-108391568D01*
X148587022Y-108344519D01*
X148543200Y-108277342D01*
X148488511Y-108195984D01*
X148456317Y-108148977D01*
X148357063Y-108004895D01*
X148277977Y-107889203D01*
X148217161Y-107798040D01*
X148172717Y-107727544D01*
X148142747Y-107673855D01*
X148125352Y-107633113D01*
X148118634Y-107601457D01*
X148120696Y-107575025D01*
X148129639Y-107549957D01*
X148143565Y-107522392D01*
X148145982Y-107517773D01*
X148170379Y-107463526D01*
X148194494Y-107398980D01*
X148197189Y-107390773D01*
X148220059Y-107325496D01*
X148251540Y-107243416D01*
X148288152Y-107152742D01*
X148326413Y-107061683D01*
X148362840Y-106978448D01*
X148393951Y-106911244D01*
X148416265Y-106868282D01*
X148422951Y-106858547D01*
X148452147Y-106843670D01*
X148510287Y-106825761D01*
X148587666Y-106807551D01*
X148639959Y-106797498D01*
X148817585Y-106765983D01*
X148975026Y-106737647D01*
X149108735Y-106713146D01*
X149215164Y-106693140D01*
X149290766Y-106678289D01*
X149331994Y-106669251D01*
X149335300Y-106668348D01*
X149346017Y-106662763D01*
X149354166Y-106650028D01*
X149360022Y-106625543D01*
X149363858Y-106584705D01*
X149365949Y-106522914D01*
X149366569Y-106435569D01*
X149365993Y-106318068D01*
X149364608Y-106176398D01*
X149359385Y-105694567D01*
X149291000Y-105681673D01*
X149243614Y-105672619D01*
X149169158Y-105658257D01*
X149078919Y-105640768D01*
X149007693Y-105626917D01*
X148896117Y-105605516D01*
X148775445Y-105582902D01*
X148664498Y-105562581D01*
X148616924Y-105554090D01*
X148535998Y-105538131D01*
X148468387Y-105521657D01*
X148424425Y-105507321D01*
X148415130Y-105502289D01*
X148387347Y-105467514D01*
X148350693Y-105403863D01*
X148309205Y-105319344D01*
X148266920Y-105221966D01*
X148242527Y-105159854D01*
X148207130Y-105070762D01*
X148165381Y-104972604D01*
X148137519Y-104910861D01*
X148108675Y-104847076D01*
X148087933Y-104797214D01*
X148079628Y-104771723D01*
X148079616Y-104771375D01*
X148090064Y-104749813D01*
X148118360Y-104703502D01*
X148159927Y-104639698D01*
X148200263Y-104580060D01*
X148314738Y-104413165D01*
X148408517Y-104275952D01*
X148483206Y-104166018D01*
X148540413Y-104080958D01*
X148581744Y-104018369D01*
X148608806Y-103975845D01*
X148623206Y-103950983D01*
X148626693Y-103942048D01*
X148613461Y-103924798D01*
X148576289Y-103883968D01*
X148518961Y-103823515D01*
X148445261Y-103747395D01*
X148358974Y-103659567D01*
X148293305Y-103593434D01*
X147959916Y-103259118D01*
X147868343Y-103311809D01*
X147810711Y-103346268D01*
X147764035Y-103376444D01*
X147747462Y-103388550D01*
X147722402Y-103407069D01*
X147670912Y-103443643D01*
X147598779Y-103494214D01*
X147511789Y-103554722D01*
X147427863Y-103612747D01*
X147321771Y-103685240D01*
X147242105Y-103737684D01*
X147183618Y-103772915D01*
X147141060Y-103793769D01*
X147109182Y-103803083D01*
X147082737Y-103803692D01*
X147076170Y-103802786D01*
X147033180Y-103790870D01*
X146962352Y-103765918D01*
X146871435Y-103731039D01*
X146768175Y-103689342D01*
X146660320Y-103643937D01*
X146555619Y-103597934D01*
X146485559Y-103565728D01*
X146386195Y-103518960D01*
X146354039Y-103365749D01*
X146337587Y-103282996D01*
X146317706Y-103176452D01*
X146297104Y-103060919D01*
X146281317Y-102968307D01*
X146255681Y-102819476D01*
X146233880Y-102705834D01*
X146215041Y-102623776D01*
X146198295Y-102569698D01*
X146182769Y-102539996D01*
X146176333Y-102533876D01*
X146151460Y-102529778D01*
X146093283Y-102526110D01*
X146007577Y-102523051D01*
X145900115Y-102520777D01*
X145776670Y-102519468D01*
X145701496Y-102519222D01*
X145552783Y-102518745D01*
X145438321Y-102518936D01*
X145438321Y-102518936D01*
G37*
X145438321Y-102518936D02*
X145353309Y-102521894D01*
X145292946Y-102529721D01*
X145252433Y-102544516D01*
X145226970Y-102568381D01*
X145211755Y-102603414D01*
X145201989Y-102651717D01*
X145192871Y-102715389D01*
X145188646Y-102743615D01*
X145175752Y-102820244D01*
X145158327Y-102915347D01*
X145137787Y-103022082D01*
X145115546Y-103133609D01*
X145093019Y-103243085D01*
X145071620Y-103343670D01*
X145052765Y-103428523D01*
X145037868Y-103490801D01*
X145028343Y-103523665D01*
X145026688Y-103526825D01*
X145001210Y-103541589D01*
X144946425Y-103567133D01*
X144869620Y-103600527D01*
X144778080Y-103638839D01*
X144679090Y-103679137D01*
X144579935Y-103718490D01*
X144487903Y-103753967D01*
X144410278Y-103782635D01*
X144354345Y-103801564D01*
X144328231Y-103807858D01*
X144293271Y-103796172D01*
X144229464Y-103761627D01*
X144138763Y-103705415D01*
X144023119Y-103628729D01*
X143927693Y-103563033D01*
X143821279Y-103489257D01*
X143722553Y-103421571D01*
X143637092Y-103363739D01*
X143570472Y-103319525D01*
X143528272Y-103292693D01*
X143520245Y-103288073D01*
X143464489Y-103258286D01*
X143134360Y-103586354D01*
X143041610Y-103679637D01*
X142958931Y-103764920D01*
X142890178Y-103838051D01*
X142839207Y-103894879D01*
X142809871Y-103931252D01*
X142804231Y-103941916D01*
X142814934Y-103968857D01*
X142843737Y-104019067D01*
X142885678Y-104084267D01*
X142915890Y-104128282D01*
X143044185Y-104312370D01*
X143148702Y-104465727D01*
X143229561Y-104588541D01*
X143286882Y-104680998D01*
X143320786Y-104743285D01*
X143331412Y-104774942D01*
X143323454Y-104809772D01*
X143302008Y-104872568D01*
X143270218Y-104955940D01*
X143231230Y-105052495D01*
X143188189Y-105154840D01*
X143144241Y-105255582D01*
X143102530Y-105347331D01*
X143066202Y-105422692D01*
X143038403Y-105474274D01*
X143026624Y-105491300D01*
X142989616Y-105514329D01*
X142933017Y-105532385D01*
X142915679Y-105535590D01*
X142858793Y-105545037D01*
X142772814Y-105560320D01*
X142666986Y-105579704D01*
X142550553Y-105601453D01*
X142432757Y-105623833D01*
X142322842Y-105645109D01*
X142230053Y-105663545D01*
X142188770Y-105672034D01*
X142071539Y-105696604D01*
X142066314Y-106178383D01*
X142061089Y-106660161D01*
X142105391Y-106670684D01*
X142122619Y-106674557D01*
X142147898Y-106679769D01*
X142185298Y-106687085D01*
X142238886Y-106697267D01*
X142312733Y-106711080D01*
X142410907Y-106729286D01*
X142537476Y-106752649D01*
X142696511Y-106781934D01*
X142783204Y-106797882D01*
X142869885Y-106815697D01*
X142943273Y-106834253D01*
X142994083Y-106851000D01*
X143011521Y-106860554D01*
X143029421Y-106889793D01*
X143055461Y-106945516D01*
X143084895Y-107017319D01*
X143094288Y-107042076D01*
X143128639Y-107132065D01*
X143171162Y-107240006D01*
X143214725Y-107347893D01*
X143232316Y-107390546D01*
X143265431Y-107473309D01*
X143291851Y-107545312D01*
X143308335Y-107597350D01*
X143312231Y-107617396D01*
X143301599Y-107653693D01*
X143274762Y-107704965D01*
X143259816Y-107728081D01*
X143231108Y-107769785D01*
X143193721Y-107824256D01*
X143144973Y-107895409D01*
X143082186Y-107987157D01*
X143002680Y-108103415D01*
X142905589Y-108245440D01*
X142860975Y-108312712D01*
X142826377Y-108368688D01*
X142806811Y-108405067D01*
X142804231Y-108413202D01*
X142817511Y-108434500D01*
X142854268Y-108477267D01*
X142909873Y-108536974D01*
X142979702Y-108609089D01*
X143059127Y-108689084D01*
X143143521Y-108772428D01*
X143228258Y-108854593D01*
X143308712Y-108931047D01*
X143380256Y-108997261D01*
X143438263Y-109048705D01*
X143478106Y-109080850D01*
X143494882Y-109089410D01*
X143517037Y-109074553D01*
X143566056Y-109041013D01*
X143636705Y-108992392D01*
X143723748Y-108932293D01*
X143821953Y-108864321D01*
X143839453Y-108852192D01*
X143941477Y-108782277D01*
X144035825Y-108719129D01*
X144116617Y-108666565D01*
X144177969Y-108628406D01*
X144213999Y-108608469D01*
X144216424Y-108607451D01*
X144246287Y-108599522D01*
X144278970Y-108601774D01*
X144323266Y-108616760D01*
X144387965Y-108647034D01*
X144435217Y-108671017D01*
X144508777Y-108707032D01*
X144570291Y-108733799D01*
X144610969Y-108747655D01*
X144621191Y-108748474D01*
X144637696Y-108728318D01*
X144663950Y-108680305D01*
X144695492Y-108612980D01*
X144711518Y-108575547D01*
X144804375Y-108351823D01*
X144884452Y-108158358D01*
X144954121Y-107989387D01*
X145015751Y-107839146D01*
X145071711Y-107701873D01*
X145124371Y-107571803D01*
X145133132Y-107550076D01*
X145174145Y-107449737D01*
X145211163Y-107361833D01*
X145241329Y-107292941D01*
X145261788Y-107249640D01*
X145268429Y-107238438D01*
X145284747Y-107198477D01*
X145262320Y-107155495D01*
X145202992Y-107110461D01*
X145152544Y-107074693D01*
X145086117Y-107020031D01*
X145014776Y-106955794D01*
X144982593Y-106924846D01*
X144852654Y-106772311D01*
X144754291Y-106603815D01*
X144689814Y-106424590D01*
X144661531Y-106239868D01*
X144660385Y-106194780D01*
X144679554Y-105998326D01*
X144735743Y-105809071D01*
X144826970Y-105631741D01*
X144951255Y-105471066D01*
X144973000Y-105448313D01*
X145123093Y-105321147D01*
X145286816Y-105227801D01*
X145459905Y-105167356D01*
X145638095Y-105138893D01*
X145817121Y-105141495D01*
X145992719Y-105174243D01*
X146160623Y-105236217D01*
X146316569Y-105326500D01*
X146456292Y-105444173D01*
X146575527Y-105588318D01*
X146670009Y-105758015D01*
X146694920Y-105819172D01*
X146725338Y-105905754D01*
X146744037Y-105976613D01*
X146753756Y-106047656D01*
X146757236Y-106134793D01*
X146757497Y-106182384D01*
X146755898Y-106281628D01*
X146749268Y-106357782D01*
X146734864Y-106426767D01*
X146709938Y-106504502D01*
X146694792Y-106545949D01*
X146606387Y-106727937D01*
X146484832Y-106889868D01*
X146331472Y-107030044D01*
X146283838Y-107064596D01*
X146221459Y-107109752D01*
X146173820Y-107148276D01*
X146148473Y-107173898D01*
X146146257Y-107178846D01*
X146149819Y-107195218D01*
X146161628Y-107229467D01*
X146182991Y-107284852D01*
X146215215Y-107364632D01*
X146259604Y-107472067D01*
X146317465Y-107610416D01*
X146353714Y-107696615D01*
X146393660Y-107792420D01*
X146435859Y-107895134D01*
X146472293Y-107985212D01*
X146477971Y-107999461D01*
X146508090Y-108074205D01*
X146549218Y-108174782D01*
X146597147Y-108291033D01*
X146647667Y-108412799D01*
X146696570Y-108529923D01*
X146739646Y-108632245D01*
X146759282Y-108678423D01*
X146783299Y-108724355D01*
X146805143Y-108749854D01*
X146810312Y-108751692D01*
X146835630Y-108743393D01*
X146886526Y-108721211D01*
X146953868Y-108689222D01*
X146985462Y-108673538D01*
X147059540Y-108638282D01*
X147123786Y-108611293D01*
X147167888Y-108596766D01*
X147177481Y-108595384D01*
X147214521Y-108606394D01*
X147266042Y-108634241D01*
X147290374Y-108650666D01*
X147324672Y-108674760D01*
X147383527Y-108715343D01*
X147460321Y-108767921D01*
X147548436Y-108827997D01*
X147641251Y-108891079D01*
X147732148Y-108952670D01*
X147814508Y-109008277D01*
X147881710Y-109053403D01*
X147927138Y-109083556D01*
X147940914Y-109092421D01*
X147958074Y-109081643D01*
X147998718Y-109046671D01*
X148058928Y-108991169D01*
X148134785Y-108918802D01*
X148222372Y-108833234D01*
X148290936Y-108765068D01*
X148384174Y-108671071D01*
X148467463Y-108585866D01*
X148537023Y-108513421D01*
X148589076Y-108457706D01*
X148619843Y-108422686D01*
X148626693Y-108412543D01*
X148616134Y-108391568D01*
X148587022Y-108344519D01*
X148543200Y-108277342D01*
X148488511Y-108195984D01*
X148456317Y-108148977D01*
X148357063Y-108004895D01*
X148277977Y-107889203D01*
X148217161Y-107798040D01*
X148172717Y-107727544D01*
X148142747Y-107673855D01*
X148125352Y-107633113D01*
X148118634Y-107601457D01*
X148120696Y-107575025D01*
X148129639Y-107549957D01*
X148143565Y-107522392D01*
X148145982Y-107517773D01*
X148170379Y-107463526D01*
X148194494Y-107398980D01*
X148197189Y-107390773D01*
X148220059Y-107325496D01*
X148251540Y-107243416D01*
X148288152Y-107152742D01*
X148326413Y-107061683D01*
X148362840Y-106978448D01*
X148393951Y-106911244D01*
X148416265Y-106868282D01*
X148422951Y-106858547D01*
X148452147Y-106843670D01*
X148510287Y-106825761D01*
X148587666Y-106807551D01*
X148639959Y-106797498D01*
X148817585Y-106765983D01*
X148975026Y-106737647D01*
X149108735Y-106713146D01*
X149215164Y-106693140D01*
X149290766Y-106678289D01*
X149331994Y-106669251D01*
X149335300Y-106668348D01*
X149346017Y-106662763D01*
X149354166Y-106650028D01*
X149360022Y-106625543D01*
X149363858Y-106584705D01*
X149365949Y-106522914D01*
X149366569Y-106435569D01*
X149365993Y-106318068D01*
X149364608Y-106176398D01*
X149359385Y-105694567D01*
X149291000Y-105681673D01*
X149243614Y-105672619D01*
X149169158Y-105658257D01*
X149078919Y-105640768D01*
X149007693Y-105626917D01*
X148896117Y-105605516D01*
X148775445Y-105582902D01*
X148664498Y-105562581D01*
X148616924Y-105554090D01*
X148535998Y-105538131D01*
X148468387Y-105521657D01*
X148424425Y-105507321D01*
X148415130Y-105502289D01*
X148387347Y-105467514D01*
X148350693Y-105403863D01*
X148309205Y-105319344D01*
X148266920Y-105221966D01*
X148242527Y-105159854D01*
X148207130Y-105070762D01*
X148165381Y-104972604D01*
X148137519Y-104910861D01*
X148108675Y-104847076D01*
X148087933Y-104797214D01*
X148079628Y-104771723D01*
X148079616Y-104771375D01*
X148090064Y-104749813D01*
X148118360Y-104703502D01*
X148159927Y-104639698D01*
X148200263Y-104580060D01*
X148314738Y-104413165D01*
X148408517Y-104275952D01*
X148483206Y-104166018D01*
X148540413Y-104080958D01*
X148581744Y-104018369D01*
X148608806Y-103975845D01*
X148623206Y-103950983D01*
X148626693Y-103942048D01*
X148613461Y-103924798D01*
X148576289Y-103883968D01*
X148518961Y-103823515D01*
X148445261Y-103747395D01*
X148358974Y-103659567D01*
X148293305Y-103593434D01*
X147959916Y-103259118D01*
X147868343Y-103311809D01*
X147810711Y-103346268D01*
X147764035Y-103376444D01*
X147747462Y-103388550D01*
X147722402Y-103407069D01*
X147670912Y-103443643D01*
X147598779Y-103494214D01*
X147511789Y-103554722D01*
X147427863Y-103612747D01*
X147321771Y-103685240D01*
X147242105Y-103737684D01*
X147183618Y-103772915D01*
X147141060Y-103793769D01*
X147109182Y-103803083D01*
X147082737Y-103803692D01*
X147076170Y-103802786D01*
X147033180Y-103790870D01*
X146962352Y-103765918D01*
X146871435Y-103731039D01*
X146768175Y-103689342D01*
X146660320Y-103643937D01*
X146555619Y-103597934D01*
X146485559Y-103565728D01*
X146386195Y-103518960D01*
X146354039Y-103365749D01*
X146337587Y-103282996D01*
X146317706Y-103176452D01*
X146297104Y-103060919D01*
X146281317Y-102968307D01*
X146255681Y-102819476D01*
X146233880Y-102705834D01*
X146215041Y-102623776D01*
X146198295Y-102569698D01*
X146182769Y-102539996D01*
X146176333Y-102533876D01*
X146151460Y-102529778D01*
X146093283Y-102526110D01*
X146007577Y-102523051D01*
X145900115Y-102520777D01*
X145776670Y-102519468D01*
X145701496Y-102519222D01*
X145552783Y-102518745D01*
X145438321Y-102518936D01*
D14*
X167224000Y-93568000D03*
X147224000Y-93568000D03*
X147224000Y-113568000D03*
X167224000Y-113568000D03*
D15*
X162224000Y-103568000D03*
X152224000Y-103568000D03*
D16*
X157224000Y-95568000D03*
X157224000Y-98568000D03*
D14*
X166224000Y-98568000D03*
X148224000Y-98568000D03*
X157224000Y-113568000D03*
D17*
X157224000Y-103568000D03*
M02*
